<svg width="101" height="37" viewBox="0 0 101 37" fill="none" xmlns="http://www.w3.org/2000/svg">
<g clip-path="url(#clip0_927_5675)">
<mask id="mask0_927_5675" style="mask-type:luminance" maskUnits="userSpaceOnUse" x="0" y="0" width="101" height="37">
<path d="M100.125 0.625H0.125V36.625H100.125V0.625Z" fill="white"/>
</mask>
<g mask="url(#mask0_927_5675)">
<path d="M8.46848 13.3516H0.125V36.6218H8.46848V13.3516Z" fill="white"/>
<path d="M0.125 0.625V7.89693L8.1734 13.5232L8.46848 13.3515V0.625H0.125Z" fill="white"/>
<path d="M57.0592 0.625L8.46484 0.626651L20.6016 9.11056H57.0592C58.4764 9.11056 59.6372 10.2912 59.6372 11.7324V18.0644L67.9808 23.8984V11.7324C67.9808 5.62466 63.068 0.625 57.0592 0.625Z" fill="white"/>
<path d="M31.5269 36.625H80.1221L67.9847 28.1394H31.5269C30.1131 28.1394 28.9489 26.9554 28.9489 25.5176V19.1856L20.6055 13.3516V25.5142C20.6023 31.6352 25.5085 36.625 31.5269 36.625Z" fill="white"/>
<path d="M94.199 11.576L90.9574 4.25781H92.27L94.5369 9.62713L96.8039 4.25781H98.1165L94.8752 11.576H94.199ZM90.7188 11.576V4.25781H91.9915V11.576H90.7188ZM97.0824 11.576V4.25781H98.3551V11.576H97.0824ZM85.9462 11.576V4.89417H87.2188V11.576H85.9462ZM83.7188 5.37145V4.25781H89.4462V5.37145H83.7188Z" fill="white"/>
</g>
</g>
<defs>
<clipPath id="clip0_927_5675">
<rect width="101" height="37" fill="white"/>
</clipPath>
</defs>
</svg>
