<svg width="91" height="55" viewBox="0 0 91 55" fill="none" xmlns="http://www.w3.org/2000/svg">
<g clip-path="url(#clip0_927_5663)">
<path d="M25.599 19.9707C25.599 21.0843 25.7194 21.9873 25.9301 22.6495C26.1709 23.3117 26.4719 24.0341 26.8933 24.8166C27.0438 25.0574 27.104 25.2982 27.104 25.5089C27.104 25.8099 26.9234 26.1109 26.5321 26.4119L24.6359 27.6761C24.365 27.8566 24.0941 27.9469 23.8533 27.9469C23.5523 27.9469 23.2514 27.7965 22.9504 27.5256C22.529 27.0741 22.1678 26.5925 21.8668 26.1109C21.5659 25.5992 21.2649 25.0273 20.9338 24.335C18.5861 27.1042 15.6365 28.4887 12.0849 28.4887C9.55659 28.4887 7.53999 27.7664 6.06517 26.3216C4.59035 24.8768 3.83789 22.9505 3.83789 20.5426C3.83789 17.9841 4.74084 15.9073 6.57685 14.3421C8.41285 12.777 10.8508 11.9944 13.951 11.9944C14.9743 11.9944 16.0277 12.0847 17.1414 12.2352C18.255 12.3857 19.3988 12.6265 20.6027 12.8974V10.7001C20.6027 8.41259 20.1211 6.81734 19.1881 5.88426C18.2249 4.95119 16.5996 4.4997 14.282 4.4997C13.2286 4.4997 12.1451 4.6201 11.0314 4.89099C9.91777 5.16188 8.83423 5.49297 7.78078 5.91436C7.29921 6.12506 6.93803 6.24545 6.72734 6.30565C6.51665 6.36585 6.36616 6.39595 6.24576 6.39595C5.82439 6.39595 5.6137 6.09496 5.6137 5.46287V3.98802C5.6137 3.50643 5.67389 3.14524 5.82439 2.93454C5.97488 2.72385 6.24576 2.51316 6.66714 2.30246C7.72058 1.76068 8.98472 1.30919 10.4595 0.948C11.9344 0.556711 13.4995 0.376116 15.1549 0.376116C18.7366 0.376116 21.3552 1.18879 23.0407 2.81415C24.6961 4.4395 25.5388 6.90763 25.5388 10.2185V19.9707H25.599ZM13.3791 24.5457C14.3723 24.5457 15.3957 24.3651 16.4792 24.004C17.5628 23.6428 18.5259 22.9806 19.3386 22.0776C19.8201 21.5057 20.1813 20.8736 20.3619 20.1513C20.5425 19.4289 20.6629 18.556 20.6629 17.5326V16.2685C19.79 16.0578 18.857 15.8772 17.8938 15.7568C16.9307 15.6364 15.9976 15.5762 15.0646 15.5762C13.048 15.5762 11.5732 15.9675 10.5799 16.7802C9.58669 17.5928 9.10511 18.7366 9.10511 20.2416C9.10511 21.6562 9.46629 22.7097 10.2188 23.4321C10.9411 24.1846 11.9946 24.5457 13.3791 24.5457ZM37.5481 27.7965C37.0063 27.7965 36.6452 27.7062 36.4044 27.4955C36.1636 27.3149 35.9529 26.8935 35.7723 26.3216L28.6992 3.05494C28.5186 2.45296 28.4283 2.06167 28.4283 1.85098C28.4283 1.36939 28.6691 1.0985 29.1507 1.0985H32.1003C32.6722 1.0985 33.0634 1.18879 33.2741 1.39949C33.5149 1.58008 33.6955 2.00147 33.8761 2.57335L38.9326 22.499L43.628 2.57335C43.7785 1.97137 43.9591 1.58008 44.1998 1.39949C44.4406 1.21889 44.862 1.0985 45.4038 1.0985H47.8117C48.3835 1.0985 48.7748 1.18879 49.0156 1.39949C49.2564 1.58008 49.4671 2.00147 49.5875 2.57335L54.343 22.7398L59.55 2.57335C59.7306 1.97137 59.9413 1.58008 60.152 1.39949C60.3928 1.21889 60.7841 1.0985 61.3258 1.0985H64.125C64.6066 1.0985 64.8775 1.33929 64.8775 1.85098C64.8775 2.00147 64.8474 2.15197 64.8173 2.33256C64.7872 2.51316 64.727 2.75395 64.6066 3.08504L57.3529 26.3517C57.1723 26.9537 56.9616 27.345 56.7208 27.5256C56.48 27.7062 56.0887 27.8265 55.577 27.8265H52.9886C52.4167 27.8265 52.0254 27.7363 51.7846 27.5256C51.5439 27.3149 51.3332 26.9236 51.2128 26.3216L46.5475 6.90763L41.9124 26.2915C41.7619 26.8935 41.5813 27.2848 41.3405 27.4955C41.0997 27.7062 40.6783 27.7965 40.1366 27.7965H37.5481ZM76.2246 28.6091C74.6594 28.6091 73.0943 28.4285 71.5894 28.0673C70.0845 27.7062 68.9106 27.3149 68.1281 26.8634C67.6465 26.5925 67.3154 26.2915 67.195 26.0206C67.0746 25.7497 67.0144 25.4487 67.0144 25.1778V23.6428C67.0144 23.0107 67.2552 22.7097 67.7067 22.7097C67.8873 22.7097 68.0679 22.7398 68.2485 22.8C68.4291 22.8602 68.7 22.9806 69.0009 23.101C70.0243 23.5525 71.1379 23.9137 72.3118 24.1545C73.5157 24.3952 74.6895 24.5156 75.8935 24.5156C77.7897 24.5156 79.2645 24.1846 80.2878 23.5224C81.3112 22.8602 81.853 21.897 81.853 20.6629C81.853 19.8202 81.5821 19.1279 81.0403 18.556C80.4985 17.9841 79.4752 17.4724 78.0004 16.9909L73.6361 15.6364C71.4389 14.9441 69.8136 13.9207 68.8203 12.5663C67.8271 11.2419 67.3154 9.76705 67.3154 8.2019C67.3154 6.93773 67.5863 5.82406 68.1281 4.86089C68.6699 3.89772 69.3922 3.05494 70.2952 2.39276C71.1981 1.70048 72.2215 1.18879 73.4254 0.827604C74.6293 0.466414 75.8935 0.315918 77.2178 0.315918C77.88 0.315918 78.5722 0.346017 79.2344 0.436315C79.9267 0.526612 80.5587 0.647009 81.1908 0.767405C81.7928 0.917901 82.3646 1.0684 82.9064 1.24899C83.4482 1.42959 83.8696 1.61018 84.1705 1.79078C84.5919 2.03157 84.8929 2.27236 85.0735 2.54326C85.2541 2.78405 85.3444 3.11514 85.3444 3.53653V4.95119C85.3444 5.58327 85.1036 5.91436 84.6521 5.91436C84.4113 5.91436 84.02 5.79396 83.5084 5.55317C81.7928 4.77059 79.8665 4.3793 77.7295 4.3793C76.0139 4.3793 74.6594 4.6502 73.7264 5.22208C72.7933 5.79396 72.3118 6.66684 72.3118 7.90091C72.3118 8.74368 72.6127 9.46606 73.2147 10.0379C73.8167 10.6098 74.9303 11.1817 76.5255 11.6934L80.7995 13.0479C82.9666 13.7401 84.5317 14.7033 85.4648 15.9374C86.3978 17.1714 86.8493 18.5861 86.8493 20.1513C86.8493 21.4455 86.5784 22.6194 86.0667 23.6428C85.525 24.6661 84.8026 25.5691 83.8696 26.2915C82.9365 27.044 81.8229 27.5858 80.5286 27.977C79.1742 28.3984 77.7596 28.6091 76.2246 28.6091Z" fill="white"/>
<path fill-rule="evenodd" clip-rule="evenodd" d="M81.9011 43.2377C71.9987 50.5517 57.6117 54.4345 45.2412 54.4345C27.9046 54.4345 12.2835 48.0234 0.4849 37.3683C-0.44815 36.5255 0.394605 35.3818 1.50825 36.044C14.27 43.4483 30.0114 47.9331 46.2947 47.9331C57.2806 47.9331 69.3501 45.6456 80.4564 40.9501C82.1118 40.1976 83.5264 42.0337 81.9011 43.2377Z" fill="white"/>
<path fill-rule="evenodd" clip-rule="evenodd" d="M86.0276 38.5418C84.7635 36.9164 77.6603 37.7592 74.4397 38.1505C73.4766 38.2709 73.3261 37.4281 74.1989 36.796C79.8574 32.823 89.1579 33.9667 90.2414 35.2911C91.3249 36.6455 89.9404 45.9462 84.6431 50.4009C83.8304 51.0931 83.0479 50.732 83.4091 49.829C84.613 46.8492 87.2918 40.1371 86.0276 38.5418Z" fill="white"/>
</g>
<defs>
<clipPath id="clip0_927_5663">
<rect width="91" height="55" fill="white"/>
</clipPath>
</defs>
</svg>
