<svg width="148" height="32" viewBox="0 0 148 32" fill="none" xmlns="http://www.w3.org/2000/svg">
<path d="M46.5634 22.3696H54.9752V26.387H41.7631V5.23522H46.5634V22.3696ZM0 0H32.1441V31.7329H0V0ZM2.84168 28.936H29.2945V2.79422H2.84168V28.936ZM8.49076 5.2774L14.0819 15.0783L7.86074 26.4292H11.8675L16.014 18.6818L20.4296 26.4292H24.5102L12.5714 5.27476L8.49076 5.2774ZM90.6648 10.6971C89.641 10.6737 88.631 10.9347 87.7467 11.451C86.9709 11.9278 86.2987 12.5552 85.7697 13.2963H85.7064C85.0474 11.6962 83.4788 10.6918 81.5018 10.6918C78.8657 10.6918 77.5161 12.1338 76.8571 13.1091H76.7623L76.5434 11.0372H72.6525V26.3817H77.2973V17.4428C77.2822 17.0373 77.3456 16.6326 77.4845 16.2513C77.7665 15.4605 78.4889 14.5247 79.712 14.5247C81.2197 14.5247 81.9105 15.8427 81.9105 17.7881V26.387H86.5552V17.4244C86.553 17.0085 86.6161 16.5948 86.7423 16.1986C86.8848 15.7244 87.1742 15.3077 87.5689 15.0087C87.9636 14.7097 88.4431 14.5439 88.9381 14.5352C90.4776 14.5352 91.2 15.8216 91.2 18.0517V26.3975H95.842V17.3505C95.842 12.7691 93.6145 10.6971 90.6648 10.6971ZM126.679 4.6342H131.45V26.3738H127.338L127.119 24.1147H127.056C126.083 25.8413 124.23 26.7191 122.253 26.7191C118.613 26.7191 115.694 23.6138 115.694 18.8426C115.663 13.6653 118.895 10.6839 122.567 10.6839C124.451 10.6839 125.925 11.343 126.616 12.4106H126.679V4.6342ZM126.679 17.5245C126.674 17.2415 126.653 16.959 126.616 16.6783C126.334 15.3919 125.298 14.3243 123.824 14.3243C121.657 14.3243 120.529 16.2698 120.529 18.687C120.529 21.2915 121.815 22.9232 123.792 22.9232C124.449 22.9306 125.087 22.7062 125.594 22.2896C126.101 21.8731 126.445 21.2909 126.566 20.6456C126.658 20.2868 126.701 19.9169 126.692 19.5464L126.679 17.5245ZM147.261 17.3031V26.3738H143.149L142.867 24.837H142.772C141.765 26.0601 140.189 26.7191 138.362 26.7191C135.244 26.7191 133.385 24.46 133.385 22.0111C133.385 18.0254 137.442 16.855 142.424 16.855V15.935C142.424 15.1204 141.984 13.9579 139.622 13.9579C138.377 13.9751 137.15 14.2526 136.019 14.7725L134.49 12.0441C135.56 11.4484 137.669 10.6945 140.474 10.6945C145.606 10.6945 147.261 13.7075 147.261 17.3163V17.3031ZM142.582 19.6756C139.946 19.6756 137.808 19.8548 137.798 21.7844C137.798 23.0154 138.929 23.3476 139.999 23.3476C140.546 23.3517 141.08 23.1843 141.526 22.8688C141.973 22.5534 142.309 22.1059 142.487 21.5893C142.552 21.3227 142.584 21.0492 142.582 20.7748V19.6756ZM113.849 18.4208C113.849 23.9407 110.38 26.698 106.911 26.698C105.145 26.698 103.442 26.039 102.359 24.2228H102.314L102.129 26.3527H98.2541V4.64738H102.957V12.8534H103.018C103.917 11.5354 105.496 10.6918 107.602 10.6918C111.226 10.6918 113.889 13.7312 113.86 18.434L113.849 18.4208ZM109.046 18.6106C109.046 16.2381 107.992 14.3454 105.796 14.3454C104.525 14.3454 103.35 15.3181 103.039 16.6968C102.976 16.9852 102.946 17.2795 102.946 17.5746V19.8337C102.944 20.1184 102.975 20.4025 103.039 20.6799C103.175 21.3125 103.522 21.8801 104.023 22.2899C104.524 22.6998 105.149 22.9277 105.796 22.9364C107.821 22.9495 109.057 21.3811 109.057 18.6238L109.046 18.6106ZM70.5595 17.2926V26.3632H66.4631L66.1811 24.8264H66.0862C65.0766 26.0496 63.5027 26.7086 61.676 26.7086C58.5549 26.7244 56.7096 24.4732 56.7096 22.0243C56.7096 18.0386 60.7665 16.8681 65.7487 16.8681V15.935C65.7487 15.1204 65.3085 13.9579 62.9465 13.9579C61.7025 13.9748 60.4759 14.2523 59.3457 14.7725L57.8142 12.0441C58.8871 11.4484 60.9958 10.6945 63.8007 10.6945C68.9226 10.6945 70.5779 13.7075 70.5779 17.3163L70.5595 17.2926ZM65.8805 19.665C63.2444 19.665 61.1067 19.8443 61.0961 21.7739C61.0961 23.0049 62.227 23.337 63.2971 23.337C63.8438 23.3416 64.3782 23.1743 64.8247 22.8588C65.2712 22.5433 65.6073 22.0956 65.7857 21.5788C65.8502 21.3121 65.882 21.0386 65.8805 20.7642V19.665Z" fill="white"/>
</svg>
