<svg width="141" height="23" viewBox="0 0 141 23" fill="none" xmlns="http://www.w3.org/2000/svg">
<path fill-rule="evenodd" clip-rule="evenodd" d="M19.3593 11.25C19.3593 14.25 18.1875 17.1094 16.125 19.2657C14.2031 21.2813 11.7187 22.4532 9.4218 22.4532H0V2.1094H9.1406C10.9687 2.1094 12.8906 3.0938 14.6718 4.8282C16.3125 6.6563 17.2031 8.9532 17.2031 11.25C17.2031 13.5469 16.2656 15.7969 14.5781 17.625C12.9843 19.3125 10.9687 20.2969 9.1875 20.2969H4.4062V19.7344L4.4531 6.4688H5.5781L5.5312 19.125H9.1875C10.5937 19.125 12.2812 18.2344 13.6875 16.8282C15.2343 15.2344 16.0312 13.2188 16.0312 11.25C16.0312 8.625 14.625 5.8594 12.4687 4.4063C11.4375 3.6563 10.3125 3.3282 9.1406 3.3282L1.1718 3.2813V21.2813H9.4218C12.1875 21.2813 15.4218 19.125 17.0625 16.125C17.8593 14.625 18.2343 12.9844 18.2343 11.25C18.2343 7.9688 16.4531 4.5469 13.7343 2.6719C12.375 1.7344 10.9218 1.2657 9.4218 1.2657L0 1.2188V0.0469017H9.4218C11.8125 0.0469017 14.2968 1.2657 16.2187 3.2813C18.2812 5.4375 19.3593 8.2969 19.3593 11.25ZM6.7968 18.0938V16.9688H9.0468C10.125 16.9688 11.3437 16.2657 12.3281 15.1407C13.3125 14.0157 13.9218 12.5625 13.9218 11.25C13.9218 9.2813 12.9843 7.5 11.3437 6.3282C10.5468 5.7657 9.7968 5.4844 9.0468 5.4844L3.3281 5.5313V20.3438H2.2031L2.1562 4.4063L9.0468 4.3594C11.1093 4.3594 13.125 5.7188 14.25 7.875C14.8125 8.9532 15.0937 10.0782 15.0937 11.25C15.0937 13.4063 13.8281 15.7032 11.8593 17.0625C10.875 17.7657 9.9375 18.0938 9.0468 18.0938H6.7968ZM27.1875 0.0937996H28.3593V21.375H40.6406V18.1407H31.5937V15.0469H32.7656V16.9688H41.8125V22.5H27.1875V0.0937996ZM29.3906 0.0937996H41.625V5.5782H33.9375V4.4532H40.5V1.2657H30.5156V10.5469H38.0156V11.6719H29.3906V0.0937996ZM29.3906 12.75H39.1406V9.5157H31.5937V2.25H39.375V3.375H32.7656V8.3907H40.3125V13.875H30.5156V19.2188H39.5156V20.3907H29.3906V12.75ZM68.8594 11.2969C68.8594 14.2969 67.7344 17.1563 65.625 19.2657C63.75 21.3282 61.2187 22.5 58.9219 22.5H49.5V2.1563H58.6875C60.5156 2.1563 62.4375 3.0938 64.1719 4.875C65.8125 6.6563 66.75 9 66.75 11.2969C66.75 13.5469 65.8125 15.7969 64.0781 17.625C62.5312 19.3125 60.4687 20.2969 58.6875 20.2969H53.9062V19.7344L53.9531 6.4688H55.0781L55.0312 19.1719H58.6875C60.0937 19.1719 61.8281 18.2813 63.2343 16.8282C64.7344 15.2813 65.5781 13.2657 65.5781 11.2969C65.5781 8.625 64.1719 5.8594 62.0156 4.4063C60.9375 3.7032 59.8125 3.3282 58.6875 3.3282L50.6719 3.2813V21.3282H58.9219C61.7344 21.3282 64.9687 19.125 66.5625 16.125C67.3594 14.625 67.7344 13.0313 67.7344 11.2969C67.7344 7.9688 65.9531 4.5938 63.2812 2.6719C61.875 1.7344 60.4219 1.2657 58.9219 1.2657L49.5 1.2188V0.0937996H58.9219C61.3125 0.0937996 63.7969 1.2657 65.7187 3.2813C67.7812 5.4844 68.8594 8.2969 68.8594 11.2969ZM56.2969 18.1407V16.9688H58.5937C59.625 16.9688 60.8437 16.3125 61.8281 15.1875C62.8593 14.0625 63.4687 12.5625 63.4687 11.25C63.4687 9.2813 62.5312 7.5 60.8906 6.3282C60.0937 5.8125 59.2969 5.5313 58.5937 5.5313H52.875V20.3907H51.7031L51.6562 4.4063H58.5937C60.6094 4.4063 62.6719 5.7188 63.7969 7.875C64.3125 9 64.5937 10.125 64.5937 11.25C64.5937 13.4063 63.375 15.7032 61.4062 17.1094C60.4219 17.7657 59.4844 18.1407 58.5937 18.1407H56.2969ZM75.5625 0.0469017H78.9375V20.3907H77.8125V1.2188H76.7344V21.375H79.9687V0.0469017H81.1406V22.5469H75.5625V0.0469017ZM100.031 22.5C96.937 22.5 94.547 21.7032 93 20.1094C91.453 18.5625 90.656 16.2657 90.656 13.5938V0.0469017H96.094V13.5938C96.094 16.0313 97.266 17.0625 99.891 17.0625C102.422 17.0625 103.781 15.7969 103.781 13.5938V0.0469017H107.109V13.5938C107.109 15.2813 106.641 16.875 105.797 18.0469C104.625 19.5938 102.797 20.3438 99.984 20.3438C98.344 20.3438 97.031 20.1094 96.047 19.6407C94.031 18.7032 92.812 16.6407 92.812 13.5938V2.1094H93.937V13.5938C93.937 17.2032 96.047 19.2188 99.984 19.2188C103.922 19.2188 105.937 17.2032 105.937 13.5938V1.2188H104.953V13.5938C104.953 16.4063 103.078 18.1875 99.891 18.1875C96.656 18.1875 94.969 16.5469 94.969 13.5938V1.2188H91.781V13.5938C91.781 18.7032 94.641 21.3282 100.031 21.3282C102.891 21.3282 104.812 20.6719 106.125 19.3125C107.437 17.9063 108.141 15.9375 108.141 13.5938V0.0469017H109.312V13.5938C109.312 16.2657 108.469 18.5157 106.922 20.1094C105.375 21.7032 103.078 22.5 100.031 22.5ZM121.266 0L129.281 15.0469L133.781 6.7032L136.172 22.5H135L133.172 10.3125L129.281 17.4844L119.953 0H121.266ZM134.766 0H137.25L140.625 22.5H137.25L137.156 22.0313L134.578 5.2032L135.516 3.5157L135.797 5.4375L138.234 21.3282H139.266L138.75 17.625L136.312 1.9688L136.219 1.1719H135.469L134.391 3.1407L134.297 3.375L131.484 8.625L129.375 12.6563L128.672 11.4375L130.219 8.625L134.766 0ZM129.281 19.7344L132.516 13.6407V13.875L132.797 15.5625L129.281 22.2188L119.484 3.75L116.766 21.3282H120.047L121.125 14.1563L121.406 14.625L122.062 15.8907L121.031 22.5H115.406L118.828 0.0937996L119.016 0.421902L128.25 17.8125L129.281 19.7344ZM119.062 20.4375H117.891L120 7.0313L128.203 22.5H126.891L120.609 10.6407L119.062 20.4375Z" fill="white"/>
</svg>
