<svg width="317" height="57" viewBox="0 0 317 57" fill="none" xmlns="http://www.w3.org/2000/svg">
<path d="M14.9201 8.59003C15.1239 4.52323 12.5253 0.17345 8.12706 0.126616C7.45373 -0.14677 6.17872 0.079529 5.49974 0.271148C1.35097 1.44235 -0.875857 5.67346 0.323412 9.78649C1.02724 12.2008 2.41965 13.3372 4.53833 14.5076L4.53679 31.7815C4.53542 33.0403 4.314 34.2632 5.27541 35.241C6.36003 36.3446 8.23999 36.3943 9.33866 35.2761C10.1453 34.455 10.0653 33.363 10.0658 32.2992L10.0649 21.9924V14.5076C10.7856 14.3153 11.4191 13.8774 12.0241 13.4574C14.1637 14.5545 16.5663 15.9053 18.6408 17.1165L20.777 18.3794C21.8189 18.997 22.9357 19.8056 24.2111 19.4698C26.295 18.9213 27.1136 16.3265 25.3763 14.8479C24.9622 14.4953 24.4507 14.2412 23.9815 13.9701L21.9217 12.7697C19.5864 11.3823 17.2859 9.92503 14.9201 8.59003Z" fill="#DCE8FF"/>
<path d="M51.7645 14.6197C52.3163 14.3004 52.8861 13.9904 53.402 13.6147C58.8816 9.62549 56.6444 1.18459 49.6892 0.126581C44.7965 -0.419934 40.585 4.09338 41.495 8.98659L12.9303 41.1736C12.4352 41.7292 11.9177 42.2764 11.4764 42.8766C8.00218 40.5759 3.06063 41.5726 0.964055 45.2739C-1.05541 48.8392 0.207785 53.5303 3.81313 55.5227C9.56475 58.7009 16.4526 53.3753 14.6 47.131C15.745 46.0163 16.7856 44.785 17.8584 43.6009L38.7247 20.543C40.7015 18.3386 42.6912 16.1056 44.7596 13.9904L46.1058 14.6197L46.1066 33.5936C46.1066 36.3994 46.0723 39.2086 46.1058 42.0144C45.3877 42.0966 44.8856 42.4853 44.3038 42.8766C41.944 41.6034 39.5088 40.1684 37.1892 38.8199C36.1284 38.2043 34.4181 37.0741 33.3111 36.7008C30.5528 35.7683 28.5378 39.6033 30.5761 41.3765C31.3403 42.0409 32.3702 42.5007 33.2468 43.017C35.9399 44.6018 38.6947 46.0856 41.3956 47.6585C40.6193 57.1837 52.4534 59.2926 55.6641 52.1672C57.4001 48.3135 55.6255 43.7251 51.7645 42.0144V17.4005C51.7636 16.4845 51.6891 15.5292 51.7645 14.6197Z" fill="#DCE8FF"/>
<path d="M51.7645 14.6197C52.3163 14.3004 52.8861 13.9904 53.402 13.6147C58.8816 9.62549 56.6444 1.18459 49.6892 0.126581C44.7965 -0.419934 40.585 4.09338 41.495 8.98659L12.9303 41.1736C12.4352 41.7292 11.9177 42.2764 11.4764 42.8766C8.00218 40.5759 3.06063 41.5726 0.964055 45.2739C-1.05541 48.8392 0.207785 53.5303 3.81313 55.5227C9.56475 58.7009 16.4526 53.3753 14.6 47.131C15.745 46.0163 16.7856 44.785 17.8584 43.6009L38.7247 20.543C40.7015 18.3386 42.6912 16.1056 44.7596 13.9904L46.1058 14.6197L46.1066 33.5936C46.1066 36.3994 46.0723 39.2086 46.1058 42.0144C45.3877 42.0966 44.8856 42.4853 44.3038 42.8766C41.944 41.6034 39.5088 40.1684 37.1892 38.8199C36.1284 38.2043 34.4181 37.0741 33.3111 36.7008C30.5528 35.7683 28.5378 39.6033 30.5761 41.3765C31.3403 42.0409 32.3702 42.5007 33.2468 43.017C35.9399 44.6018 38.6947 46.0856 41.3956 47.6585C40.6193 57.1837 52.4534 59.2926 55.6641 52.1672C57.4001 48.3135 55.6255 43.7251 51.7645 42.0144V17.4005C51.7636 16.4845 51.6891 15.5292 51.7645 14.6197Z" fill="#DCE8FF"/>
<path d="M14.9201 8.59003C15.1239 4.52323 12.5253 0.17345 8.12706 0.126616C7.45373 -0.14677 6.17872 0.079529 5.49974 0.271148C1.35097 1.44235 -0.875857 5.67346 0.323412 9.78649C1.02724 12.2008 2.41965 13.3372 4.53833 14.5076L4.53679 31.7815C4.53542 33.0403 4.314 34.2632 5.27541 35.241C6.36003 36.3446 8.23999 36.3943 9.33866 35.2761C10.1453 34.455 10.0653 33.363 10.0658 32.2992L10.0649 21.9924V14.5076C10.7856 14.3153 11.4191 13.8774 12.0241 13.4574C14.1637 14.5545 16.5663 15.9053 18.6408 17.1165L20.777 18.3794C21.8189 18.997 22.9357 19.8056 24.2111 19.4698C26.295 18.9213 27.1136 16.3265 25.3763 14.8479C24.9622 14.4953 24.4507 14.2412 23.9815 13.9701L21.9217 12.7697C19.5864 11.3823 17.2859 9.92503 14.9201 8.59003Z" fill="#DCE8FF"/>
<path d="M73.835 42.7354V12.6664H79.9564V37.6274H95.177V42.7354H73.835ZM112.238 35.7455L118.029 36.7174C117.284 38.8406 116.105 40.4605 114.492 41.5773C112.893 42.6802 110.887 43.2317 108.474 43.2317C104.655 43.2317 101.829 41.984 99.9954 39.4886C98.5478 37.4895 97.824 34.9665 97.824 31.9196C97.824 28.2799 98.7753 25.433 100.678 23.3787C102.58 21.3107 104.986 20.2767 107.895 20.2767C111.163 20.2767 113.741 21.359 115.63 23.5235C117.518 25.6742 118.421 28.9762 118.339 33.4293H103.78C103.821 35.1526 104.29 36.4968 105.186 37.4619C106.082 38.4132 107.199 38.8888 108.536 38.8888C109.446 38.8888 110.211 38.6407 110.832 38.1444C111.452 37.648 111.921 36.8484 112.238 35.7455ZM112.569 29.8723C112.528 28.1903 112.093 26.915 111.266 26.0465C110.439 25.1641 109.432 24.7229 108.247 24.7229C106.978 24.7229 105.931 25.1848 105.103 26.1085C104.276 27.0322 103.87 28.2868 103.883 29.8723H112.569ZM121.751 31.444C121.751 29.5138 122.227 27.6457 123.178 25.8397C124.129 24.0336 125.473 22.6549 127.211 21.7036C128.961 20.7524 130.912 20.2767 133.063 20.2767C136.386 20.2767 139.108 21.359 141.232 23.5235C143.355 25.6742 144.416 28.3971 144.416 31.6922C144.416 35.0148 143.341 37.7721 141.19 39.9642C139.053 42.1425 136.358 43.2317 133.104 43.2317C131.091 43.2317 129.168 42.7767 127.335 41.8668C125.515 40.9569 124.129 39.6264 123.178 37.8755C122.227 36.1108 121.751 33.967 121.751 31.444ZM127.707 31.7542C127.707 33.9325 128.224 35.6007 129.258 36.7588C130.292 37.9169 131.567 38.4959 133.084 38.4959C134.6 38.4959 135.869 37.9169 136.889 36.7588C137.923 35.6007 138.44 33.9187 138.44 31.7128C138.44 29.5621 137.923 27.9077 136.889 26.7496C135.869 25.5915 134.6 25.0125 133.084 25.0125C131.567 25.0125 130.292 25.5915 129.258 26.7496C128.224 27.9077 127.707 29.5759 127.707 31.7542ZM168.964 42.7354H163.153V31.5267C163.153 29.1554 163.029 27.6251 162.78 26.9357C162.532 26.2326 162.125 25.688 161.56 25.302C161.009 24.916 160.34 24.7229 159.554 24.7229C158.548 24.7229 157.645 24.9987 156.845 25.5501C156.046 26.1016 155.494 26.8323 155.191 27.7422C154.901 28.6522 154.756 30.3342 154.756 32.7882V42.7354H148.945V20.773H154.343V23.9991C156.259 21.5175 158.672 20.2767 161.581 20.2767C162.863 20.2767 164.035 20.5111 165.097 20.9798C166.158 21.4348 166.958 22.0207 167.495 22.7376C168.047 23.4546 168.426 24.268 168.633 25.1779C168.853 26.0878 168.964 27.3907 168.964 29.0865V42.7354ZM179.221 27.4734L173.948 26.5221C174.54 24.399 175.561 22.8273 177.008 21.807C178.456 20.7868 180.607 20.2767 183.461 20.2767C186.052 20.2767 187.983 20.5869 189.251 21.2073C190.519 21.8139 191.409 22.5929 191.919 23.5442C192.443 24.4817 192.705 26.2119 192.705 28.7349L192.642 35.518C192.642 37.4481 192.732 38.8751 192.911 39.7988C193.104 40.7087 193.456 41.6876 193.966 42.7354H188.217C188.065 42.3493 187.879 41.7772 187.659 41.0189C187.562 40.6742 187.493 40.4467 187.452 40.3365C186.459 41.3015 185.398 42.0253 184.267 42.5079C183.137 42.9904 181.93 43.2317 180.648 43.2317C178.387 43.2317 176.602 42.6182 175.292 41.3911C173.996 40.1641 173.348 38.6131 173.348 36.7381C173.348 35.4973 173.644 34.3944 174.237 33.4293C174.83 32.4504 175.657 31.7059 176.719 31.1958C177.794 30.6719 179.338 30.217 181.351 29.8309C184.067 29.3208 185.949 28.8452 186.997 28.404V27.825C186.997 26.7082 186.721 25.9155 186.17 25.4467C185.618 24.9642 184.577 24.7229 183.047 24.7229C182.013 24.7229 181.206 24.9297 180.627 25.3433C180.048 25.7432 179.58 26.4532 179.221 27.4734ZM186.997 32.1885C186.252 32.4366 185.074 32.7331 183.461 33.0777C181.847 33.4224 180.793 33.7602 180.296 34.091C179.538 34.6287 179.159 35.3112 179.159 36.1384C179.159 36.9518 179.462 37.6549 180.069 38.2478C180.676 38.8406 181.448 39.137 182.385 39.137C183.433 39.137 184.432 38.7923 185.384 38.103C186.087 37.5791 186.549 36.938 186.769 36.1797C186.921 35.6834 186.997 34.739 186.997 33.3466V32.1885ZM204.017 42.7354H198.205V20.773H203.603V23.8957C204.527 22.4206 205.354 21.4486 206.085 20.9798C206.829 20.5111 207.67 20.2767 208.608 20.2767C209.931 20.2767 211.206 20.6421 212.433 21.3728L210.634 26.4394C209.655 25.8052 208.745 25.4881 207.904 25.4881C207.091 25.4881 206.402 25.7156 205.836 26.1706C205.271 26.6117 204.823 27.4183 204.492 28.5901C204.175 29.762 204.017 32.216 204.017 35.9523V42.7354ZM235.099 42.7354H229.701V39.5092C228.805 40.7638 227.744 41.7013 226.517 42.3217C225.303 42.9284 224.076 43.2317 222.836 43.2317C220.313 43.2317 218.148 42.2183 216.342 40.1917C214.55 38.1513 213.654 35.3112 213.654 31.6715C213.654 27.949 214.529 25.1228 216.28 23.1926C218.031 21.2487 220.244 20.2767 222.918 20.2767C225.372 20.2767 227.495 21.2969 229.288 23.3374V12.4183H235.099V42.7354ZM219.589 31.2785C219.589 33.6223 219.913 35.3181 220.561 36.3659C221.498 37.8824 222.808 38.6407 224.49 38.6407C225.827 38.6407 226.965 38.0754 227.902 36.9449C228.84 35.8006 229.308 34.0979 229.308 31.8369C229.308 29.3139 228.853 27.501 227.944 26.398C227.034 25.2813 225.869 24.7229 224.449 24.7229C223.07 24.7229 221.912 25.2744 220.974 26.3774C220.051 27.4665 219.589 29.1002 219.589 31.2785ZM239.504 31.444C239.504 29.5138 239.979 27.6457 240.931 25.8397C241.882 24.0336 243.226 22.6549 244.963 21.7036C246.714 20.7524 248.665 20.2767 250.816 20.2767C254.138 20.2767 256.861 21.359 258.984 23.5235C261.108 25.6742 262.169 28.3971 262.169 31.6922C262.169 35.0148 261.094 37.7721 258.943 39.9642C256.806 42.1425 254.111 43.2317 250.857 43.2317C248.844 43.2317 246.921 42.7767 245.087 41.8668C243.267 40.9569 241.882 39.6264 240.931 37.8755C239.979 36.1108 239.504 33.967 239.504 31.444ZM245.46 31.7542C245.46 33.9325 245.977 35.6007 247.011 36.7588C248.045 37.9169 249.32 38.4959 250.836 38.4959C252.353 38.4959 253.621 37.9169 254.642 36.7588C255.676 35.6007 256.193 33.9187 256.193 31.7128C256.193 29.5621 255.676 27.9077 254.642 26.7496C253.621 25.5915 252.353 25.0125 250.836 25.0125C249.32 25.0125 248.045 25.5915 247.011 26.7496C245.977 27.9077 245.46 29.5759 245.46 31.7542ZM304.336 42.7354H297.677L295.03 35.8489H282.911L280.409 42.7354H273.915L285.724 12.4183H292.197L304.336 42.7354ZM293.065 30.7409L288.888 19.4909L284.793 30.7409H293.065ZM307.417 42.7354V12.4183H313.539V42.7354H307.417Z" fill="#DCE8FF"/>
</svg>
