<svg width="141" height="24" viewBox="0 0 141 24" fill="none" xmlns="http://www.w3.org/2000/svg">
<path d="M6.34105 3.65076C6.42765 1.92237 5.32327 0.0737165 3.454 0.0538118C3.16784 -0.0623773 2.62595 0.0337998 2.33739 0.115238C0.574161 0.612999 -0.372239 2.41122 0.13745 4.15926C0.436577 5.18535 1.02835 5.6683 1.92879 6.16573L1.92814 13.5072C1.92755 14.0421 1.83345 14.5618 2.24205 14.9774C2.70301 15.4465 3.502 15.4676 3.96893 14.9923C4.31176 14.6434 4.27774 14.1793 4.27796 13.7272L4.2776 9.34676V6.16573C4.58386 6.084 4.85313 5.89791 5.11023 5.71939C6.01956 6.18568 7.04069 6.75974 7.92234 7.2745L8.8302 7.81123C9.27303 8.07374 9.74769 8.41739 10.2897 8.27468C11.1754 8.04157 11.5233 6.93878 10.7849 6.31034C10.6089 6.16049 10.3915 6.05249 10.1921 5.93728L9.31673 5.42711C8.32423 4.83747 7.34651 4.21814 6.34105 3.65076Z" fill="#DCE8FF"/>
<path d="M21.9996 6.2134C22.2342 6.07767 22.4763 5.94594 22.6956 5.78627C25.0244 4.09085 24.0736 0.503465 21.1176 0.0538093C19.0382 -0.17846 17.2484 1.7397 17.6351 3.81931L5.49513 17.4988C5.28471 17.7349 5.06476 17.9675 4.87721 18.2225C3.40066 17.2448 1.3005 17.6683 0.409455 19.2414C-0.448816 20.7567 0.0880403 22.7504 1.62031 23.5972C4.06475 24.9479 6.99208 22.6845 6.20475 20.0307C6.69135 19.5569 7.13359 19.0337 7.58953 18.5304L16.4577 8.73077C17.2979 7.79391 18.1435 6.84489 19.0226 5.94594L19.5947 6.2134L19.595 14.2773C19.595 15.4697 19.5805 16.6637 19.5947 17.8561C19.2895 17.891 19.0761 18.0563 18.8288 18.2225C17.8259 17.6814 16.791 17.0716 15.8052 16.4985C15.3543 16.2368 14.6274 15.7565 14.1569 15.5978C12.9847 15.2016 12.1283 16.8314 12.9946 17.585C13.3193 17.8674 13.7571 18.0628 14.1296 18.2822C15.2742 18.9558 16.445 19.5864 17.5929 20.2549C17.2629 24.3031 22.2924 25.1994 23.657 22.1711C24.3948 20.5332 23.6406 18.5832 21.9996 17.8561V7.39523C21.9993 7.00594 21.9676 6.59992 21.9996 6.2134Z" fill="#DCE8FF"/>
<path d="M21.9996 6.2134C22.2342 6.07767 22.4763 5.94594 22.6956 5.78627C25.0244 4.09085 24.0736 0.503465 21.1176 0.0538093C19.0382 -0.17846 17.2484 1.7397 17.6351 3.81931L5.49513 17.4988C5.28471 17.7349 5.06476 17.9675 4.87721 18.2225C3.40066 17.2448 1.3005 17.6683 0.409455 19.2414C-0.448816 20.7567 0.0880403 22.7504 1.62031 23.5972C4.06475 24.9479 6.99208 22.6845 6.20475 20.0307C6.69135 19.5569 7.13359 19.0337 7.58953 18.5304L16.4577 8.73077C17.2979 7.79391 18.1435 6.84489 19.0226 5.94594L19.5947 6.2134L19.595 14.2773C19.595 15.4697 19.5805 16.6637 19.5947 17.8561C19.2895 17.891 19.0761 18.0563 18.8288 18.2225C17.8259 17.6814 16.791 17.0716 15.8052 16.4985C15.3543 16.2368 14.6274 15.7565 14.1569 15.5978C12.9847 15.2016 12.1283 16.8314 12.9946 17.585C13.3193 17.8674 13.7571 18.0628 14.1296 18.2822C15.2742 18.9558 16.445 19.5864 17.5929 20.2549C17.2629 24.3031 22.2924 25.1994 23.657 22.1711C24.3948 20.5332 23.6406 18.5832 21.9996 17.8561V7.39523C21.9993 7.00594 21.9676 6.59992 21.9996 6.2134Z" fill="#DCE8FF"/>
<path d="M6.34105 3.65076C6.42765 1.92237 5.32327 0.0737165 3.454 0.0538118C3.16784 -0.0623773 2.62595 0.0337998 2.33739 0.115238C0.574161 0.612999 -0.372239 2.41122 0.13745 4.15926C0.436577 5.18535 1.02835 5.6683 1.92879 6.16573L1.92814 13.5072C1.92755 14.0421 1.83345 14.5618 2.24205 14.9774C2.70301 15.4465 3.502 15.4676 3.96893 14.9923C4.31176 14.6434 4.27774 14.1793 4.27796 13.7272L4.2776 9.34676V6.16573C4.58386 6.084 4.85313 5.89791 5.11023 5.71939C6.01956 6.18568 7.04069 6.75974 7.92234 7.2745L8.8302 7.81123C9.27303 8.07374 9.74769 8.41739 10.2897 8.27468C11.1754 8.04157 11.5233 6.93878 10.7849 6.31034C10.6089 6.16049 10.3915 6.05249 10.1921 5.93728L9.31673 5.42711C8.32423 4.83747 7.34651 4.21814 6.34105 3.65076Z" fill="#DCE8FF"/>
<path d="M32 18.7824V5.21291H34.1722V16.8699H40.0962V18.7824H32ZM46.3907 19.0002C45.3965 19.0002 44.5148 18.7759 43.7405 18.3272C42.9798 17.8652 42.3853 17.2477 41.9565 16.4702C41.528 15.6817 41.3125 14.7999 41.3125 13.8292C41.3125 12.8584 41.528 11.9522 41.9565 11.1882C42.3985 10.4239 42.9865 9.82191 43.7225 9.38441C44.4585 8.93566 45.2933 8.71141 46.2245 8.71141C46.9718 8.71141 47.6405 8.83791 48.2308 9.09341C48.821 9.34891 49.3167 9.69991 49.7207 10.1509C50.1252 10.5887 50.438 11.103 50.6407 11.6634C50.8607 12.2342 50.973 12.8407 50.973 13.4849C50.973 13.6424 50.9663 13.8069 50.955 13.9757C50.9453 14.1354 50.9206 14.2939 50.881 14.4489H42.9507V12.8097H49.7028L48.7087 13.5559C48.8322 12.9607 48.7895 12.4319 48.5807 11.9722C48.3832 11.4989 48.0783 11.1282 47.6608 10.8614C47.2568 10.5814 46.7768 10.4417 46.2245 10.4417C45.6725 10.4417 45.1812 10.5817 44.7525 10.8617C44.324 11.1282 43.9917 11.5167 43.7585 12.0277C43.525 12.5252 43.433 13.1317 43.4825 13.8492C43.422 14.5177 43.514 15.0997 43.7585 15.5972C44.0165 16.0947 44.371 16.4834 44.8265 16.7634C45.2933 17.0432 45.8208 17.1832 46.4085 17.1832C46.9965 17.1832 47.5195 17.0499 47.9368 16.7832C48.3655 16.5169 48.7043 16.1704 48.9488 15.7462L50.6407 16.5657C50.4432 17.0277 50.138 17.4454 49.7207 17.8229C49.3167 18.1872 48.8255 18.4782 48.2487 18.6982C47.6832 18.9047 47.0637 19.0069 46.3907 19.0069V19.0002ZM57.8035 19.0002C56.8477 19.0002 55.9703 18.7759 55.1715 18.3272C54.3961 17.8887 53.7492 17.2545 53.2955 16.4879C52.8288 15.7104 52.5953 14.8309 52.5953 13.8469C52.5953 12.8629 52.8288 11.9699 53.2955 11.2059C53.7623 10.4284 54.386 9.82191 55.1715 9.38441C55.9568 8.93566 56.8342 8.71141 57.8035 8.71141C58.773 8.71141 59.6615 8.93566 60.4358 9.38441C61.2213 9.82191 61.8405 10.4284 62.2937 11.2059C62.7605 11.9699 62.994 12.8517 62.994 13.8469C62.994 14.8419 62.7605 15.7282 62.2937 16.5057C61.8388 17.2713 61.1922 17.9052 60.4177 18.3449C59.6325 18.7824 58.7617 19.0002 57.8057 19.0002H57.8035ZM57.8035 17.0877C58.3915 17.0877 58.9143 16.9477 59.3678 16.6677C59.821 16.3879 60.1778 16.0059 60.4358 15.5194C60.705 15.0219 60.8398 14.4622 60.8398 13.8447C60.8398 13.2272 60.705 12.6719 60.4358 12.1877C60.1778 11.7012 59.8233 11.3192 59.3678 11.0392C58.9143 10.7592 58.3915 10.6194 57.8035 10.6194C57.2157 10.6194 56.7063 10.7594 56.2395 11.0394C55.7863 11.3192 55.4228 11.7012 55.1535 12.1877C54.8953 12.6742 54.7675 13.2252 54.7675 13.8447C54.7675 14.4644 54.8953 15.0219 55.1535 15.5197C55.4228 16.0059 55.7863 16.3879 56.2395 16.6679C56.7063 16.9479 57.2267 17.0877 57.8035 17.0877ZM65.0225 18.7824V8.92916H67.0107V10.8592L66.7705 10.6039C67.015 9.98391 67.4078 9.51766 67.9485 9.20216C68.4873 8.87341 69.1133 8.71141 69.8245 8.71141C70.536 8.71141 71.2112 8.86891 71.7745 9.18441C72.3284 9.49053 72.7867 9.94414 73.0985 10.4949C73.4173 11.0524 73.5765 11.6967 73.5765 12.4252V18.7824H71.5165V12.9717C71.5165 12.4742 71.4245 12.0542 71.2405 11.7144C71.0565 11.3634 70.794 11.0947 70.4485 10.9127C70.1163 10.7194 69.737 10.6217 69.3085 10.6217C68.8798 10.6217 68.4917 10.7192 68.1482 10.9127C67.8162 11.0947 67.5605 11.3614 67.3765 11.7144C67.1925 12.0654 67.1005 12.4852 67.1005 12.9719V18.7824H65.0202H65.0225ZM78.7848 19.0002C78.1095 19.0002 77.5147 18.8847 77.0007 18.6537C76.4982 18.4117 76.1055 18.0829 75.8227 17.6697C75.54 17.2454 75.3988 16.7479 75.3988 16.1772C75.3988 15.6439 75.5152 15.1619 75.7487 14.7377C75.9932 14.3134 76.368 13.9534 76.8708 13.6627C77.3732 13.3717 78.0062 13.1652 78.7667 13.0427L82.227 12.4787V14.0999L79.173 14.6284C78.621 14.7262 78.217 14.9017 77.959 15.1572C77.701 15.3994 77.573 15.7147 77.573 16.1034C77.573 16.4922 77.7145 16.7897 77.9973 17.0319C78.2913 17.2629 78.666 17.3784 79.1192 17.3784C79.6825 17.3784 80.1737 17.2562 80.5912 17.0142C81.0197 16.7719 81.352 16.4499 81.5853 16.0479C81.8188 15.6347 81.9352 15.1794 81.9352 14.6819V12.1494C81.9352 11.6632 81.7512 11.2699 81.3832 10.9657C81.0265 10.6502 80.5485 10.4927 79.9473 10.4927C79.3953 10.4927 78.9105 10.6392 78.493 10.9302C78.0956 11.2023 77.7829 11.5811 77.591 12.0229L75.861 11.1679C76.045 10.6814 76.3455 10.2572 76.763 9.89291C77.1803 9.51741 77.665 9.22416 78.217 9.01766C78.7803 8.81116 79.3773 8.70891 80.001 8.70891C80.7865 8.70891 81.4798 8.85541 82.0813 9.14641C82.6938 9.43741 83.1673 9.84391 83.4973 10.3659C83.8405 10.8769 84.0133 11.4722 84.0133 12.1519V18.7822H82.0253V16.9964L82.4492 17.0519C82.2165 17.4513 81.9105 17.8032 81.5472 18.0892C81.1903 18.3802 80.7797 18.6047 80.3152 18.7622C79.862 18.9199 79.3525 18.9999 78.787 18.9999L78.7848 19.0002ZM86.4413 18.7824V8.92916H88.4295V10.9149L88.2455 10.6239C88.4652 9.97966 88.8223 9.51991 89.3135 9.23991C89.805 8.94916 90.393 8.80241 91.0795 8.80241H91.6878V10.6794H90.8238C90.1373 10.6794 89.5785 10.8927 89.1497 11.3169C88.7325 11.7302 88.5238 12.3254 88.5238 13.1027V18.7847H86.4435L86.4413 18.7824ZM97.7083 19.0002C96.7525 19.0002 95.893 18.7759 95.1322 18.3272C94.385 17.8652 93.788 17.2477 93.3483 16.4702C92.9198 15.6927 92.7042 14.8197 92.7042 13.8469C92.7042 12.8739 92.9242 12.0009 93.3662 11.2237C93.8083 10.4462 94.403 9.83316 95.1503 9.38441C95.8975 8.93566 96.7458 8.71141 97.6905 8.71141C98.487 8.71141 99.1938 8.86891 99.8065 9.18441C100.419 9.49991 100.904 9.93742 101.26 10.4949L100.949 10.9682V4.99316H103.009V18.7802H101.041V16.7767L101.281 17.1587C100.938 17.7542 100.446 18.2094 99.8087 18.5249C99.1715 18.8402 98.4713 18.9979 97.7105 18.9979L97.7083 19.0002ZM97.9102 17.0877C98.487 17.0877 99.0007 16.9477 99.4565 16.6677C99.9232 16.3879 100.285 16.0059 100.543 15.5194C100.812 15.0219 100.947 14.4622 100.947 13.8447C100.947 13.2272 100.812 12.6719 100.543 12.1877C100.285 11.7012 99.9232 11.3192 99.4565 11.0392C99.003 10.7592 98.487 10.6194 97.9102 10.6194C97.3335 10.6194 96.813 10.7594 96.3463 11.0394C95.8795 11.3192 95.5182 11.7012 95.2602 12.1877C95.002 12.6742 94.8743 13.2252 94.8743 13.8447C94.8743 14.4644 95.002 15.0219 95.2602 15.5197C95.5182 16.0059 95.8727 16.3879 96.3282 16.6679C96.795 16.9479 97.3225 17.0877 97.9102 17.0877ZM110.239 19.0002C109.283 19.0002 108.406 18.7759 107.606 18.3272C106.831 17.8886 106.184 17.2544 105.73 16.4879C105.264 15.7104 105.031 14.8309 105.031 13.8469C105.031 12.8629 105.264 11.9699 105.73 11.2059C106.197 10.4284 106.821 9.82191 107.606 9.38441C108.392 8.93566 109.269 8.71141 110.239 8.71141C111.208 8.71141 112.097 8.93566 112.871 9.38441C113.656 9.82191 114.276 10.4284 114.729 11.2059C115.196 11.9699 115.429 12.8517 115.429 13.8469C115.429 14.8419 115.196 15.7282 114.729 16.5057C114.274 17.2713 113.627 17.9052 112.853 18.3449C112.067 18.7824 111.197 19.0002 110.241 19.0002H110.239ZM110.239 17.0877C110.827 17.0877 111.35 16.9477 111.803 16.6677C112.256 16.3879 112.613 16.0059 112.871 15.5194C113.14 15.0219 113.275 14.4622 113.275 13.8447C113.275 13.2272 113.14 12.6719 112.871 12.1877C112.613 11.7012 112.258 11.3192 111.803 11.0392C111.35 10.7592 110.827 10.6194 110.239 10.6194C109.651 10.6194 109.142 10.7594 108.675 11.0394C108.222 11.3192 107.858 11.7012 107.589 12.1877C107.33 12.6742 107.203 13.2252 107.203 13.8447C107.203 14.4644 107.33 15.0219 107.589 15.5197C107.858 16.0059 108.222 16.3879 108.675 16.6679C109.142 16.9479 109.662 17.0877 110.239 17.0877ZM118.378 18.7824V16.4147H120.494V18.7824H118.378ZM122.746 18.7847L127.566 5.21516H130.252L135.072 18.7847H132.754L131.706 15.7439H126.13L125.062 18.7847H122.744H122.746ZM126.758 13.8314H131.046L128.618 6.72791H129.227L126.76 13.8314H126.758ZM136.499 18.7847V8.93116H138.579V18.7847H136.499ZM136.499 7.58291V5.21516H138.579V7.58291H136.499Z" fill="#DCE8FF"/>
</svg>
