<svg width="128" height="40" viewBox="0 0 128 40" fill="none" xmlns="http://www.w3.org/2000/svg">
<g clip-path="url(#clip0_915_3190)">
<path d="M16.0725 29.7857H8.85477C7.21776 29.7857 5.87838 28.4726 5.87838 26.7947V25.9923C5.87838 25.1898 5.80397 24.9709 5.80397 24.9709C5.50633 23.9496 4.61341 22.8554 3.64608 21.8341C3.27403 21.3964 2.97639 21.0316 2.60434 20.6668C0.967328 18.4783 0 15.8521 0 13.08C0 6.29553 5.58074 0.824219 12.5009 0.824219C19.421 0.824219 25.0017 6.29553 25.0017 13.08C25.0017 15.8521 24.1088 18.4783 22.323 20.6668C22.0253 21.0316 21.7277 21.3234 21.43 21.6882L21.3556 21.7611C20.4627 22.8554 19.3466 24.0226 19.0489 25.1168C19.0489 25.1168 19.0489 25.3357 19.0489 25.9923V26.7947C19.0489 28.3996 17.7095 29.7857 16.0725 29.7857ZM9.078 26.5759H15.7749V25.9923C15.7749 24.9709 15.8493 24.4603 15.9237 24.2414C16.4446 22.4906 17.7095 21.0316 18.8257 19.6455L18.9001 19.5726C19.1977 19.2078 19.4954 18.916 19.7186 18.6242C20.9836 17.0193 21.6533 15.0496 21.6533 13.007C21.6533 7.9734 17.4863 3.9611 12.4264 3.9611C7.36658 3.9611 3.27403 8.04635 3.27403 13.08C3.27403 15.1226 3.94372 17.0193 5.2831 18.6242C5.58074 18.989 5.87838 19.3537 6.17602 19.7185V19.7914C7.21776 21.0316 8.48272 22.4177 8.92918 24.1685C9.00359 24.4603 9.078 24.898 9.078 26.0652V26.5759ZM17.5607 32.7037C17.5607 31.8283 16.8166 31.0988 15.9237 31.0988H9.00359C8.11067 31.0988 7.36658 31.8283 7.36658 32.7037C7.36658 33.5791 8.11067 34.3087 9.00359 34.3087H15.9237C16.8166 34.3087 17.5607 33.5791 17.5607 32.7037ZM17.5607 15.2685C17.5607 14.3931 16.8166 13.6636 15.9237 13.6636H9.00359C8.11067 13.6636 7.36658 14.3931 7.36658 15.2685C7.36658 16.1439 8.11067 16.8734 9.00359 16.8734H15.9237C16.8166 16.8734 17.5607 16.1439 17.5607 15.2685Z" fill="#D1D4E2" fill-opacity="0.5"/>
<path d="M43.4406 5.28881H47.5033L47.5926 7.6104C48.2623 5.9585 49.5571 5.06558 51.4322 5.06558C53.1287 5.06558 54.2895 5.86921 54.8253 7.29788C55.5396 5.82456 56.879 5.06558 58.5755 5.06558C60.7632 5.06558 62.2365 6.40496 62.2365 8.90513L62.1472 16.4949H57.6826V10.0659C57.6826 8.86048 57.2808 8.45867 56.5665 8.45867C55.6289 8.45867 55.0932 9.173 55.0932 10.6017V16.4949H50.5839V10.0659C50.5839 8.86048 50.1821 8.45867 49.4678 8.45867C48.6195 8.45867 47.9945 9.12836 47.9945 10.6017V16.4949H43.4406V5.28881ZM75.5411 13.9055L75.3179 16.3163C74.8268 16.5396 74.2463 16.6735 73.4874 16.6735C71.8801 16.6735 70.7193 16.0931 70.3176 14.8877C69.7372 16.0038 68.3084 16.6735 66.7012 16.6735C64.3796 16.6735 62.9955 15.5574 62.9955 13.6376C62.9955 11.9857 64.0224 10.9588 66.0315 10.557L69.6925 9.7534V9.39623C69.6925 8.50331 69.2014 8.01221 68.3977 8.01221C67.5941 8.01221 67.0137 8.36938 66.8798 9.53017L63.0401 8.81584C63.3527 6.49425 65.1832 5.02093 68.7103 5.02093C72.2373 5.02093 74.1571 6.62819 74.1571 9.30694V13.0572C74.1571 13.6376 74.425 13.9501 75.0054 13.9501C75.2286 13.9948 75.4072 13.9948 75.5411 13.9055ZM69.7371 12.5661V11.7178L68.4424 12.0303C67.6834 12.2089 67.3708 12.5214 67.3708 13.1018C67.3708 13.6822 67.7727 13.9948 68.3977 13.9948C69.0674 13.9948 69.7371 13.5483 69.7371 12.5661ZM76.0769 5.28881H80.1397L80.2736 7.92292C80.7647 6.18173 81.8362 5.06558 83.5774 5.06558C84.2025 5.06558 84.5596 5.19952 84.7382 5.33346L84.3364 8.99442C84.0685 8.90513 83.5328 8.77119 82.9524 8.77119C81.5683 8.77119 80.5861 9.53017 80.5861 10.9588V16.4503H76.0769V5.28881ZM92.953 15.9145C92.2387 16.4056 90.8547 16.7182 89.7385 16.7182C86.8812 16.7182 85.2739 15.6913 85.2739 12.9233V2.87793L89.7831 1.62785V5.33346H92.8191V8.45867H89.7831V12.2536C89.7831 13.3251 90.2743 13.7269 91.1672 13.7269C91.8369 13.7269 92.2387 13.5929 92.6852 13.3697L92.953 15.9145ZM37.7705 34.5765C33.172 34.5765 30.3593 31.7638 30.3593 26.9421C30.3593 22.1203 33.172 19.3523 37.7259 19.3523C40.8958 19.3523 43.5745 20.647 44.2442 23.6383L40.2707 25.2455C39.9136 23.3704 39.1099 22.8793 37.8598 22.8793C36.0294 22.8793 35.0471 24.2187 35.0471 26.9867C35.0471 29.7548 35.8954 31.0941 37.9491 31.0941C39.1992 31.0941 40.0475 30.3798 40.3154 28.8619L44.3781 29.978C43.5299 33.2818 41.0297 34.5765 37.7705 34.5765ZM56.9236 28.7726C56.9236 32.4335 54.4681 34.5765 50.8518 34.5765C47.2355 34.5765 44.78 32.4335 44.78 28.7726C44.78 25.1116 47.2355 22.9686 50.8518 22.9686C54.4681 22.9686 56.9236 25.1116 56.9236 28.7726ZM49.2892 28.7726C49.2892 30.8263 49.8249 31.496 50.8071 31.496C51.7894 31.496 52.3251 30.8263 52.3251 28.7726C52.3251 26.7188 51.7894 26.0492 50.8071 26.0492C49.8249 26.0492 49.2892 26.7188 49.2892 28.7726ZM57.504 23.1472H61.5668L61.6561 25.4688C62.3258 23.8169 63.6651 22.9239 65.4957 22.9239C67.1922 22.9239 68.3978 23.7276 68.8889 25.1562C69.5586 23.6829 70.9426 22.9239 72.6392 22.9239C74.8268 22.9239 76.3001 24.2633 76.3001 26.7635L76.2555 34.3533H71.7909V27.9243C71.7909 26.7188 71.3891 26.317 70.6747 26.317C69.7818 26.317 69.1567 27.0314 69.1567 28.46V34.3533H64.6474V27.9243C64.6474 26.7188 64.2456 26.317 63.5312 26.317C62.6383 26.317 62.0133 26.9867 62.0133 28.46V34.3533H57.504V23.1472ZM89.8725 28.7279C89.8725 32.4335 88.1759 34.5765 85.4525 34.5765C83.8453 34.5765 82.7738 33.7283 82.1934 32.4335V39.0411H77.6841V23.1472H81.7915L81.8809 25.4241C82.5059 23.9062 83.756 22.9239 85.4972 22.9239C88.1759 22.9239 89.8725 25.0669 89.8725 28.7279ZM85.3186 28.7726C85.3186 26.8528 84.6936 26.1831 83.756 26.1831C82.8184 26.1831 82.1934 27.0314 82.1934 28.7726C82.1934 30.4245 82.729 31.362 83.756 31.362C84.7827 31.362 85.3186 30.6923 85.3186 28.7726ZM102.507 31.7638L102.284 34.1747C101.793 34.3979 101.168 34.5319 100.498 34.5319C98.9356 34.5319 97.7302 33.9515 97.3283 32.746C96.7033 33.8622 95.3193 34.5319 93.712 34.5319C91.3904 34.5319 90.0064 33.4157 90.0064 31.496C90.0064 29.8441 91.0333 28.8172 93.0423 28.4154L96.7033 27.6118V27.2546C96.7033 26.3617 96.2568 25.8706 95.4086 25.8706C94.5603 25.8706 94.0692 26.2277 93.8906 27.3885L90.0511 26.6742C90.3189 24.3526 92.2387 22.8793 95.7211 22.8793C99.2035 22.8793 101.168 24.4866 101.168 27.1653V30.9156C101.168 31.496 101.436 31.8085 102.016 31.8085C102.195 31.8531 102.373 31.8531 102.507 31.7638ZM96.7033 30.4245V29.5762L95.3639 29.8887C94.6496 30.0673 94.2924 30.3798 94.2924 30.9602C94.2924 31.5406 94.7389 31.8531 95.3193 31.8531C96.0336 31.8531 96.7033 31.4067 96.7033 30.4245ZM114.695 26.8081V34.3979H110.186V27.9689C110.186 26.7188 109.74 26.317 109.025 26.317C108.133 26.317 107.508 26.9421 107.508 28.46V34.3533H102.998V23.1472H107.061L107.15 25.5134C107.82 23.8169 109.159 22.9239 110.99 22.9239C113.311 22.9239 114.695 24.308 114.695 26.8081ZM124.339 33.6836C123 37.7017 121.303 39.1751 118.089 39.1751C116.749 39.1751 115.633 38.8625 114.829 38.4161L115.678 35.4694C116.169 35.782 116.66 35.9159 117.687 35.9159C118.714 35.9159 119.071 35.7373 119.294 35.0676L119.473 34.6658L118.133 31.496L114.874 23.1472H119.83L121.169 29.219L121.616 31.7192L122.151 29.1744L123.535 23.1918H128L124.339 33.6836ZM30.3593 13.4144C30.3593 12.8786 30.404 12.5214 30.4486 12.2536L34.1542 11.2714C34.0649 11.6285 34.0203 11.8518 34.0203 12.1196C34.0203 13.1911 34.7346 13.7715 36.5205 13.7715C38.0384 13.7715 38.6635 13.1911 38.6635 12.3875C38.6635 11.4946 38.0384 11.0035 35.7615 10.6017C32.0112 9.88734 30.5379 8.45867 30.5379 5.69062C30.5379 2.92258 32.7702 0.824219 36.699 0.824219C40.4493 0.824219 42.2798 2.02966 42.3691 5.02093L38.5742 6.4496C38.6188 5.02093 38.0384 4.03872 36.5651 4.03872C35.449 4.03872 34.8686 4.66377 34.8686 5.64598C34.8686 6.58354 35.5829 7.11929 37.7705 7.56575C41.2976 8.32473 42.5923 9.57482 42.5923 12.1196C42.5923 15.2895 39.9582 16.9414 36.1186 16.9414C32.6363 17.0307 30.3593 15.5574 30.3593 13.4144Z" fill="#D1D4E2" fill-opacity="0.5"/>
</g>
<defs>
<clipPath id="clip0_915_3190">
<rect width="128" height="40" fill="white"/>
</clipPath>
</defs>
</svg>
