<svg width="70" height="70" viewBox="0 0 70 70" fill="none" xmlns="http://www.w3.org/2000/svg">
<g opacity="0.32">
<path d="M70 16.4815C60.5883 19.5712 54.0242 27.0254 53.8906 37.1748C57.9048 37.1748 62.1045 37.1748 66.5587 37.1748C66.5587 46.4182 66.5587 55.3716 66.5587 64.6655C57.8939 64.6655 49.1121 64.6655 39.7728 64.6655C39.7728 62.5477 39.7728 60.3479 39.7728 58.1481C39.7729 49.0067 39.6533 39.8633 39.8019 30.7242C40.0112 17.8556 55.7443 5.32628 63.639 5.57166C65.1446 8.15647 66.5587 10.5156 66.5587 10.5156C67.2626 11.9654 69.2961 15.0318 70 16.4815Z" fill="#DCE8FF"/>
<path d="M30.2726 16.4815C20.8609 19.5712 14.2968 27.0254 14.1632 37.1748C18.1774 37.1748 22.3771 37.1748 26.8312 37.1748C26.8312 46.4182 26.8312 55.3716 26.8312 64.6655C18.1665 64.6655 9.38468 64.6655 0.0453622 64.6655C0.0453622 62.5477 0.0453372 60.3479 0.0453683 58.1481C0.0454804 49.0067 -0.0740784 39.8633 0.074526 30.7242C0.283777 17.8556 16.0169 5.32628 23.9115 5.57166C25.4172 8.15647 26.8312 10.5156 26.8312 10.5156C27.5352 11.9654 29.5687 15.0318 30.2726 16.4815Z" fill="#DCE8FF"/>
</g>
</svg>
