<svg width="267" height="27" viewBox="0 0 267 27" fill="none" xmlns="http://www.w3.org/2000/svg">
<path d="M3.34382e-05 26.3862V6.74987H16.581V26.3862H12.1194V10.5467H4.42333V26.3862H3.34382e-05ZM29.9052 26.7698C27.9876 26.7698 26.3257 26.3479 24.9194 25.5041C23.5132 24.6604 22.4223 23.48 21.6467 21.9629C20.8796 20.4459 20.4961 18.6732 20.4961 16.6448C20.4961 14.6163 20.8796 12.8394 21.6467 11.3138C22.4223 9.78822 23.5132 8.60356 24.9194 7.75981C26.3257 6.91606 27.9876 6.49419 29.9052 6.49419C31.8228 6.49419 33.4848 6.91606 34.891 7.75981C36.2973 8.60356 37.3839 9.78822 38.151 11.3138C38.9265 12.8394 39.3143 14.6163 39.3143 16.6448C39.3143 18.6732 38.9265 20.4459 38.151 21.9629C37.3839 23.48 36.2973 24.6604 34.891 25.5041C33.4848 26.3479 31.8228 26.7698 29.9052 26.7698ZM29.9308 23.0624C30.9706 23.0624 31.8399 22.7769 32.5387 22.2058C33.2376 21.6263 33.7575 20.8507 34.0984 19.8791C34.4478 18.9075 34.6225 17.8252 34.6225 16.632C34.6225 15.4303 34.4478 14.3436 34.0984 13.372C33.7575 12.3919 33.2376 11.6121 32.5387 11.0325C31.8399 10.453 30.9706 10.1632 29.9308 10.1632C28.8654 10.1632 27.9791 10.453 27.2717 11.0325C26.5728 11.6121 26.0487 12.3919 25.6993 13.372C25.3583 14.3436 25.1879 15.4303 25.1879 16.632C25.1879 17.8252 25.3583 18.9075 25.6993 19.8791C26.0487 20.8507 26.5728 21.6263 27.2717 22.2058C27.9791 22.7769 28.8654 23.0624 29.9308 23.0624ZM41.8871 26.3862L41.8615 22.5766H42.5391C43.0505 22.5766 43.4809 22.4615 43.8303 22.2314C44.1797 22.0013 44.4695 21.6178 44.6996 21.0808C44.9297 20.5354 45.1087 19.8024 45.2365 18.882C45.3644 17.9615 45.4539 16.8152 45.505 15.443L45.8502 6.74987H60.1684V26.3862H55.6939V10.5467H50.0561L49.7493 16.8749C49.6726 18.5112 49.4894 19.9303 49.1996 21.132C48.9184 22.3252 48.5178 23.3095 47.9979 24.0851C47.4865 24.8607 46.8431 25.4402 46.0675 25.8237C45.2919 26.1987 44.3757 26.3862 43.3189 26.3862H41.8871ZM67.9603 13.1419H73.7515C76.2571 13.1419 78.1961 13.7513 79.5682 14.97C80.9404 16.1888 81.6307 17.7868 81.6392 19.7641C81.6307 21.051 81.3154 22.193 80.6932 23.1902C80.0796 24.1874 79.1847 24.9715 78.0086 25.5425C76.8409 26.105 75.4219 26.3862 73.7515 26.3862H64.8282V6.74987H69.2898V22.5894H73.7515C74.7571 22.5894 75.5838 22.3337 76.2316 21.8223C76.8793 21.3024 77.2032 20.6377 77.2032 19.828C77.2032 18.9757 76.8793 18.2811 76.2316 17.7442C75.5838 17.2073 74.7571 16.9388 73.7515 16.9388H67.9603V13.1419ZM84.5189 21.0041H89.1083C89.151 21.7371 89.4791 22.3038 90.0927 22.7044C90.7064 23.105 91.5032 23.3053 92.4833 23.3053C93.4805 23.3053 94.32 23.0879 95.0018 22.6533C95.6921 22.2101 96.0373 21.5411 96.0373 20.6462C96.0373 20.1178 95.9052 19.6533 95.641 19.2527C95.3768 18.8436 95.0061 18.5283 94.5288 18.3067C94.0515 18.0851 93.489 17.9743 92.8413 17.9743H89.837V14.6888H92.8413C93.8044 14.6888 94.5331 14.4672 95.0274 14.024C95.5302 13.5808 95.7816 13.0226 95.7816 12.3493C95.7816 11.6249 95.5174 11.0368 94.989 10.5851C94.4691 10.1334 93.749 9.90754 92.8285 9.90754C91.9081 9.90754 91.141 10.1163 90.5274 10.534C89.9223 10.9516 89.6069 11.4885 89.5814 12.1448H85.0174C85.0345 11.0027 85.3754 10.0098 86.0402 9.16606C86.7135 8.32231 87.6169 7.66606 88.7504 7.19731C89.8924 6.72856 91.1794 6.49419 92.6112 6.49419C94.1453 6.49419 95.4706 6.7243 96.587 7.18453C97.7035 7.64475 98.5643 8.28822 99.1694 9.11492C99.7745 9.93311 100.077 10.8962 100.077 12.0041C100.077 13.0695 99.7447 13.9516 99.0799 14.6504C98.4152 15.3408 97.5203 15.8351 96.3953 16.1334V16.3379C97.1708 16.3805 97.8697 16.6021 98.4919 17.0027C99.114 17.3948 99.6083 17.9274 99.9748 18.6007C100.341 19.274 100.525 20.0538 100.525 20.9402C100.525 22.1419 100.179 23.1817 99.489 24.0595C98.7987 24.9288 97.8484 25.5979 96.6382 26.0666C95.4365 26.5354 94.06 26.7698 92.5089 26.7698C91.0004 26.7698 89.6495 26.5439 88.4564 26.0922C87.2717 25.632 86.3299 24.9715 85.6311 24.1107C84.9322 23.2499 84.5615 22.2144 84.5189 21.0041ZM112.733 26.7698C110.816 26.7698 109.154 26.3479 107.748 25.5041C106.341 24.6604 105.25 23.48 104.475 21.9629C103.708 20.4459 103.324 18.6732 103.324 16.6448C103.324 14.6163 103.708 12.8394 104.475 11.3138C105.25 9.78822 106.341 8.60356 107.748 7.75981C109.154 6.91606 110.816 6.49419 112.733 6.49419C114.651 6.49419 116.313 6.91606 117.719 7.75981C119.125 8.60356 120.212 9.78822 120.979 11.3138C121.755 12.8394 122.142 14.6163 122.142 16.6448C122.142 18.6732 121.755 20.4459 120.979 21.9629C120.212 23.48 119.125 24.6604 117.719 25.5041C116.313 26.3479 114.651 26.7698 112.733 26.7698ZM112.759 23.0624C113.799 23.0624 114.668 22.7769 115.367 22.2058C116.066 21.6263 116.586 20.8507 116.927 19.8791C117.276 18.9075 117.451 17.8252 117.451 16.632C117.451 15.4303 117.276 14.3436 116.927 13.372C116.586 12.3919 116.066 11.6121 115.367 11.0325C114.668 10.453 113.799 10.1632 112.759 10.1632C111.694 10.1632 110.807 10.453 110.1 11.0325C109.401 11.6121 108.877 12.3919 108.527 13.372C108.186 14.3436 108.016 15.4303 108.016 16.632C108.016 17.8252 108.186 18.9075 108.527 19.8791C108.877 20.8507 109.401 21.6263 110.1 22.2058C110.807 22.7769 111.694 23.0624 112.759 23.0624ZM126.07 26.3862V6.74987H134.316C136.643 6.74987 138.479 7.21435 139.826 8.14333C141.181 9.07231 141.859 10.3678 141.859 12.0297C141.859 13.1291 141.475 14.0283 140.708 14.7271C139.95 15.4175 138.914 15.882 137.602 16.1206C138.633 16.2058 139.536 16.4658 140.312 16.9004C141.096 17.3351 141.71 17.9061 142.153 18.6135C142.596 19.3209 142.818 20.1348 142.818 21.0553C142.818 22.1377 142.532 23.0794 141.961 23.8805C141.398 24.6732 140.576 25.2911 139.494 25.7342C138.42 26.1689 137.116 26.3862 135.582 26.3862H126.07ZM130.404 22.7428H135.582C136.434 22.7428 137.103 22.5425 137.589 22.1419C138.075 21.7328 138.318 21.1788 138.318 20.48C138.318 19.6703 138.075 19.0354 137.589 18.5752C137.103 18.1064 136.434 17.872 135.582 17.872H130.404V22.7428ZM130.404 14.8805H134.406C135.036 14.8805 135.577 14.7911 136.029 14.6121C136.481 14.4246 136.826 14.1646 137.065 13.8323C137.303 13.4913 137.423 13.0865 137.423 12.6178C137.423 11.9445 137.146 11.4161 136.592 11.0325C136.046 10.649 135.288 10.4573 134.316 10.4573H130.404V14.8805ZM152.287 26.7825C151.043 26.7825 149.922 26.5609 148.925 26.1178C147.936 25.6661 147.152 25.0013 146.573 24.1234C146.002 23.2456 145.716 22.1632 145.716 20.8763C145.716 19.7683 145.921 18.8521 146.33 18.1277C146.739 17.4033 147.297 16.8237 148.005 16.3891C148.712 15.9544 149.509 15.6263 150.395 15.4047C151.29 15.1746 152.215 15.0084 153.169 14.9061C154.32 14.7868 155.253 14.6803 155.969 14.5865C156.685 14.4842 157.205 14.3308 157.529 14.1263C157.861 13.9132 158.027 13.5851 158.027 13.1419V13.0652C158.027 12.1021 157.742 11.3564 157.171 10.828C156.6 10.2996 155.777 10.0354 154.704 10.0354C153.57 10.0354 152.671 10.2825 152.006 10.7769C151.35 11.2712 150.907 11.855 150.677 12.5283L146.356 11.9146C146.696 10.7215 147.259 9.7243 148.043 8.92316C148.827 8.1135 149.786 7.50839 150.919 7.10782C152.053 6.69873 153.306 6.49419 154.678 6.49419C155.624 6.49419 156.566 6.60498 157.503 6.82657C158.441 7.04816 159.297 7.41464 160.073 7.926C160.848 8.42884 161.471 9.11492 161.939 9.98424C162.417 10.8536 162.655 11.9402 162.655 13.2442V26.3862H158.206V23.6888H158.053C157.772 24.2342 157.375 24.7456 156.864 25.2229C156.361 25.6916 155.726 26.0709 154.959 26.3607C154.201 26.6419 153.31 26.7825 152.287 26.7825ZM153.489 23.382C154.418 23.382 155.223 23.1987 155.905 22.8323C156.587 22.4573 157.111 21.9629 157.478 21.3493C157.853 20.7357 158.04 20.0666 158.04 19.3422V17.0283C157.895 17.1476 157.648 17.2584 157.299 17.3607C156.958 17.4629 156.574 17.5524 156.148 17.6291C155.722 17.7058 155.3 17.774 154.882 17.8337C154.465 17.8933 154.103 17.9445 153.796 17.9871C153.106 18.0808 152.488 18.2342 151.942 18.4473C151.397 18.6604 150.966 18.9587 150.651 19.3422C150.336 19.7172 150.178 20.203 150.178 20.7996C150.178 21.6519 150.489 22.2953 151.111 22.73C151.733 23.1646 152.526 23.382 153.489 23.382ZM165.11 10.5467V6.74987H182.292V10.5467H175.938V26.3862H171.463V10.5467H165.11ZM193.861 26.7698C191.892 26.7698 190.192 26.3607 188.76 25.5425C187.337 24.7158 186.242 23.5482 185.475 22.0396C184.708 20.5226 184.324 18.7371 184.324 16.6831C184.324 14.6632 184.708 12.8905 185.475 11.3649C186.25 9.83083 187.333 8.63765 188.722 7.78538C190.111 6.92458 191.743 6.49419 193.618 6.49419C194.829 6.49419 195.971 6.69021 197.044 7.08225C198.127 7.46578 199.081 8.06237 199.908 8.87203C200.743 9.68168 201.4 10.7129 201.877 11.9658C202.354 13.2101 202.593 14.693 202.593 16.4146V17.8337H186.498V14.7144H198.157C198.148 13.828 197.956 13.0396 197.581 12.3493C197.206 11.6504 196.682 11.1007 196.009 10.7002C195.344 10.2996 194.569 10.0993 193.682 10.0993C192.736 10.0993 191.905 10.3294 191.189 10.7896C190.473 11.2413 189.915 11.8379 189.515 12.5794C189.123 13.3124 188.922 14.1178 188.914 14.9956V17.7186C188.914 18.8607 189.123 19.8408 189.54 20.659C189.958 21.4686 190.542 22.0908 191.292 22.5254C192.042 22.9516 192.919 23.1646 193.925 23.1646C194.598 23.1646 195.208 23.0709 195.753 22.8834C196.299 22.6874 196.772 22.4019 197.172 22.0269C197.573 21.6519 197.875 21.1874 198.08 20.6334L202.401 21.1192C202.128 22.2612 201.608 23.2584 200.841 24.1107C200.083 24.9544 199.111 25.6107 197.927 26.0794C196.742 26.5396 195.387 26.7698 193.861 26.7698ZM205.153 26.3862L205.127 22.5766H205.805C206.316 22.5766 206.746 22.4615 207.096 22.2314C207.445 22.0013 207.735 21.6178 207.965 21.0808C208.195 20.5354 208.374 19.8024 208.502 18.882C208.63 17.9615 208.719 16.8152 208.771 15.443L209.116 6.74987H223.434V26.3862H218.96V10.5467H213.322L213.015 16.8749C212.938 18.5112 212.755 19.9303 212.465 21.132C212.184 22.3252 211.783 23.3095 211.264 24.0851C210.752 24.8607 210.109 25.4402 209.333 25.8237C208.558 26.1987 207.641 26.3862 206.585 26.3862H205.153ZM236.787 26.7698C234.818 26.7698 233.118 26.3607 231.686 25.5425C230.263 24.7158 229.168 23.5482 228.401 22.0396C227.634 20.5226 227.25 18.7371 227.25 16.6831C227.25 14.6632 227.634 12.8905 228.401 11.3649C229.176 9.83083 230.259 8.63765 231.648 7.78538C233.037 6.92458 234.669 6.49419 236.544 6.49419C237.754 6.49419 238.896 6.69021 239.97 7.08225C241.053 7.46578 242.007 8.06237 242.834 8.87203C243.669 9.68168 244.325 10.7129 244.803 11.9658C245.28 13.2101 245.519 14.693 245.519 16.4146V17.8337H229.423V14.7144H241.082C241.074 13.828 240.882 13.0396 240.507 12.3493C240.132 11.6504 239.608 11.1007 238.935 10.7002C238.27 10.2996 237.494 10.0993 236.608 10.0993C235.662 10.0993 234.831 10.3294 234.115 10.7896C233.399 11.2413 232.841 11.8379 232.44 12.5794C232.048 13.3124 231.848 14.1178 231.84 14.9956V17.7186C231.84 18.8607 232.048 19.8408 232.466 20.659C232.884 21.4686 233.467 22.0908 234.217 22.5254C234.967 22.9516 235.845 23.1646 236.851 23.1646C237.524 23.1646 238.134 23.0709 238.679 22.8834C239.224 22.6874 239.697 22.4019 240.098 22.0269C240.499 21.6519 240.801 21.1874 241.006 20.6334L245.327 21.1192C245.054 22.2612 244.534 23.2584 243.767 24.1107C243.009 24.9544 242.037 25.6107 240.852 26.0794C239.668 26.5396 238.313 26.7698 236.787 26.7698ZM253.895 20.122L261.757 6.74987H266.513V26.3862H262.039V13.0013L254.202 26.3862H249.434V6.74987H253.895V20.122ZM260.492 -0.000133753H263.956C263.956 1.49134 263.415 2.70157 262.333 3.63055C261.259 4.551 259.802 5.01123 257.961 5.01123C256.137 5.01123 254.684 4.551 253.601 3.63055C252.527 2.70157 251.995 1.49134 252.003 -0.000133753H255.442C255.442 0.613503 255.63 1.16322 256.005 1.64901C256.388 2.12629 257.04 2.36492 257.961 2.36492C258.864 2.36492 259.507 2.12629 259.891 1.64901C260.283 1.17174 260.483 0.622026 260.492 -0.000133753Z" fill="#DCE8FF"/>
<path d="M3.34382e-05 26.3862V6.74987H16.581V26.3862H12.1194V10.5467H4.42333V26.3862H3.34382e-05ZM29.9052 26.7698C27.9876 26.7698 26.3257 26.3479 24.9194 25.5041C23.5132 24.6604 22.4223 23.48 21.6467 21.9629C20.8796 20.4459 20.4961 18.6732 20.4961 16.6448C20.4961 14.6163 20.8796 12.8394 21.6467 11.3138C22.4223 9.78822 23.5132 8.60356 24.9194 7.75981C26.3257 6.91606 27.9876 6.49419 29.9052 6.49419C31.8228 6.49419 33.4848 6.91606 34.891 7.75981C36.2973 8.60356 37.3839 9.78822 38.151 11.3138C38.9265 12.8394 39.3143 14.6163 39.3143 16.6448C39.3143 18.6732 38.9265 20.4459 38.151 21.9629C37.3839 23.48 36.2973 24.6604 34.891 25.5041C33.4848 26.3479 31.8228 26.7698 29.9052 26.7698ZM29.9308 23.0624C30.9706 23.0624 31.8399 22.7769 32.5387 22.2058C33.2376 21.6263 33.7575 20.8507 34.0984 19.8791C34.4478 18.9075 34.6225 17.8252 34.6225 16.632C34.6225 15.4303 34.4478 14.3436 34.0984 13.372C33.7575 12.3919 33.2376 11.6121 32.5387 11.0325C31.8399 10.453 30.9706 10.1632 29.9308 10.1632C28.8654 10.1632 27.9791 10.453 27.2717 11.0325C26.5728 11.6121 26.0487 12.3919 25.6993 13.372C25.3583 14.3436 25.1879 15.4303 25.1879 16.632C25.1879 17.8252 25.3583 18.9075 25.6993 19.8791C26.0487 20.8507 26.5728 21.6263 27.2717 22.2058C27.9791 22.7769 28.8654 23.0624 29.9308 23.0624ZM41.8871 26.3862L41.8615 22.5766H42.5391C43.0505 22.5766 43.4809 22.4615 43.8303 22.2314C44.1797 22.0013 44.4695 21.6178 44.6996 21.0808C44.9297 20.5354 45.1087 19.8024 45.2365 18.882C45.3644 17.9615 45.4539 16.8152 45.505 15.443L45.8502 6.74987H60.1684V26.3862H55.6939V10.5467H50.0561L49.7493 16.8749C49.6726 18.5112 49.4894 19.9303 49.1996 21.132C48.9184 22.3252 48.5178 23.3095 47.9979 24.0851C47.4865 24.8607 46.8431 25.4402 46.0675 25.8237C45.2919 26.1987 44.3757 26.3862 43.3189 26.3862H41.8871ZM67.9603 13.1419H73.7515C76.2571 13.1419 78.1961 13.7513 79.5682 14.97C80.9404 16.1888 81.6307 17.7868 81.6392 19.7641C81.6307 21.051 81.3154 22.193 80.6932 23.1902C80.0796 24.1874 79.1847 24.9715 78.0086 25.5425C76.8409 26.105 75.4219 26.3862 73.7515 26.3862H64.8282V6.74987H69.2898V22.5894H73.7515C74.7571 22.5894 75.5838 22.3337 76.2316 21.8223C76.8793 21.3024 77.2032 20.6377 77.2032 19.828C77.2032 18.9757 76.8793 18.2811 76.2316 17.7442C75.5838 17.2073 74.7571 16.9388 73.7515 16.9388H67.9603V13.1419ZM84.5189 21.0041H89.1083C89.151 21.7371 89.4791 22.3038 90.0927 22.7044C90.7064 23.105 91.5032 23.3053 92.4833 23.3053C93.4805 23.3053 94.32 23.0879 95.0018 22.6533C95.6921 22.2101 96.0373 21.5411 96.0373 20.6462C96.0373 20.1178 95.9052 19.6533 95.641 19.2527C95.3768 18.8436 95.0061 18.5283 94.5288 18.3067C94.0515 18.0851 93.489 17.9743 92.8413 17.9743H89.837V14.6888H92.8413C93.8044 14.6888 94.5331 14.4672 95.0274 14.024C95.5302 13.5808 95.7816 13.0226 95.7816 12.3493C95.7816 11.6249 95.5174 11.0368 94.989 10.5851C94.4691 10.1334 93.749 9.90754 92.8285 9.90754C91.9081 9.90754 91.141 10.1163 90.5274 10.534C89.9223 10.9516 89.6069 11.4885 89.5814 12.1448H85.0174C85.0345 11.0027 85.3754 10.0098 86.0402 9.16606C86.7135 8.32231 87.6169 7.66606 88.7504 7.19731C89.8924 6.72856 91.1794 6.49419 92.6112 6.49419C94.1453 6.49419 95.4706 6.7243 96.587 7.18453C97.7035 7.64475 98.5643 8.28822 99.1694 9.11492C99.7745 9.93311 100.077 10.8962 100.077 12.0041C100.077 13.0695 99.7447 13.9516 99.0799 14.6504C98.4152 15.3408 97.5203 15.8351 96.3953 16.1334V16.3379C97.1708 16.3805 97.8697 16.6021 98.4919 17.0027C99.114 17.3948 99.6083 17.9274 99.9748 18.6007C100.341 19.274 100.525 20.0538 100.525 20.9402C100.525 22.1419 100.179 23.1817 99.489 24.0595C98.7987 24.9288 97.8484 25.5979 96.6382 26.0666C95.4365 26.5354 94.06 26.7698 92.5089 26.7698C91.0004 26.7698 89.6495 26.5439 88.4564 26.0922C87.2717 25.632 86.3299 24.9715 85.6311 24.1107C84.9322 23.2499 84.5615 22.2144 84.5189 21.0041ZM112.733 26.7698C110.816 26.7698 109.154 26.3479 107.748 25.5041C106.341 24.6604 105.25 23.48 104.475 21.9629C103.708 20.4459 103.324 18.6732 103.324 16.6448C103.324 14.6163 103.708 12.8394 104.475 11.3138C105.25 9.78822 106.341 8.60356 107.748 7.75981C109.154 6.91606 110.816 6.49419 112.733 6.49419C114.651 6.49419 116.313 6.91606 117.719 7.75981C119.125 8.60356 120.212 9.78822 120.979 11.3138C121.755 12.8394 122.142 14.6163 122.142 16.6448C122.142 18.6732 121.755 20.4459 120.979 21.9629C120.212 23.48 119.125 24.6604 117.719 25.5041C116.313 26.3479 114.651 26.7698 112.733 26.7698ZM112.759 23.0624C113.799 23.0624 114.668 22.7769 115.367 22.2058C116.066 21.6263 116.586 20.8507 116.927 19.8791C117.276 18.9075 117.451 17.8252 117.451 16.632C117.451 15.4303 117.276 14.3436 116.927 13.372C116.586 12.3919 116.066 11.6121 115.367 11.0325C114.668 10.453 113.799 10.1632 112.759 10.1632C111.694 10.1632 110.807 10.453 110.1 11.0325C109.401 11.6121 108.877 12.3919 108.527 13.372C108.186 14.3436 108.016 15.4303 108.016 16.632C108.016 17.8252 108.186 18.9075 108.527 19.8791C108.877 20.8507 109.401 21.6263 110.1 22.2058C110.807 22.7769 111.694 23.0624 112.759 23.0624ZM126.07 26.3862V6.74987H134.316C136.643 6.74987 138.479 7.21435 139.826 8.14333C141.181 9.07231 141.859 10.3678 141.859 12.0297C141.859 13.1291 141.475 14.0283 140.708 14.7271C139.95 15.4175 138.914 15.882 137.602 16.1206C138.633 16.2058 139.536 16.4658 140.312 16.9004C141.096 17.3351 141.71 17.9061 142.153 18.6135C142.596 19.3209 142.818 20.1348 142.818 21.0553C142.818 22.1377 142.532 23.0794 141.961 23.8805C141.398 24.6732 140.576 25.2911 139.494 25.7342C138.42 26.1689 137.116 26.3862 135.582 26.3862H126.07ZM130.404 22.7428H135.582C136.434 22.7428 137.103 22.5425 137.589 22.1419C138.075 21.7328 138.318 21.1788 138.318 20.48C138.318 19.6703 138.075 19.0354 137.589 18.5752C137.103 18.1064 136.434 17.872 135.582 17.872H130.404V22.7428ZM130.404 14.8805H134.406C135.036 14.8805 135.577 14.7911 136.029 14.6121C136.481 14.4246 136.826 14.1646 137.065 13.8323C137.303 13.4913 137.423 13.0865 137.423 12.6178C137.423 11.9445 137.146 11.4161 136.592 11.0325C136.046 10.649 135.288 10.4573 134.316 10.4573H130.404V14.8805ZM152.287 26.7825C151.043 26.7825 149.922 26.5609 148.925 26.1178C147.936 25.6661 147.152 25.0013 146.573 24.1234C146.002 23.2456 145.716 22.1632 145.716 20.8763C145.716 19.7683 145.921 18.8521 146.33 18.1277C146.739 17.4033 147.297 16.8237 148.005 16.3891C148.712 15.9544 149.509 15.6263 150.395 15.4047C151.29 15.1746 152.215 15.0084 153.169 14.9061C154.32 14.7868 155.253 14.6803 155.969 14.5865C156.685 14.4842 157.205 14.3308 157.529 14.1263C157.861 13.9132 158.027 13.5851 158.027 13.1419V13.0652C158.027 12.1021 157.742 11.3564 157.171 10.828C156.6 10.2996 155.777 10.0354 154.704 10.0354C153.57 10.0354 152.671 10.2825 152.006 10.7769C151.35 11.2712 150.907 11.855 150.677 12.5283L146.356 11.9146C146.696 10.7215 147.259 9.7243 148.043 8.92316C148.827 8.1135 149.786 7.50839 150.919 7.10782C152.053 6.69873 153.306 6.49419 154.678 6.49419C155.624 6.49419 156.566 6.60498 157.503 6.82657C158.441 7.04816 159.297 7.41464 160.073 7.926C160.848 8.42884 161.471 9.11492 161.939 9.98424C162.417 10.8536 162.655 11.9402 162.655 13.2442V26.3862H158.206V23.6888H158.053C157.772 24.2342 157.375 24.7456 156.864 25.2229C156.361 25.6916 155.726 26.0709 154.959 26.3607C154.201 26.6419 153.31 26.7825 152.287 26.7825ZM153.489 23.382C154.418 23.382 155.223 23.1987 155.905 22.8323C156.587 22.4573 157.111 21.9629 157.478 21.3493C157.853 20.7357 158.04 20.0666 158.04 19.3422V17.0283C157.895 17.1476 157.648 17.2584 157.299 17.3607C156.958 17.4629 156.574 17.5524 156.148 17.6291C155.722 17.7058 155.3 17.774 154.882 17.8337C154.465 17.8933 154.103 17.9445 153.796 17.9871C153.106 18.0808 152.488 18.2342 151.942 18.4473C151.397 18.6604 150.966 18.9587 150.651 19.3422C150.336 19.7172 150.178 20.203 150.178 20.7996C150.178 21.6519 150.489 22.2953 151.111 22.73C151.733 23.1646 152.526 23.382 153.489 23.382ZM165.11 10.5467V6.74987H182.292V10.5467H175.938V26.3862H171.463V10.5467H165.11ZM193.861 26.7698C191.892 26.7698 190.192 26.3607 188.76 25.5425C187.337 24.7158 186.242 23.5482 185.475 22.0396C184.708 20.5226 184.324 18.7371 184.324 16.6831C184.324 14.6632 184.708 12.8905 185.475 11.3649C186.25 9.83083 187.333 8.63765 188.722 7.78538C190.111 6.92458 191.743 6.49419 193.618 6.49419C194.829 6.49419 195.971 6.69021 197.044 7.08225C198.127 7.46578 199.081 8.06237 199.908 8.87203C200.743 9.68168 201.4 10.7129 201.877 11.9658C202.354 13.2101 202.593 14.693 202.593 16.4146V17.8337H186.498V14.7144H198.157C198.148 13.828 197.956 13.0396 197.581 12.3493C197.206 11.6504 196.682 11.1007 196.009 10.7002C195.344 10.2996 194.569 10.0993 193.682 10.0993C192.736 10.0993 191.905 10.3294 191.189 10.7896C190.473 11.2413 189.915 11.8379 189.515 12.5794C189.123 13.3124 188.922 14.1178 188.914 14.9956V17.7186C188.914 18.8607 189.123 19.8408 189.54 20.659C189.958 21.4686 190.542 22.0908 191.292 22.5254C192.042 22.9516 192.919 23.1646 193.925 23.1646C194.598 23.1646 195.208 23.0709 195.753 22.8834C196.299 22.6874 196.772 22.4019 197.172 22.0269C197.573 21.6519 197.875 21.1874 198.08 20.6334L202.401 21.1192C202.128 22.2612 201.608 23.2584 200.841 24.1107C200.083 24.9544 199.111 25.6107 197.927 26.0794C196.742 26.5396 195.387 26.7698 193.861 26.7698ZM205.153 26.3862L205.127 22.5766H205.805C206.316 22.5766 206.746 22.4615 207.096 22.2314C207.445 22.0013 207.735 21.6178 207.965 21.0808C208.195 20.5354 208.374 19.8024 208.502 18.882C208.63 17.9615 208.719 16.8152 208.771 15.443L209.116 6.74987H223.434V26.3862H218.96V10.5467H213.322L213.015 16.8749C212.938 18.5112 212.755 19.9303 212.465 21.132C212.184 22.3252 211.783 23.3095 211.264 24.0851C210.752 24.8607 210.109 25.4402 209.333 25.8237C208.558 26.1987 207.641 26.3862 206.585 26.3862H205.153ZM236.787 26.7698C234.818 26.7698 233.118 26.3607 231.686 25.5425C230.263 24.7158 229.168 23.5482 228.401 22.0396C227.634 20.5226 227.25 18.7371 227.25 16.6831C227.25 14.6632 227.634 12.8905 228.401 11.3649C229.176 9.83083 230.259 8.63765 231.648 7.78538C233.037 6.92458 234.669 6.49419 236.544 6.49419C237.754 6.49419 238.896 6.69021 239.97 7.08225C241.053 7.46578 242.007 8.06237 242.834 8.87203C243.669 9.68168 244.325 10.7129 244.803 11.9658C245.28 13.2101 245.519 14.693 245.519 16.4146V17.8337H229.423V14.7144H241.082C241.074 13.828 240.882 13.0396 240.507 12.3493C240.132 11.6504 239.608 11.1007 238.935 10.7002C238.27 10.2996 237.494 10.0993 236.608 10.0993C235.662 10.0993 234.831 10.3294 234.115 10.7896C233.399 11.2413 232.841 11.8379 232.44 12.5794C232.048 13.3124 231.848 14.1178 231.84 14.9956V17.7186C231.84 18.8607 232.048 19.8408 232.466 20.659C232.884 21.4686 233.467 22.0908 234.217 22.5254C234.967 22.9516 235.845 23.1646 236.851 23.1646C237.524 23.1646 238.134 23.0709 238.679 22.8834C239.224 22.6874 239.697 22.4019 240.098 22.0269C240.499 21.6519 240.801 21.1874 241.006 20.6334L245.327 21.1192C245.054 22.2612 244.534 23.2584 243.767 24.1107C243.009 24.9544 242.037 25.6107 240.852 26.0794C239.668 26.5396 238.313 26.7698 236.787 26.7698ZM253.895 20.122L261.757 6.74987H266.513V26.3862H262.039V13.0013L254.202 26.3862H249.434V6.74987H253.895V20.122ZM260.492 -0.000133753H263.956C263.956 1.49134 263.415 2.70157 262.333 3.63055C261.259 4.551 259.802 5.01123 257.961 5.01123C256.137 5.01123 254.684 4.551 253.601 3.63055C252.527 2.70157 251.995 1.49134 252.003 -0.000133753H255.442C255.442 0.613503 255.63 1.16322 256.005 1.64901C256.388 2.12629 257.04 2.36492 257.961 2.36492C258.864 2.36492 259.507 2.12629 259.891 1.64901C260.283 1.17174 260.483 0.622026 260.492 -0.000133753Z" fill="url(#paint0_linear_927_5566)"/>
<path d="M3.34382e-05 26.3862V6.74987H16.581V26.3862H12.1194V10.5467H4.42333V26.3862H3.34382e-05ZM29.9052 26.7698C27.9876 26.7698 26.3257 26.3479 24.9194 25.5041C23.5132 24.6604 22.4223 23.48 21.6467 21.9629C20.8796 20.4459 20.4961 18.6732 20.4961 16.6448C20.4961 14.6163 20.8796 12.8394 21.6467 11.3138C22.4223 9.78822 23.5132 8.60356 24.9194 7.75981C26.3257 6.91606 27.9876 6.49419 29.9052 6.49419C31.8228 6.49419 33.4848 6.91606 34.891 7.75981C36.2973 8.60356 37.3839 9.78822 38.151 11.3138C38.9265 12.8394 39.3143 14.6163 39.3143 16.6448C39.3143 18.6732 38.9265 20.4459 38.151 21.9629C37.3839 23.48 36.2973 24.6604 34.891 25.5041C33.4848 26.3479 31.8228 26.7698 29.9052 26.7698ZM29.9308 23.0624C30.9706 23.0624 31.8399 22.7769 32.5387 22.2058C33.2376 21.6263 33.7575 20.8507 34.0984 19.8791C34.4478 18.9075 34.6225 17.8252 34.6225 16.632C34.6225 15.4303 34.4478 14.3436 34.0984 13.372C33.7575 12.3919 33.2376 11.6121 32.5387 11.0325C31.8399 10.453 30.9706 10.1632 29.9308 10.1632C28.8654 10.1632 27.9791 10.453 27.2717 11.0325C26.5728 11.6121 26.0487 12.3919 25.6993 13.372C25.3583 14.3436 25.1879 15.4303 25.1879 16.632C25.1879 17.8252 25.3583 18.9075 25.6993 19.8791C26.0487 20.8507 26.5728 21.6263 27.2717 22.2058C27.9791 22.7769 28.8654 23.0624 29.9308 23.0624ZM41.8871 26.3862L41.8615 22.5766H42.5391C43.0505 22.5766 43.4809 22.4615 43.8303 22.2314C44.1797 22.0013 44.4695 21.6178 44.6996 21.0808C44.9297 20.5354 45.1087 19.8024 45.2365 18.882C45.3644 17.9615 45.4539 16.8152 45.505 15.443L45.8502 6.74987H60.1684V26.3862H55.6939V10.5467H50.0561L49.7493 16.8749C49.6726 18.5112 49.4894 19.9303 49.1996 21.132C48.9184 22.3252 48.5178 23.3095 47.9979 24.0851C47.4865 24.8607 46.8431 25.4402 46.0675 25.8237C45.2919 26.1987 44.3757 26.3862 43.3189 26.3862H41.8871ZM67.9603 13.1419H73.7515C76.2571 13.1419 78.1961 13.7513 79.5682 14.97C80.9404 16.1888 81.6307 17.7868 81.6392 19.7641C81.6307 21.051 81.3154 22.193 80.6932 23.1902C80.0796 24.1874 79.1847 24.9715 78.0086 25.5425C76.8409 26.105 75.4219 26.3862 73.7515 26.3862H64.8282V6.74987H69.2898V22.5894H73.7515C74.7571 22.5894 75.5838 22.3337 76.2316 21.8223C76.8793 21.3024 77.2032 20.6377 77.2032 19.828C77.2032 18.9757 76.8793 18.2811 76.2316 17.7442C75.5838 17.2073 74.7571 16.9388 73.7515 16.9388H67.9603V13.1419ZM84.5189 21.0041H89.1083C89.151 21.7371 89.4791 22.3038 90.0927 22.7044C90.7064 23.105 91.5032 23.3053 92.4833 23.3053C93.4805 23.3053 94.32 23.0879 95.0018 22.6533C95.6921 22.2101 96.0373 21.5411 96.0373 20.6462C96.0373 20.1178 95.9052 19.6533 95.641 19.2527C95.3768 18.8436 95.0061 18.5283 94.5288 18.3067C94.0515 18.0851 93.489 17.9743 92.8413 17.9743H89.837V14.6888H92.8413C93.8044 14.6888 94.5331 14.4672 95.0274 14.024C95.5302 13.5808 95.7816 13.0226 95.7816 12.3493C95.7816 11.6249 95.5174 11.0368 94.989 10.5851C94.4691 10.1334 93.749 9.90754 92.8285 9.90754C91.9081 9.90754 91.141 10.1163 90.5274 10.534C89.9223 10.9516 89.6069 11.4885 89.5814 12.1448H85.0174C85.0345 11.0027 85.3754 10.0098 86.0402 9.16606C86.7135 8.32231 87.6169 7.66606 88.7504 7.19731C89.8924 6.72856 91.1794 6.49419 92.6112 6.49419C94.1453 6.49419 95.4706 6.7243 96.587 7.18453C97.7035 7.64475 98.5643 8.28822 99.1694 9.11492C99.7745 9.93311 100.077 10.8962 100.077 12.0041C100.077 13.0695 99.7447 13.9516 99.0799 14.6504C98.4152 15.3408 97.5203 15.8351 96.3953 16.1334V16.3379C97.1708 16.3805 97.8697 16.6021 98.4919 17.0027C99.114 17.3948 99.6083 17.9274 99.9748 18.6007C100.341 19.274 100.525 20.0538 100.525 20.9402C100.525 22.1419 100.179 23.1817 99.489 24.0595C98.7987 24.9288 97.8484 25.5979 96.6382 26.0666C95.4365 26.5354 94.06 26.7698 92.5089 26.7698C91.0004 26.7698 89.6495 26.5439 88.4564 26.0922C87.2717 25.632 86.3299 24.9715 85.6311 24.1107C84.9322 23.2499 84.5615 22.2144 84.5189 21.0041ZM112.733 26.7698C110.816 26.7698 109.154 26.3479 107.748 25.5041C106.341 24.6604 105.25 23.48 104.475 21.9629C103.708 20.4459 103.324 18.6732 103.324 16.6448C103.324 14.6163 103.708 12.8394 104.475 11.3138C105.25 9.78822 106.341 8.60356 107.748 7.75981C109.154 6.91606 110.816 6.49419 112.733 6.49419C114.651 6.49419 116.313 6.91606 117.719 7.75981C119.125 8.60356 120.212 9.78822 120.979 11.3138C121.755 12.8394 122.142 14.6163 122.142 16.6448C122.142 18.6732 121.755 20.4459 120.979 21.9629C120.212 23.48 119.125 24.6604 117.719 25.5041C116.313 26.3479 114.651 26.7698 112.733 26.7698ZM112.759 23.0624C113.799 23.0624 114.668 22.7769 115.367 22.2058C116.066 21.6263 116.586 20.8507 116.927 19.8791C117.276 18.9075 117.451 17.8252 117.451 16.632C117.451 15.4303 117.276 14.3436 116.927 13.372C116.586 12.3919 116.066 11.6121 115.367 11.0325C114.668 10.453 113.799 10.1632 112.759 10.1632C111.694 10.1632 110.807 10.453 110.1 11.0325C109.401 11.6121 108.877 12.3919 108.527 13.372C108.186 14.3436 108.016 15.4303 108.016 16.632C108.016 17.8252 108.186 18.9075 108.527 19.8791C108.877 20.8507 109.401 21.6263 110.1 22.2058C110.807 22.7769 111.694 23.0624 112.759 23.0624ZM126.07 26.3862V6.74987H134.316C136.643 6.74987 138.479 7.21435 139.826 8.14333C141.181 9.07231 141.859 10.3678 141.859 12.0297C141.859 13.1291 141.475 14.0283 140.708 14.7271C139.95 15.4175 138.914 15.882 137.602 16.1206C138.633 16.2058 139.536 16.4658 140.312 16.9004C141.096 17.3351 141.71 17.9061 142.153 18.6135C142.596 19.3209 142.818 20.1348 142.818 21.0553C142.818 22.1377 142.532 23.0794 141.961 23.8805C141.398 24.6732 140.576 25.2911 139.494 25.7342C138.42 26.1689 137.116 26.3862 135.582 26.3862H126.07ZM130.404 22.7428H135.582C136.434 22.7428 137.103 22.5425 137.589 22.1419C138.075 21.7328 138.318 21.1788 138.318 20.48C138.318 19.6703 138.075 19.0354 137.589 18.5752C137.103 18.1064 136.434 17.872 135.582 17.872H130.404V22.7428ZM130.404 14.8805H134.406C135.036 14.8805 135.577 14.7911 136.029 14.6121C136.481 14.4246 136.826 14.1646 137.065 13.8323C137.303 13.4913 137.423 13.0865 137.423 12.6178C137.423 11.9445 137.146 11.4161 136.592 11.0325C136.046 10.649 135.288 10.4573 134.316 10.4573H130.404V14.8805ZM152.287 26.7825C151.043 26.7825 149.922 26.5609 148.925 26.1178C147.936 25.6661 147.152 25.0013 146.573 24.1234C146.002 23.2456 145.716 22.1632 145.716 20.8763C145.716 19.7683 145.921 18.8521 146.33 18.1277C146.739 17.4033 147.297 16.8237 148.005 16.3891C148.712 15.9544 149.509 15.6263 150.395 15.4047C151.29 15.1746 152.215 15.0084 153.169 14.9061C154.32 14.7868 155.253 14.6803 155.969 14.5865C156.685 14.4842 157.205 14.3308 157.529 14.1263C157.861 13.9132 158.027 13.5851 158.027 13.1419V13.0652C158.027 12.1021 157.742 11.3564 157.171 10.828C156.6 10.2996 155.777 10.0354 154.704 10.0354C153.57 10.0354 152.671 10.2825 152.006 10.7769C151.35 11.2712 150.907 11.855 150.677 12.5283L146.356 11.9146C146.696 10.7215 147.259 9.7243 148.043 8.92316C148.827 8.1135 149.786 7.50839 150.919 7.10782C152.053 6.69873 153.306 6.49419 154.678 6.49419C155.624 6.49419 156.566 6.60498 157.503 6.82657C158.441 7.04816 159.297 7.41464 160.073 7.926C160.848 8.42884 161.471 9.11492 161.939 9.98424C162.417 10.8536 162.655 11.9402 162.655 13.2442V26.3862H158.206V23.6888H158.053C157.772 24.2342 157.375 24.7456 156.864 25.2229C156.361 25.6916 155.726 26.0709 154.959 26.3607C154.201 26.6419 153.31 26.7825 152.287 26.7825ZM153.489 23.382C154.418 23.382 155.223 23.1987 155.905 22.8323C156.587 22.4573 157.111 21.9629 157.478 21.3493C157.853 20.7357 158.04 20.0666 158.04 19.3422V17.0283C157.895 17.1476 157.648 17.2584 157.299 17.3607C156.958 17.4629 156.574 17.5524 156.148 17.6291C155.722 17.7058 155.3 17.774 154.882 17.8337C154.465 17.8933 154.103 17.9445 153.796 17.9871C153.106 18.0808 152.488 18.2342 151.942 18.4473C151.397 18.6604 150.966 18.9587 150.651 19.3422C150.336 19.7172 150.178 20.203 150.178 20.7996C150.178 21.6519 150.489 22.2953 151.111 22.73C151.733 23.1646 152.526 23.382 153.489 23.382ZM165.11 10.5467V6.74987H182.292V10.5467H175.938V26.3862H171.463V10.5467H165.11ZM193.861 26.7698C191.892 26.7698 190.192 26.3607 188.76 25.5425C187.337 24.7158 186.242 23.5482 185.475 22.0396C184.708 20.5226 184.324 18.7371 184.324 16.6831C184.324 14.6632 184.708 12.8905 185.475 11.3649C186.25 9.83083 187.333 8.63765 188.722 7.78538C190.111 6.92458 191.743 6.49419 193.618 6.49419C194.829 6.49419 195.971 6.69021 197.044 7.08225C198.127 7.46578 199.081 8.06237 199.908 8.87203C200.743 9.68168 201.4 10.7129 201.877 11.9658C202.354 13.2101 202.593 14.693 202.593 16.4146V17.8337H186.498V14.7144H198.157C198.148 13.828 197.956 13.0396 197.581 12.3493C197.206 11.6504 196.682 11.1007 196.009 10.7002C195.344 10.2996 194.569 10.0993 193.682 10.0993C192.736 10.0993 191.905 10.3294 191.189 10.7896C190.473 11.2413 189.915 11.8379 189.515 12.5794C189.123 13.3124 188.922 14.1178 188.914 14.9956V17.7186C188.914 18.8607 189.123 19.8408 189.54 20.659C189.958 21.4686 190.542 22.0908 191.292 22.5254C192.042 22.9516 192.919 23.1646 193.925 23.1646C194.598 23.1646 195.208 23.0709 195.753 22.8834C196.299 22.6874 196.772 22.4019 197.172 22.0269C197.573 21.6519 197.875 21.1874 198.08 20.6334L202.401 21.1192C202.128 22.2612 201.608 23.2584 200.841 24.1107C200.083 24.9544 199.111 25.6107 197.927 26.0794C196.742 26.5396 195.387 26.7698 193.861 26.7698ZM205.153 26.3862L205.127 22.5766H205.805C206.316 22.5766 206.746 22.4615 207.096 22.2314C207.445 22.0013 207.735 21.6178 207.965 21.0808C208.195 20.5354 208.374 19.8024 208.502 18.882C208.63 17.9615 208.719 16.8152 208.771 15.443L209.116 6.74987H223.434V26.3862H218.96V10.5467H213.322L213.015 16.8749C212.938 18.5112 212.755 19.9303 212.465 21.132C212.184 22.3252 211.783 23.3095 211.264 24.0851C210.752 24.8607 210.109 25.4402 209.333 25.8237C208.558 26.1987 207.641 26.3862 206.585 26.3862H205.153ZM236.787 26.7698C234.818 26.7698 233.118 26.3607 231.686 25.5425C230.263 24.7158 229.168 23.5482 228.401 22.0396C227.634 20.5226 227.25 18.7371 227.25 16.6831C227.25 14.6632 227.634 12.8905 228.401 11.3649C229.176 9.83083 230.259 8.63765 231.648 7.78538C233.037 6.92458 234.669 6.49419 236.544 6.49419C237.754 6.49419 238.896 6.69021 239.97 7.08225C241.053 7.46578 242.007 8.06237 242.834 8.87203C243.669 9.68168 244.325 10.7129 244.803 11.9658C245.28 13.2101 245.519 14.693 245.519 16.4146V17.8337H229.423V14.7144H241.082C241.074 13.828 240.882 13.0396 240.507 12.3493C240.132 11.6504 239.608 11.1007 238.935 10.7002C238.27 10.2996 237.494 10.0993 236.608 10.0993C235.662 10.0993 234.831 10.3294 234.115 10.7896C233.399 11.2413 232.841 11.8379 232.44 12.5794C232.048 13.3124 231.848 14.1178 231.84 14.9956V17.7186C231.84 18.8607 232.048 19.8408 232.466 20.659C232.884 21.4686 233.467 22.0908 234.217 22.5254C234.967 22.9516 235.845 23.1646 236.851 23.1646C237.524 23.1646 238.134 23.0709 238.679 22.8834C239.224 22.6874 239.697 22.4019 240.098 22.0269C240.499 21.6519 240.801 21.1874 241.006 20.6334L245.327 21.1192C245.054 22.2612 244.534 23.2584 243.767 24.1107C243.009 24.9544 242.037 25.6107 240.852 26.0794C239.668 26.5396 238.313 26.7698 236.787 26.7698ZM253.895 20.122L261.757 6.74987H266.513V26.3862H262.039V13.0013L254.202 26.3862H249.434V6.74987H253.895V20.122ZM260.492 -0.000133753H263.956C263.956 1.49134 263.415 2.70157 262.333 3.63055C261.259 4.551 259.802 5.01123 257.961 5.01123C256.137 5.01123 254.684 4.551 253.601 3.63055C252.527 2.70157 251.995 1.49134 252.003 -0.000133753H255.442C255.442 0.613503 255.63 1.16322 256.005 1.64901C256.388 2.12629 257.04 2.36492 257.961 2.36492C258.864 2.36492 259.507 2.12629 259.891 1.64901C260.283 1.17174 260.483 0.622026 260.492 -0.000133753Z" fill="white" fill-opacity="0.3"/>
<defs>
<linearGradient id="paint0_linear_927_5566" x1="-2.37781" y1="12.8862" x2="269.622" y2="12.8862" gradientUnits="userSpaceOnUse">
<stop stop-color="#9747FF"/>
<stop offset="1" stop-color="#005FF9"/>
</linearGradient>
</defs>
</svg>
