<svg width="40" height="40" viewBox="0 0 40 40" fill="none" xmlns="http://www.w3.org/2000/svg">
<mask id="mask0_927_5010" style="mask-type:alpha" maskUnits="userSpaceOnUse" x="0" y="0" width="40" height="40">
<rect width="40" height="40" transform="matrix(-1 0 0 1 40 0)" fill="#D9D9D9"/>
</mask>
<g mask="url(#mask0_927_5010)">
<path d="M19.9971 35.8332C22.1871 35.8332 24.2456 35.4176 26.1725 34.5865C28.0995 33.7554 29.7756 32.6275 31.2009 31.2028C32.6262 29.778 33.7546 28.1026 34.5863 26.1765C35.4177 24.2504 35.8334 22.1925 35.8334 20.0028C35.8334 17.8128 35.4178 15.7543 34.5867 13.8273C33.7556 11.9004 32.6277 10.2243 31.203 8.799C29.7782 7.37373 28.1028 6.24525 26.1767 5.41359C24.2506 4.5822 22.1927 4.1665 20.003 4.1665C17.813 4.1665 15.7545 4.58206 13.8275 5.41317C11.9006 6.24428 10.2245 7.3722 8.79921 8.79692C7.37393 10.2216 6.24546 11.8971 5.41379 13.8232C4.5824 15.7493 4.16671 17.8072 4.16671 19.9969C4.16671 22.1869 4.58226 24.2454 5.41337 26.1723C6.24448 28.0993 7.3724 29.7754 8.79712 31.2007C10.2218 32.6259 11.8973 33.7544 13.8234 34.5861C15.7495 35.4175 17.8074 35.8332 19.9971 35.8332ZM21.6667 33.2498V29.9998C22.5834 29.9998 23.3681 29.6734 24.0209 29.0207C24.6737 28.3679 25 27.5832 25 26.6665V24.9998L33 16.9998C33.0834 17.4998 33.1598 17.9998 33.2292 18.4998C33.2987 18.9998 33.3334 19.4998 33.3334 19.9998C33.3334 23.3609 32.2292 26.3054 30.0209 28.8332C27.8125 31.3609 25.0278 32.8332 21.6667 33.2498ZM10.1667 28.9998C9.02782 27.7498 8.15976 26.354 7.56254 24.8123C6.96532 23.2707 6.66671 21.6646 6.66671 19.994C6.66671 17.2651 7.42101 14.773 8.92962 12.5178C10.4382 10.2622 12.4617 8.63442 15 7.63442V8.33317C15 9.24984 15.3264 10.0346 15.9792 10.6873C16.632 11.3401 17.4167 11.6665 18.3334 11.6665H21.6667V14.9998C21.6667 15.4721 21.8264 15.8679 22.1459 16.1873C22.4653 16.5068 22.8612 16.6665 23.3334 16.6665H26.6667V19.9998H16.6667C16.1945 19.9998 15.7987 20.1596 15.4792 20.479C15.1598 20.7984 15 21.1943 15 21.6665V26.6665H13.3334C12.6112 26.6665 11.9584 26.8818 11.375 27.3123C10.7917 27.7429 10.3889 28.3054 10.1667 28.9998Z" fill="url(#paint0_linear_927_5010)"/>
<path d="M19.9971 35.8332C22.1871 35.8332 24.2456 35.4176 26.1725 34.5865C28.0995 33.7554 29.7756 32.6275 31.2009 31.2028C32.6262 29.778 33.7546 28.1026 34.5863 26.1765C35.4177 24.2504 35.8334 22.1925 35.8334 20.0028C35.8334 17.8128 35.4178 15.7543 34.5867 13.8273C33.7556 11.9004 32.6277 10.2243 31.203 8.799C29.7782 7.37373 28.1028 6.24525 26.1767 5.41359C24.2506 4.5822 22.1927 4.1665 20.003 4.1665C17.813 4.1665 15.7545 4.58206 13.8275 5.41317C11.9006 6.24428 10.2245 7.3722 8.79921 8.79692C7.37393 10.2216 6.24546 11.8971 5.41379 13.8232C4.5824 15.7493 4.16671 17.8072 4.16671 19.9969C4.16671 22.1869 4.58226 24.2454 5.41337 26.1723C6.24448 28.0993 7.3724 29.7754 8.79712 31.2007C10.2218 32.6259 11.8973 33.7544 13.8234 34.5861C15.7495 35.4175 17.8074 35.8332 19.9971 35.8332ZM21.6667 33.2498V29.9998C22.5834 29.9998 23.3681 29.6734 24.0209 29.0207C24.6737 28.3679 25 27.5832 25 26.6665V24.9998L33 16.9998C33.0834 17.4998 33.1598 17.9998 33.2292 18.4998C33.2987 18.9998 33.3334 19.4998 33.3334 19.9998C33.3334 23.3609 32.2292 26.3054 30.0209 28.8332C27.8125 31.3609 25.0278 32.8332 21.6667 33.2498ZM10.1667 28.9998C9.02782 27.7498 8.15976 26.354 7.56254 24.8123C6.96532 23.2707 6.66671 21.6646 6.66671 19.994C6.66671 17.2651 7.42101 14.773 8.92962 12.5178C10.4382 10.2622 12.4617 8.63442 15 7.63442V8.33317C15 9.24984 15.3264 10.0346 15.9792 10.6873C16.632 11.3401 17.4167 11.6665 18.3334 11.6665H21.6667V14.9998C21.6667 15.4721 21.8264 15.8679 22.1459 16.1873C22.4653 16.5068 22.8612 16.6665 23.3334 16.6665H26.6667V19.9998H16.6667C16.1945 19.9998 15.7987 20.1596 15.4792 20.479C15.1598 20.7984 15 21.1943 15 21.6665V26.6665H13.3334C12.6112 26.6665 11.9584 26.8818 11.375 27.3123C10.7917 27.7429 10.3889 28.3054 10.1667 28.9998Z" fill="white" fill-opacity="0.3"/>
</g>
<defs>
<linearGradient id="paint0_linear_927_5010" x1="35.8334" y1="19.9998" x2="4.16671" y2="19.9998" gradientUnits="userSpaceOnUse">
<stop stop-color="#9747FF"/>
<stop offset="1" stop-color="#005FF9"/>
</linearGradient>
</defs>
</svg>
