<svg width="177" height="43" viewBox="0 0 177 43" fill="none" xmlns="http://www.w3.org/2000/svg">
<path d="M2.37784 35V15.3636H18.9588V35H14.4972V19.1605H6.80114V35H2.37784ZM29.3683 35.3963C28.1239 35.3963 27.0032 35.1747 26.006 34.7315C25.0174 34.2798 24.2333 33.6151 23.6538 32.7372C23.0827 31.8594 22.7972 30.777 22.7972 29.4901C22.7972 28.3821 23.0018 27.4659 23.4109 26.7415C23.82 26.017 24.3782 25.4375 25.0856 25.0028C25.793 24.5682 26.5898 24.2401 27.4762 24.0185C28.3711 23.7884 29.2958 23.6222 30.2504 23.5199C31.4009 23.4006 32.3342 23.294 33.0501 23.2003C33.766 23.098 34.2859 22.9446 34.6097 22.7401C34.9421 22.527 35.1083 22.1989 35.1083 21.7557V21.679C35.1083 20.7159 34.8228 19.9702 34.2518 19.4418C33.6808 18.9134 32.8583 18.6491 31.7844 18.6491C30.6509 18.6491 29.7518 18.8963 29.087 19.3906C28.4308 19.8849 27.9876 20.4687 27.7575 21.142L23.4364 20.5284C23.7773 19.3352 24.3398 18.3381 25.1239 17.5369C25.908 16.7273 26.8668 16.1222 28.0004 15.7216C29.1339 15.3125 30.3867 15.108 31.7589 15.108C32.7049 15.108 33.6467 15.2188 34.5842 15.4403C35.5217 15.6619 36.3782 16.0284 37.1538 16.5398C37.9293 17.0426 38.5515 17.7287 39.0202 18.598C39.4975 19.4673 39.7362 20.554 39.7362 21.858V35H35.2873V32.3026H35.1339C34.8526 32.848 34.4563 33.3594 33.945 33.8366C33.4421 34.3054 32.8072 34.6847 32.0401 34.9744C31.2816 35.2557 30.391 35.3963 29.3683 35.3963ZM30.57 31.9957C31.4989 31.9957 32.3043 31.8125 32.9862 31.446C33.668 31.071 34.1921 30.5767 34.5586 29.9631C34.9336 29.3494 35.1211 28.6804 35.1211 27.956V25.642C34.9762 25.7614 34.729 25.8722 34.3796 25.9744C34.0387 26.0767 33.6552 26.1662 33.229 26.2429C32.8029 26.3196 32.381 26.3878 31.9634 26.4474C31.5458 26.5071 31.1836 26.5582 30.8768 26.6009C30.1864 26.6946 29.5685 26.848 29.0231 27.0611C28.4776 27.2741 28.0472 27.5724 27.7319 27.956C27.4165 28.331 27.2589 28.8168 27.2589 29.4134C27.2589 30.2656 27.57 30.9091 28.1921 31.3438C28.8143 31.7784 29.6069 31.9957 30.57 31.9957ZM44.3896 42.3636V15.3636H48.9407V18.6108H49.2092C49.4478 18.1335 49.7844 17.6264 50.2191 17.0895C50.6538 16.544 51.2418 16.0795 51.9833 15.696C52.7248 15.304 53.6708 15.108 54.8214 15.108C56.3384 15.108 57.7063 15.4957 58.9251 16.2713C60.1523 17.0384 61.1239 18.1761 61.8398 19.6847C62.5643 21.1847 62.9265 23.0256 62.9265 25.2074C62.9265 27.3636 62.5728 29.196 61.8654 30.7045C61.158 32.2131 60.195 33.3636 58.9762 34.1562C57.7575 34.9489 56.3768 35.3452 54.8342 35.3452C53.7092 35.3452 52.7759 35.1577 52.0344 34.7827C51.293 34.4077 50.6964 33.956 50.2447 33.4276C49.8015 32.8906 49.4563 32.3835 49.2092 31.9062H49.0174V42.3636H44.3896ZM48.9279 25.1818C48.9279 26.4517 49.1069 27.5639 49.4648 28.5185C49.8313 29.473 50.3555 30.2187 51.0373 30.7557C51.7276 31.2841 52.5629 31.5483 53.543 31.5483C54.5657 31.5483 55.4222 31.2756 56.1126 30.7301C56.8029 30.1761 57.3228 29.4219 57.6722 28.4673C58.0302 27.5043 58.2092 26.4091 58.2092 25.1818C58.2092 23.9631 58.0344 22.8807 57.685 21.9347C57.3356 20.9886 56.8157 20.2472 56.1254 19.7102C55.435 19.1733 54.5742 18.9048 53.543 18.9048C52.5543 18.9048 51.7148 19.1648 51.0245 19.6847C50.3342 20.2045 49.81 20.9332 49.4521 21.8707C49.1026 22.8082 48.9279 23.9119 48.9279 25.1818ZM64.7259 19.1605V15.3636H81.9077V19.1605H75.554V35H71.0795V19.1605H64.7259ZM99.0799 23.2642V27.0611H88.6225V23.2642H99.0799ZM90.0543 15.3636V35H85.5927V15.3636H90.0543ZM102.11 15.3636V35H97.6609V15.3636H102.11ZM115.485 35.3835C113.516 35.3835 111.816 34.9744 110.384 34.1562C108.961 33.3295 107.866 32.1619 107.099 30.6534C106.332 29.1364 105.948 27.3509 105.948 25.2969C105.948 23.277 106.332 21.5043 107.099 19.9787C107.874 18.4446 108.957 17.2514 110.346 16.3991C111.735 15.5384 113.367 15.108 115.242 15.108C116.452 15.108 117.594 15.304 118.668 15.696C119.751 16.0795 120.705 16.6761 121.532 17.4858C122.367 18.2955 123.023 19.3267 123.501 20.5795C123.978 21.8239 124.217 23.3068 124.217 25.0284V26.4474H108.121V23.3281H119.781C119.772 22.4418 119.58 21.6534 119.205 20.9631C118.83 20.2642 118.306 19.7145 117.633 19.3139C116.968 18.9134 116.192 18.7131 115.306 18.7131C114.36 18.7131 113.529 18.9432 112.813 19.4034C112.097 19.8551 111.539 20.4517 111.138 21.1932C110.746 21.9261 110.546 22.7315 110.538 23.6094V26.3324C110.538 27.4744 110.746 28.4545 111.164 29.2727C111.582 30.0824 112.165 30.7045 112.915 31.1392C113.665 31.5653 114.543 31.7784 115.549 31.7784C116.222 31.7784 116.832 31.6847 117.377 31.4972C117.923 31.3011 118.396 31.0156 118.796 30.6406C119.197 30.2656 119.499 29.8011 119.704 29.2472L124.025 29.733C123.752 30.875 123.232 31.8722 122.465 32.7244C121.707 33.5682 120.735 34.2244 119.55 34.6932C118.366 35.1534 117.011 35.3835 115.485 35.3835ZM128.132 42.3636V15.3636H132.683V18.6108H132.951C133.19 18.1335 133.527 17.6264 133.961 17.0895C134.396 16.544 134.984 16.0795 135.725 15.696C136.467 15.304 137.413 15.108 138.564 15.108C140.081 15.108 141.449 15.4957 142.667 16.2713C143.895 17.0384 144.866 18.1761 145.582 19.6847C146.306 21.1847 146.669 23.0256 146.669 25.2074C146.669 27.3636 146.315 29.196 145.608 30.7045C144.9 32.2131 143.937 33.3636 142.718 34.1562C141.5 34.9489 140.119 35.3452 138.576 35.3452C137.451 35.3452 136.518 35.1577 135.777 34.7827C135.035 34.4077 134.439 33.956 133.987 33.4276C133.544 32.8906 133.199 32.3835 132.951 31.9062H132.76V42.3636H128.132ZM132.67 25.1818C132.67 26.4517 132.849 27.5639 133.207 28.5185C133.574 29.473 134.098 30.2187 134.779 30.7557C135.47 31.2841 136.305 31.5483 137.285 31.5483C138.308 31.5483 139.164 31.2756 139.855 30.7301C140.545 30.1761 141.065 29.4219 141.414 28.4673C141.772 27.5043 141.951 26.4091 141.951 25.1818C141.951 23.9631 141.777 22.8807 141.427 21.9347C141.078 20.9886 140.558 20.2472 139.868 19.7102C139.177 19.1733 138.316 18.9048 137.285 18.9048C136.297 18.9048 135.457 19.1648 134.767 19.6847C134.076 20.2045 133.552 20.9332 133.194 21.8707C132.845 22.8082 132.67 23.9119 132.67 25.1818ZM153.764 21.7557H159.555C162.061 21.7557 164 22.3651 165.372 23.5838C166.744 24.8026 167.434 26.4006 167.443 28.3778C167.434 29.6648 167.119 30.8068 166.497 31.804C165.883 32.8011 164.988 33.5852 163.812 34.1562C162.645 34.7188 161.225 35 159.555 35H150.632V15.3636H155.093V31.2031H159.555C160.561 31.2031 161.387 30.9474 162.035 30.4361C162.683 29.9162 163.007 29.2514 163.007 28.4418C163.007 27.5895 162.683 26.8949 162.035 26.358C161.387 25.821 160.561 25.5526 159.555 25.5526H153.764V21.7557ZM169.885 35V15.3636H174.512V35H169.885Z" fill="#DCE8FF"/>
<path d="M2.37784 35V15.3636H18.9588V35H14.4972V19.1605H6.80114V35H2.37784ZM29.3683 35.3963C28.1239 35.3963 27.0032 35.1747 26.006 34.7315C25.0174 34.2798 24.2333 33.6151 23.6538 32.7372C23.0827 31.8594 22.7972 30.777 22.7972 29.4901C22.7972 28.3821 23.0018 27.4659 23.4109 26.7415C23.82 26.017 24.3782 25.4375 25.0856 25.0028C25.793 24.5682 26.5898 24.2401 27.4762 24.0185C28.3711 23.7884 29.2958 23.6222 30.2504 23.5199C31.4009 23.4006 32.3342 23.294 33.0501 23.2003C33.766 23.098 34.2859 22.9446 34.6097 22.7401C34.9421 22.527 35.1083 22.1989 35.1083 21.7557V21.679C35.1083 20.7159 34.8228 19.9702 34.2518 19.4418C33.6808 18.9134 32.8583 18.6491 31.7844 18.6491C30.6509 18.6491 29.7518 18.8963 29.087 19.3906C28.4308 19.8849 27.9876 20.4687 27.7575 21.142L23.4364 20.5284C23.7773 19.3352 24.3398 18.3381 25.1239 17.5369C25.908 16.7273 26.8668 16.1222 28.0004 15.7216C29.1339 15.3125 30.3867 15.108 31.7589 15.108C32.7049 15.108 33.6467 15.2188 34.5842 15.4403C35.5217 15.6619 36.3782 16.0284 37.1538 16.5398C37.9293 17.0426 38.5515 17.7287 39.0202 18.598C39.4975 19.4673 39.7362 20.554 39.7362 21.858V35H35.2873V32.3026H35.1339C34.8526 32.848 34.4563 33.3594 33.945 33.8366C33.4421 34.3054 32.8072 34.6847 32.0401 34.9744C31.2816 35.2557 30.391 35.3963 29.3683 35.3963ZM30.57 31.9957C31.4989 31.9957 32.3043 31.8125 32.9862 31.446C33.668 31.071 34.1921 30.5767 34.5586 29.9631C34.9336 29.3494 35.1211 28.6804 35.1211 27.956V25.642C34.9762 25.7614 34.729 25.8722 34.3796 25.9744C34.0387 26.0767 33.6552 26.1662 33.229 26.2429C32.8029 26.3196 32.381 26.3878 31.9634 26.4474C31.5458 26.5071 31.1836 26.5582 30.8768 26.6009C30.1864 26.6946 29.5685 26.848 29.0231 27.0611C28.4776 27.2741 28.0472 27.5724 27.7319 27.956C27.4165 28.331 27.2589 28.8168 27.2589 29.4134C27.2589 30.2656 27.57 30.9091 28.1921 31.3438C28.8143 31.7784 29.6069 31.9957 30.57 31.9957ZM44.3896 42.3636V15.3636H48.9407V18.6108H49.2092C49.4478 18.1335 49.7844 17.6264 50.2191 17.0895C50.6538 16.544 51.2418 16.0795 51.9833 15.696C52.7248 15.304 53.6708 15.108 54.8214 15.108C56.3384 15.108 57.7063 15.4957 58.9251 16.2713C60.1523 17.0384 61.1239 18.1761 61.8398 19.6847C62.5643 21.1847 62.9265 23.0256 62.9265 25.2074C62.9265 27.3636 62.5728 29.196 61.8654 30.7045C61.158 32.2131 60.195 33.3636 58.9762 34.1562C57.7575 34.9489 56.3768 35.3452 54.8342 35.3452C53.7092 35.3452 52.7759 35.1577 52.0344 34.7827C51.293 34.4077 50.6964 33.956 50.2447 33.4276C49.8015 32.8906 49.4563 32.3835 49.2092 31.9062H49.0174V42.3636H44.3896ZM48.9279 25.1818C48.9279 26.4517 49.1069 27.5639 49.4648 28.5185C49.8313 29.473 50.3555 30.2187 51.0373 30.7557C51.7276 31.2841 52.5629 31.5483 53.543 31.5483C54.5657 31.5483 55.4222 31.2756 56.1126 30.7301C56.8029 30.1761 57.3228 29.4219 57.6722 28.4673C58.0302 27.5043 58.2092 26.4091 58.2092 25.1818C58.2092 23.9631 58.0344 22.8807 57.685 21.9347C57.3356 20.9886 56.8157 20.2472 56.1254 19.7102C55.435 19.1733 54.5742 18.9048 53.543 18.9048C52.5543 18.9048 51.7148 19.1648 51.0245 19.6847C50.3342 20.2045 49.81 20.9332 49.4521 21.8707C49.1026 22.8082 48.9279 23.9119 48.9279 25.1818ZM64.7259 19.1605V15.3636H81.9077V19.1605H75.554V35H71.0795V19.1605H64.7259ZM99.0799 23.2642V27.0611H88.6225V23.2642H99.0799ZM90.0543 15.3636V35H85.5927V15.3636H90.0543ZM102.11 15.3636V35H97.6609V15.3636H102.11ZM115.485 35.3835C113.516 35.3835 111.816 34.9744 110.384 34.1562C108.961 33.3295 107.866 32.1619 107.099 30.6534C106.332 29.1364 105.948 27.3509 105.948 25.2969C105.948 23.277 106.332 21.5043 107.099 19.9787C107.874 18.4446 108.957 17.2514 110.346 16.3991C111.735 15.5384 113.367 15.108 115.242 15.108C116.452 15.108 117.594 15.304 118.668 15.696C119.751 16.0795 120.705 16.6761 121.532 17.4858C122.367 18.2955 123.023 19.3267 123.501 20.5795C123.978 21.8239 124.217 23.3068 124.217 25.0284V26.4474H108.121V23.3281H119.781C119.772 22.4418 119.58 21.6534 119.205 20.9631C118.83 20.2642 118.306 19.7145 117.633 19.3139C116.968 18.9134 116.192 18.7131 115.306 18.7131C114.36 18.7131 113.529 18.9432 112.813 19.4034C112.097 19.8551 111.539 20.4517 111.138 21.1932C110.746 21.9261 110.546 22.7315 110.538 23.6094V26.3324C110.538 27.4744 110.746 28.4545 111.164 29.2727C111.582 30.0824 112.165 30.7045 112.915 31.1392C113.665 31.5653 114.543 31.7784 115.549 31.7784C116.222 31.7784 116.832 31.6847 117.377 31.4972C117.923 31.3011 118.396 31.0156 118.796 30.6406C119.197 30.2656 119.499 29.8011 119.704 29.2472L124.025 29.733C123.752 30.875 123.232 31.8722 122.465 32.7244C121.707 33.5682 120.735 34.2244 119.55 34.6932C118.366 35.1534 117.011 35.3835 115.485 35.3835ZM128.132 42.3636V15.3636H132.683V18.6108H132.951C133.19 18.1335 133.527 17.6264 133.961 17.0895C134.396 16.544 134.984 16.0795 135.725 15.696C136.467 15.304 137.413 15.108 138.564 15.108C140.081 15.108 141.449 15.4957 142.667 16.2713C143.895 17.0384 144.866 18.1761 145.582 19.6847C146.306 21.1847 146.669 23.0256 146.669 25.2074C146.669 27.3636 146.315 29.196 145.608 30.7045C144.9 32.2131 143.937 33.3636 142.718 34.1562C141.5 34.9489 140.119 35.3452 138.576 35.3452C137.451 35.3452 136.518 35.1577 135.777 34.7827C135.035 34.4077 134.439 33.956 133.987 33.4276C133.544 32.8906 133.199 32.3835 132.951 31.9062H132.76V42.3636H128.132ZM132.67 25.1818C132.67 26.4517 132.849 27.5639 133.207 28.5185C133.574 29.473 134.098 30.2187 134.779 30.7557C135.47 31.2841 136.305 31.5483 137.285 31.5483C138.308 31.5483 139.164 31.2756 139.855 30.7301C140.545 30.1761 141.065 29.4219 141.414 28.4673C141.772 27.5043 141.951 26.4091 141.951 25.1818C141.951 23.9631 141.777 22.8807 141.427 21.9347C141.078 20.9886 140.558 20.2472 139.868 19.7102C139.177 19.1733 138.316 18.9048 137.285 18.9048C136.297 18.9048 135.457 19.1648 134.767 19.6847C134.076 20.2045 133.552 20.9332 133.194 21.8707C132.845 22.8082 132.67 23.9119 132.67 25.1818ZM153.764 21.7557H159.555C162.061 21.7557 164 22.3651 165.372 23.5838C166.744 24.8026 167.434 26.4006 167.443 28.3778C167.434 29.6648 167.119 30.8068 166.497 31.804C165.883 32.8011 164.988 33.5852 163.812 34.1562C162.645 34.7188 161.225 35 159.555 35H150.632V15.3636H155.093V31.2031H159.555C160.561 31.2031 161.387 30.9474 162.035 30.4361C162.683 29.9162 163.007 29.2514 163.007 28.4418C163.007 27.5895 162.683 26.8949 162.035 26.358C161.387 25.821 160.561 25.5526 159.555 25.5526H153.764V21.7557ZM169.885 35V15.3636H174.512V35H169.885Z" fill="url(#paint0_linear_927_5630)"/>
<path d="M2.37784 35V15.3636H18.9588V35H14.4972V19.1605H6.80114V35H2.37784ZM29.3683 35.3963C28.1239 35.3963 27.0032 35.1747 26.006 34.7315C25.0174 34.2798 24.2333 33.6151 23.6538 32.7372C23.0827 31.8594 22.7972 30.777 22.7972 29.4901C22.7972 28.3821 23.0018 27.4659 23.4109 26.7415C23.82 26.017 24.3782 25.4375 25.0856 25.0028C25.793 24.5682 26.5898 24.2401 27.4762 24.0185C28.3711 23.7884 29.2958 23.6222 30.2504 23.5199C31.4009 23.4006 32.3342 23.294 33.0501 23.2003C33.766 23.098 34.2859 22.9446 34.6097 22.7401C34.9421 22.527 35.1083 22.1989 35.1083 21.7557V21.679C35.1083 20.7159 34.8228 19.9702 34.2518 19.4418C33.6808 18.9134 32.8583 18.6491 31.7844 18.6491C30.6509 18.6491 29.7518 18.8963 29.087 19.3906C28.4308 19.8849 27.9876 20.4687 27.7575 21.142L23.4364 20.5284C23.7773 19.3352 24.3398 18.3381 25.1239 17.5369C25.908 16.7273 26.8668 16.1222 28.0004 15.7216C29.1339 15.3125 30.3867 15.108 31.7589 15.108C32.7049 15.108 33.6467 15.2188 34.5842 15.4403C35.5217 15.6619 36.3782 16.0284 37.1538 16.5398C37.9293 17.0426 38.5515 17.7287 39.0202 18.598C39.4975 19.4673 39.7362 20.554 39.7362 21.858V35H35.2873V32.3026H35.1339C34.8526 32.848 34.4563 33.3594 33.945 33.8366C33.4421 34.3054 32.8072 34.6847 32.0401 34.9744C31.2816 35.2557 30.391 35.3963 29.3683 35.3963ZM30.57 31.9957C31.4989 31.9957 32.3043 31.8125 32.9862 31.446C33.668 31.071 34.1921 30.5767 34.5586 29.9631C34.9336 29.3494 35.1211 28.6804 35.1211 27.956V25.642C34.9762 25.7614 34.729 25.8722 34.3796 25.9744C34.0387 26.0767 33.6552 26.1662 33.229 26.2429C32.8029 26.3196 32.381 26.3878 31.9634 26.4474C31.5458 26.5071 31.1836 26.5582 30.8768 26.6009C30.1864 26.6946 29.5685 26.848 29.0231 27.0611C28.4776 27.2741 28.0472 27.5724 27.7319 27.956C27.4165 28.331 27.2589 28.8168 27.2589 29.4134C27.2589 30.2656 27.57 30.9091 28.1921 31.3438C28.8143 31.7784 29.6069 31.9957 30.57 31.9957ZM44.3896 42.3636V15.3636H48.9407V18.6108H49.2092C49.4478 18.1335 49.7844 17.6264 50.2191 17.0895C50.6538 16.544 51.2418 16.0795 51.9833 15.696C52.7248 15.304 53.6708 15.108 54.8214 15.108C56.3384 15.108 57.7063 15.4957 58.9251 16.2713C60.1523 17.0384 61.1239 18.1761 61.8398 19.6847C62.5643 21.1847 62.9265 23.0256 62.9265 25.2074C62.9265 27.3636 62.5728 29.196 61.8654 30.7045C61.158 32.2131 60.195 33.3636 58.9762 34.1562C57.7575 34.9489 56.3768 35.3452 54.8342 35.3452C53.7092 35.3452 52.7759 35.1577 52.0344 34.7827C51.293 34.4077 50.6964 33.956 50.2447 33.4276C49.8015 32.8906 49.4563 32.3835 49.2092 31.9062H49.0174V42.3636H44.3896ZM48.9279 25.1818C48.9279 26.4517 49.1069 27.5639 49.4648 28.5185C49.8313 29.473 50.3555 30.2187 51.0373 30.7557C51.7276 31.2841 52.5629 31.5483 53.543 31.5483C54.5657 31.5483 55.4222 31.2756 56.1126 30.7301C56.8029 30.1761 57.3228 29.4219 57.6722 28.4673C58.0302 27.5043 58.2092 26.4091 58.2092 25.1818C58.2092 23.9631 58.0344 22.8807 57.685 21.9347C57.3356 20.9886 56.8157 20.2472 56.1254 19.7102C55.435 19.1733 54.5742 18.9048 53.543 18.9048C52.5543 18.9048 51.7148 19.1648 51.0245 19.6847C50.3342 20.2045 49.81 20.9332 49.4521 21.8707C49.1026 22.8082 48.9279 23.9119 48.9279 25.1818ZM64.7259 19.1605V15.3636H81.9077V19.1605H75.554V35H71.0795V19.1605H64.7259ZM99.0799 23.2642V27.0611H88.6225V23.2642H99.0799ZM90.0543 15.3636V35H85.5927V15.3636H90.0543ZM102.11 15.3636V35H97.6609V15.3636H102.11ZM115.485 35.3835C113.516 35.3835 111.816 34.9744 110.384 34.1562C108.961 33.3295 107.866 32.1619 107.099 30.6534C106.332 29.1364 105.948 27.3509 105.948 25.2969C105.948 23.277 106.332 21.5043 107.099 19.9787C107.874 18.4446 108.957 17.2514 110.346 16.3991C111.735 15.5384 113.367 15.108 115.242 15.108C116.452 15.108 117.594 15.304 118.668 15.696C119.751 16.0795 120.705 16.6761 121.532 17.4858C122.367 18.2955 123.023 19.3267 123.501 20.5795C123.978 21.8239 124.217 23.3068 124.217 25.0284V26.4474H108.121V23.3281H119.781C119.772 22.4418 119.58 21.6534 119.205 20.9631C118.83 20.2642 118.306 19.7145 117.633 19.3139C116.968 18.9134 116.192 18.7131 115.306 18.7131C114.36 18.7131 113.529 18.9432 112.813 19.4034C112.097 19.8551 111.539 20.4517 111.138 21.1932C110.746 21.9261 110.546 22.7315 110.538 23.6094V26.3324C110.538 27.4744 110.746 28.4545 111.164 29.2727C111.582 30.0824 112.165 30.7045 112.915 31.1392C113.665 31.5653 114.543 31.7784 115.549 31.7784C116.222 31.7784 116.832 31.6847 117.377 31.4972C117.923 31.3011 118.396 31.0156 118.796 30.6406C119.197 30.2656 119.499 29.8011 119.704 29.2472L124.025 29.733C123.752 30.875 123.232 31.8722 122.465 32.7244C121.707 33.5682 120.735 34.2244 119.55 34.6932C118.366 35.1534 117.011 35.3835 115.485 35.3835ZM128.132 42.3636V15.3636H132.683V18.6108H132.951C133.19 18.1335 133.527 17.6264 133.961 17.0895C134.396 16.544 134.984 16.0795 135.725 15.696C136.467 15.304 137.413 15.108 138.564 15.108C140.081 15.108 141.449 15.4957 142.667 16.2713C143.895 17.0384 144.866 18.1761 145.582 19.6847C146.306 21.1847 146.669 23.0256 146.669 25.2074C146.669 27.3636 146.315 29.196 145.608 30.7045C144.9 32.2131 143.937 33.3636 142.718 34.1562C141.5 34.9489 140.119 35.3452 138.576 35.3452C137.451 35.3452 136.518 35.1577 135.777 34.7827C135.035 34.4077 134.439 33.956 133.987 33.4276C133.544 32.8906 133.199 32.3835 132.951 31.9062H132.76V42.3636H128.132ZM132.67 25.1818C132.67 26.4517 132.849 27.5639 133.207 28.5185C133.574 29.473 134.098 30.2187 134.779 30.7557C135.47 31.2841 136.305 31.5483 137.285 31.5483C138.308 31.5483 139.164 31.2756 139.855 30.7301C140.545 30.1761 141.065 29.4219 141.414 28.4673C141.772 27.5043 141.951 26.4091 141.951 25.1818C141.951 23.9631 141.777 22.8807 141.427 21.9347C141.078 20.9886 140.558 20.2472 139.868 19.7102C139.177 19.1733 138.316 18.9048 137.285 18.9048C136.297 18.9048 135.457 19.1648 134.767 19.6847C134.076 20.2045 133.552 20.9332 133.194 21.8707C132.845 22.8082 132.67 23.9119 132.67 25.1818ZM153.764 21.7557H159.555C162.061 21.7557 164 22.3651 165.372 23.5838C166.744 24.8026 167.434 26.4006 167.443 28.3778C167.434 29.6648 167.119 30.8068 166.497 31.804C165.883 32.8011 164.988 33.5852 163.812 34.1562C162.645 34.7188 161.225 35 159.555 35H150.632V15.3636H155.093V31.2031H159.555C160.561 31.2031 161.387 30.9474 162.035 30.4361C162.683 29.9162 163.007 29.2514 163.007 28.4418C163.007 27.5895 162.683 26.8949 162.035 26.358C161.387 25.821 160.561 25.5526 159.555 25.5526H153.764V21.7557ZM169.885 35V15.3636H174.512V35H169.885Z" fill="white" fill-opacity="0.3"/>
<defs>
<linearGradient id="paint0_linear_927_5630" x1="0" y1="21.5" x2="177" y2="21.5" gradientUnits="userSpaceOnUse">
<stop stop-color="#9747FF"/>
<stop offset="1" stop-color="#005FF9"/>
</linearGradient>
</defs>
</svg>
