<svg width="40" height="40" viewBox="0 0 40 40" fill="none" xmlns="http://www.w3.org/2000/svg">
<mask id="mask0_927_4435" style="mask-type:alpha" maskUnits="userSpaceOnUse" x="0" y="0" width="40" height="40">
<rect width="40" height="40" transform="matrix(-1 0 0 1 40 0)" fill="#D9D9D9"/>
</mask>
<g mask="url(#mask0_927_4435)">
<path d="M20.0321 35.8332C22.1924 35.8332 24.233 35.4171 26.1538 34.5848C28.0749 33.7526 29.7523 32.6196 31.1859 31.1857C32.6198 29.7521 33.7528 28.0721 34.585 26.1457C35.4173 24.2193 35.8334 22.1707 35.8334 19.9998C35.8334 17.8012 35.406 15.7387 34.5513 13.8123C33.6966 11.8859 32.5357 10.2103 31.0688 8.78525C29.6021 7.35998 27.8863 6.23387 25.9213 5.40692C23.9566 4.57998 21.861 4.1665 19.6346 4.1665C17.5513 4.1665 15.577 4.52178 13.7117 5.23234C11.8462 5.94289 10.2078 6.92637 8.79671 8.18275C7.38532 9.43914 6.26087 10.9322 5.42337 12.6619C4.5856 14.3914 4.16671 16.2668 4.16671 18.2882C4.16671 21.1729 5.02407 23.4293 6.73879 25.0573C8.45351 26.6857 10.6517 27.4998 13.3334 27.4998H16.3525C16.827 27.4998 17.2063 27.6547 17.4905 27.9644C17.7746 28.2744 17.9167 28.6409 17.9167 29.064C17.9167 29.579 17.7084 30.1143 17.2917 30.6698C16.875 31.2254 16.6667 31.8632 16.6667 32.5832C16.6667 33.6834 16.9712 34.5003 17.58 35.0336C18.1892 35.5666 19.0066 35.8332 20.0321 35.8332ZM29.1667 21.2498C28.5728 21.2498 28.0771 21.0511 27.6796 20.6536C27.2821 20.2561 27.0834 19.7604 27.0834 19.1665C27.0834 18.5726 27.2821 18.0769 27.6796 17.6794C28.0771 17.2819 28.5728 17.0832 29.1667 17.0832C29.7606 17.0832 30.2563 17.2819 30.6538 17.6794C31.0513 18.0769 31.25 18.5726 31.25 19.1665C31.25 19.7604 31.0513 20.2561 30.6538 20.6536C30.2563 21.0511 29.7606 21.2498 29.1667 21.2498ZM24.1667 14.5832C23.5728 14.5832 23.0771 14.3844 22.6796 13.9869C22.2821 13.5894 22.0834 13.0937 22.0834 12.4998C22.0834 11.9059 22.2821 11.4103 22.6796 11.0128C23.0771 10.6153 23.5728 10.4165 24.1667 10.4165C24.7606 10.4165 25.2563 10.6153 25.6538 11.0128C26.0513 11.4103 26.25 11.9059 26.25 12.4998C26.25 13.0937 26.0513 13.5894 25.6538 13.9869C25.2563 14.3844 24.7606 14.5832 24.1667 14.5832ZM15.8334 14.5832C15.2395 14.5832 14.7438 14.3844 14.3463 13.9869C13.9488 13.5894 13.75 13.0937 13.75 12.4998C13.75 11.9059 13.9488 11.4103 14.3463 11.0128C14.7438 10.6153 15.2395 10.4165 15.8334 10.4165C16.4273 10.4165 16.923 10.6153 17.3205 11.0128C17.718 11.4103 17.9167 11.9059 17.9167 12.4998C17.9167 13.0937 17.718 13.5894 17.3205 13.9869C16.923 14.3844 16.4273 14.5832 15.8334 14.5832ZM10.8334 21.2498C10.2395 21.2498 9.74379 21.0511 9.34629 20.6536C8.94879 20.2561 8.75004 19.7604 8.75004 19.1665C8.75004 18.5726 8.94879 18.0769 9.34629 17.6794C9.74379 17.2819 10.2395 17.0832 10.8334 17.0832C11.4273 17.0832 11.923 17.2819 12.3205 17.6794C12.718 18.0769 12.9167 18.5726 12.9167 19.1665C12.9167 19.7604 12.718 20.2561 12.3205 20.6536C11.923 21.0511 11.4273 21.2498 10.8334 21.2498ZM20.0321 33.3332C19.7607 33.3332 19.5487 33.2664 19.3959 33.1328C19.2431 32.9991 19.1667 32.816 19.1667 32.5832C19.1667 32.1943 19.375 31.7573 19.7917 31.2723C20.2084 30.7873 20.4167 30.0278 20.4167 28.9936C20.4167 27.8055 20.0139 26.8429 19.2084 26.1057C18.4028 25.3684 17.4167 24.9998 16.25 24.9998H13.3334C11.3717 24.9998 9.77018 24.4251 8.52879 23.2757C7.2874 22.1259 6.66671 20.4634 6.66671 18.2882C6.66671 14.9165 7.95949 12.1366 10.545 9.94859C13.1303 7.76053 16.1602 6.6665 19.6346 6.6665C23.4443 6.6665 26.6799 7.95817 29.3413 10.5415C32.0027 13.1248 33.3334 16.2776 33.3334 19.9998C33.3334 23.6943 32.0348 26.8401 29.4375 29.4373C26.8403 32.0346 23.7052 33.3332 20.0321 33.3332Z" fill="#1C1B1F"/>
<path d="M20.0321 35.8332C22.1924 35.8332 24.233 35.4171 26.1538 34.5848C28.0749 33.7526 29.7523 32.6196 31.1859 31.1857C32.6198 29.7521 33.7528 28.0721 34.585 26.1457C35.4173 24.2193 35.8334 22.1707 35.8334 19.9998C35.8334 17.8012 35.406 15.7387 34.5513 13.8123C33.6966 11.8859 32.5357 10.2103 31.0688 8.78525C29.6021 7.35998 27.8863 6.23387 25.9213 5.40692C23.9566 4.57998 21.861 4.1665 19.6346 4.1665C17.5513 4.1665 15.577 4.52178 13.7117 5.23234C11.8462 5.94289 10.2078 6.92637 8.79671 8.18275C7.38532 9.43914 6.26087 10.9322 5.42337 12.6619C4.5856 14.3914 4.16671 16.2668 4.16671 18.2882C4.16671 21.1729 5.02407 23.4293 6.73879 25.0573C8.45351 26.6857 10.6517 27.4998 13.3334 27.4998H16.3525C16.827 27.4998 17.2063 27.6547 17.4905 27.9644C17.7746 28.2744 17.9167 28.6409 17.9167 29.064C17.9167 29.579 17.7084 30.1143 17.2917 30.6698C16.875 31.2254 16.6667 31.8632 16.6667 32.5832C16.6667 33.6834 16.9712 34.5003 17.58 35.0336C18.1892 35.5666 19.0066 35.8332 20.0321 35.8332ZM29.1667 21.2498C28.5728 21.2498 28.0771 21.0511 27.6796 20.6536C27.2821 20.2561 27.0834 19.7604 27.0834 19.1665C27.0834 18.5726 27.2821 18.0769 27.6796 17.6794C28.0771 17.2819 28.5728 17.0832 29.1667 17.0832C29.7606 17.0832 30.2563 17.2819 30.6538 17.6794C31.0513 18.0769 31.25 18.5726 31.25 19.1665C31.25 19.7604 31.0513 20.2561 30.6538 20.6536C30.2563 21.0511 29.7606 21.2498 29.1667 21.2498ZM24.1667 14.5832C23.5728 14.5832 23.0771 14.3844 22.6796 13.9869C22.2821 13.5894 22.0834 13.0937 22.0834 12.4998C22.0834 11.9059 22.2821 11.4103 22.6796 11.0128C23.0771 10.6153 23.5728 10.4165 24.1667 10.4165C24.7606 10.4165 25.2563 10.6153 25.6538 11.0128C26.0513 11.4103 26.25 11.9059 26.25 12.4998C26.25 13.0937 26.0513 13.5894 25.6538 13.9869C25.2563 14.3844 24.7606 14.5832 24.1667 14.5832ZM15.8334 14.5832C15.2395 14.5832 14.7438 14.3844 14.3463 13.9869C13.9488 13.5894 13.75 13.0937 13.75 12.4998C13.75 11.9059 13.9488 11.4103 14.3463 11.0128C14.7438 10.6153 15.2395 10.4165 15.8334 10.4165C16.4273 10.4165 16.923 10.6153 17.3205 11.0128C17.718 11.4103 17.9167 11.9059 17.9167 12.4998C17.9167 13.0937 17.718 13.5894 17.3205 13.9869C16.923 14.3844 16.4273 14.5832 15.8334 14.5832ZM10.8334 21.2498C10.2395 21.2498 9.74379 21.0511 9.34629 20.6536C8.94879 20.2561 8.75004 19.7604 8.75004 19.1665C8.75004 18.5726 8.94879 18.0769 9.34629 17.6794C9.74379 17.2819 10.2395 17.0832 10.8334 17.0832C11.4273 17.0832 11.923 17.2819 12.3205 17.6794C12.718 18.0769 12.9167 18.5726 12.9167 19.1665C12.9167 19.7604 12.718 20.2561 12.3205 20.6536C11.923 21.0511 11.4273 21.2498 10.8334 21.2498ZM20.0321 33.3332C19.7607 33.3332 19.5487 33.2664 19.3959 33.1328C19.2431 32.9991 19.1667 32.816 19.1667 32.5832C19.1667 32.1943 19.375 31.7573 19.7917 31.2723C20.2084 30.7873 20.4167 30.0278 20.4167 28.9936C20.4167 27.8055 20.0139 26.8429 19.2084 26.1057C18.4028 25.3684 17.4167 24.9998 16.25 24.9998H13.3334C11.3717 24.9998 9.77018 24.4251 8.52879 23.2757C7.2874 22.1259 6.66671 20.4634 6.66671 18.2882C6.66671 14.9165 7.95949 12.1366 10.545 9.94859C13.1303 7.76053 16.1602 6.6665 19.6346 6.6665C23.4443 6.6665 26.6799 7.95817 29.3413 10.5415C32.0027 13.1248 33.3334 16.2776 33.3334 19.9998C33.3334 23.6943 32.0348 26.8401 29.4375 29.4373C26.8403 32.0346 23.7052 33.3332 20.0321 33.3332Z" fill="url(#paint0_linear_927_4435)"/>
<path d="M20.0321 35.8332C22.1924 35.8332 24.233 35.4171 26.1538 34.5848C28.0749 33.7526 29.7523 32.6196 31.1859 31.1857C32.6198 29.7521 33.7528 28.0721 34.585 26.1457C35.4173 24.2193 35.8334 22.1707 35.8334 19.9998C35.8334 17.8012 35.406 15.7387 34.5513 13.8123C33.6966 11.8859 32.5357 10.2103 31.0688 8.78525C29.6021 7.35998 27.8863 6.23387 25.9213 5.40692C23.9566 4.57998 21.861 4.1665 19.6346 4.1665C17.5513 4.1665 15.577 4.52178 13.7117 5.23234C11.8462 5.94289 10.2078 6.92637 8.79671 8.18275C7.38532 9.43914 6.26087 10.9322 5.42337 12.6619C4.5856 14.3914 4.16671 16.2668 4.16671 18.2882C4.16671 21.1729 5.02407 23.4293 6.73879 25.0573C8.45351 26.6857 10.6517 27.4998 13.3334 27.4998H16.3525C16.827 27.4998 17.2063 27.6547 17.4905 27.9644C17.7746 28.2744 17.9167 28.6409 17.9167 29.064C17.9167 29.579 17.7084 30.1143 17.2917 30.6698C16.875 31.2254 16.6667 31.8632 16.6667 32.5832C16.6667 33.6834 16.9712 34.5003 17.58 35.0336C18.1892 35.5666 19.0066 35.8332 20.0321 35.8332ZM29.1667 21.2498C28.5728 21.2498 28.0771 21.0511 27.6796 20.6536C27.2821 20.2561 27.0834 19.7604 27.0834 19.1665C27.0834 18.5726 27.2821 18.0769 27.6796 17.6794C28.0771 17.2819 28.5728 17.0832 29.1667 17.0832C29.7606 17.0832 30.2563 17.2819 30.6538 17.6794C31.0513 18.0769 31.25 18.5726 31.25 19.1665C31.25 19.7604 31.0513 20.2561 30.6538 20.6536C30.2563 21.0511 29.7606 21.2498 29.1667 21.2498ZM24.1667 14.5832C23.5728 14.5832 23.0771 14.3844 22.6796 13.9869C22.2821 13.5894 22.0834 13.0937 22.0834 12.4998C22.0834 11.9059 22.2821 11.4103 22.6796 11.0128C23.0771 10.6153 23.5728 10.4165 24.1667 10.4165C24.7606 10.4165 25.2563 10.6153 25.6538 11.0128C26.0513 11.4103 26.25 11.9059 26.25 12.4998C26.25 13.0937 26.0513 13.5894 25.6538 13.9869C25.2563 14.3844 24.7606 14.5832 24.1667 14.5832ZM15.8334 14.5832C15.2395 14.5832 14.7438 14.3844 14.3463 13.9869C13.9488 13.5894 13.75 13.0937 13.75 12.4998C13.75 11.9059 13.9488 11.4103 14.3463 11.0128C14.7438 10.6153 15.2395 10.4165 15.8334 10.4165C16.4273 10.4165 16.923 10.6153 17.3205 11.0128C17.718 11.4103 17.9167 11.9059 17.9167 12.4998C17.9167 13.0937 17.718 13.5894 17.3205 13.9869C16.923 14.3844 16.4273 14.5832 15.8334 14.5832ZM10.8334 21.2498C10.2395 21.2498 9.74379 21.0511 9.34629 20.6536C8.94879 20.2561 8.75004 19.7604 8.75004 19.1665C8.75004 18.5726 8.94879 18.0769 9.34629 17.6794C9.74379 17.2819 10.2395 17.0832 10.8334 17.0832C11.4273 17.0832 11.923 17.2819 12.3205 17.6794C12.718 18.0769 12.9167 18.5726 12.9167 19.1665C12.9167 19.7604 12.718 20.2561 12.3205 20.6536C11.923 21.0511 11.4273 21.2498 10.8334 21.2498ZM20.0321 33.3332C19.7607 33.3332 19.5487 33.2664 19.3959 33.1328C19.2431 32.9991 19.1667 32.816 19.1667 32.5832C19.1667 32.1943 19.375 31.7573 19.7917 31.2723C20.2084 30.7873 20.4167 30.0278 20.4167 28.9936C20.4167 27.8055 20.0139 26.8429 19.2084 26.1057C18.4028 25.3684 17.4167 24.9998 16.25 24.9998H13.3334C11.3717 24.9998 9.77018 24.4251 8.52879 23.2757C7.2874 22.1259 6.66671 20.4634 6.66671 18.2882C6.66671 14.9165 7.95949 12.1366 10.545 9.94859C13.1303 7.76053 16.1602 6.6665 19.6346 6.6665C23.4443 6.6665 26.6799 7.95817 29.3413 10.5415C32.0027 13.1248 33.3334 16.2776 33.3334 19.9998C33.3334 23.6943 32.0348 26.8401 29.4375 29.4373C26.8403 32.0346 23.7052 33.3332 20.0321 33.3332Z" fill="white" fill-opacity="0.3"/>
</g>
<defs>
<linearGradient id="paint0_linear_927_4435" x1="35.8334" y1="19.9998" x2="4.16671" y2="19.9998" gradientUnits="userSpaceOnUse">
<stop stop-color="#9747FF"/>
<stop offset="1" stop-color="#005FF9"/>
</linearGradient>
</defs>
</svg>
