<svg width="169" height="14" viewBox="0 0 169 14" fill="none" xmlns="http://www.w3.org/2000/svg">
<path d="M6.34868 0.298406V1.62085H1.53618V10.4802H-4.43608e-05V0.298406H6.34868ZM10.1445 10.6343C9.39212 10.6343 8.74416 10.4736 8.20059 10.1521C7.66035 9.82729 7.24273 9.37156 6.94775 8.78491C6.65609 8.19495 6.51025 7.5039 6.51025 6.71176C6.51025 5.92956 6.65609 5.24017 6.94775 4.64358C7.24273 4.04699 7.65372 3.58131 8.18071 3.24656C8.71101 2.91181 9.3308 2.74443 10.0401 2.74443C10.471 2.74443 10.8886 2.81569 11.2929 2.95821C11.6973 3.10073 12.0602 3.32445 12.3817 3.62937C12.7032 3.9343 12.9568 4.33037 13.1424 4.81758C13.328 5.30148 13.4208 5.88979 13.4208 6.5825V7.10949H7.35045V5.99585H11.9641C11.9641 5.60475 11.8845 5.2584 11.7255 4.95679C11.5664 4.65186 11.3426 4.41157 11.0543 4.23591C10.7693 4.06024 10.4345 3.97241 10.05 3.97241C9.63241 3.97241 9.26783 4.07516 8.95628 4.28065C8.64804 4.48283 8.4094 4.74798 8.24037 5.07611C8.07465 5.40092 7.99179 5.7539 7.99179 6.13505V7.00508C7.99179 7.5155 8.08128 7.94968 8.26025 8.30764C8.44255 8.66559 8.6961 8.93903 9.02091 9.12795C9.34572 9.31356 9.72522 9.40636 10.1594 9.40636C10.4411 9.40636 10.698 9.36659 10.93 9.28704C11.162 9.20418 11.3625 9.08155 11.5316 8.91914C11.7006 8.75674 11.8299 8.55622 11.9193 8.31758L13.3263 8.57113C13.2136 8.98543 13.0114 9.34836 12.7198 9.65991C12.4314 9.96815 12.0685 10.2084 11.631 10.3808C11.1968 10.5498 10.7013 10.6343 10.1445 10.6343ZM20.2455 6.02071V7.30835H16.1092V6.02071H20.2455ZM16.5268 2.84386V10.4802H15.0701V2.84386H16.5268ZM21.2846 2.84386V10.4802H19.8329V2.84386H21.2846ZM26.5644 10.6343C25.812 10.6343 25.1641 10.4736 24.6205 10.1521C24.0803 9.82729 23.6627 9.37156 23.3677 8.78491C23.076 8.19495 22.9302 7.5039 22.9302 6.71176C22.9302 5.92956 23.076 5.24017 23.3677 4.64358C23.6627 4.04699 24.0736 3.58131 24.6006 3.24656C25.1309 2.91181 25.7507 2.74443 26.46 2.74443C26.8909 2.74443 27.3085 2.81569 27.7128 2.95821C28.1172 3.10073 28.4801 3.32445 28.8016 3.62937C29.1231 3.9343 29.3767 4.33037 29.5623 4.81758C29.7479 5.30148 29.8407 5.88979 29.8407 6.5825V7.10949H23.7704V5.99585H28.384C28.384 5.60475 28.3045 5.2584 28.1454 4.95679C27.9863 4.65186 27.7626 4.41157 27.4742 4.23591C27.1892 4.06024 26.8544 3.97241 26.4699 3.97241C26.0523 3.97241 25.6878 4.07516 25.3762 4.28065C25.068 4.48283 24.8293 4.74798 24.6603 5.07611C24.4946 5.40092 24.4117 5.7539 24.4117 6.13505V7.00508C24.4117 7.5155 24.5012 7.94968 24.6802 8.30764C24.8625 8.66559 25.116 8.93903 25.4408 9.12795C25.7656 9.31356 26.1451 9.40636 26.5793 9.40636C26.861 9.40636 27.1179 9.36659 27.3499 9.28704C27.5819 9.20418 27.7824 9.08155 27.9515 8.91914C28.1205 8.75674 28.2498 8.55622 28.3393 8.31758L29.7462 8.57113C29.6335 8.98543 29.4314 9.34836 29.1397 9.65991C28.8513 9.96815 28.4884 10.2084 28.0509 10.3808C27.6167 10.5498 27.1212 10.6343 26.5644 10.6343ZM31.49 13.3439V2.84386H32.9417V4.08179H33.066C33.1522 3.9227 33.2765 3.73875 33.4389 3.52994C33.6013 3.32113 33.8267 3.13884 34.115 2.98307C34.4034 2.82397 34.7845 2.74443 35.2585 2.74443C35.875 2.74443 36.4251 2.90021 36.909 3.21176C37.3929 3.52331 37.7724 3.97241 38.0475 4.55906C38.326 5.14571 38.4652 5.85167 38.4652 6.67696C38.4652 7.50224 38.3276 8.20986 38.0525 8.79983C37.7774 9.38647 37.3996 9.83889 36.919 10.1571C36.4384 10.4719 35.8899 10.6294 35.2734 10.6294C34.8094 10.6294 34.4299 10.5515 34.1349 10.3957C33.8432 10.2399 33.6145 10.0576 33.4488 9.84883C33.2831 9.64003 33.1555 9.45442 33.066 9.29201H32.9765V13.3439H31.49ZM32.9467 6.66204C32.9467 7.19897 33.0246 7.66962 33.1804 8.07397C33.3361 8.47833 33.5615 8.79486 33.8565 9.02355C34.1515 9.24893 34.5127 9.36162 34.9403 9.36162C35.3844 9.36162 35.7556 9.24396 36.0539 9.00863C36.3522 8.77 36.5776 8.44684 36.7301 8.03917C36.8858 7.6315 36.9637 7.17246 36.9637 6.66204C36.9637 6.15825 36.8875 5.70584 36.735 5.3048C36.5859 4.90376 36.3605 4.58723 36.0589 4.35522C35.7606 4.12322 35.3877 4.00721 34.9403 4.00721C34.5094 4.00721 34.1448 4.11825 33.8465 4.34031C33.5516 4.56237 33.3278 4.87227 33.1754 5.27C33.0229 5.66772 32.9467 6.13174 32.9467 6.66204ZM42.3529 10.6493C41.869 10.6493 41.4315 10.5598 41.0404 10.3808C40.6493 10.1985 40.3394 9.93501 40.1108 9.59031C39.8854 9.24561 39.7727 8.82303 39.7727 8.32255C39.7727 7.89168 39.8555 7.53704 40.0213 7.25863C40.187 6.98022 40.4107 6.75982 40.6924 6.59741C40.9742 6.43501 41.289 6.31237 41.637 6.22951C41.985 6.14665 42.3397 6.08368 42.7009 6.04059C43.1583 5.98756 43.5295 5.94448 43.8146 5.91133C44.0996 5.87487 44.3068 5.81687 44.436 5.73733C44.5653 5.65778 44.6299 5.52852 44.6299 5.34954V5.31474C44.6299 4.88056 44.5073 4.54414 44.262 4.30551C44.0201 4.06687 43.6588 3.94755 43.1782 3.94755C42.6777 3.94755 42.2833 4.05859 41.995 4.28065C41.7099 4.4994 41.5127 4.74301 41.4034 5.01147L40.0063 4.69329C40.1721 4.22928 40.414 3.85475 40.7322 3.56971C41.0537 3.28136 41.4233 3.07255 41.8409 2.94329C42.2585 2.81072 42.6976 2.74443 43.1583 2.74443C43.4633 2.74443 43.7864 2.78089 44.1278 2.8538C44.4725 2.92341 44.794 3.05267 45.0923 3.24159C45.3939 3.43051 45.6408 3.70063 45.8331 4.05196C46.0253 4.39997 46.1214 4.85238 46.1214 5.4092V10.4802H44.6697V9.43619H44.61C44.5139 9.62843 44.3697 9.81735 44.1775 10.003C43.9853 10.1886 43.7384 10.3427 43.4367 10.4653C43.1351 10.5879 42.7739 10.6493 42.3529 10.6493ZM42.6761 9.45608C43.0871 9.45608 43.4384 9.37487 43.7301 9.21247C44.0251 9.05006 44.2488 8.83794 44.4012 8.57611C44.557 8.31095 44.6349 8.02757 44.6349 7.72596V6.74159C44.5819 6.79462 44.4791 6.84433 44.3267 6.89074C44.1775 6.93382 44.0068 6.97194 43.8146 7.00508C43.6224 7.03491 43.4351 7.06308 43.2528 7.0896C43.0705 7.1128 42.918 7.13269 42.7954 7.14926C42.5071 7.18572 42.2436 7.24703 42.0049 7.33321C41.7696 7.41938 41.5807 7.54367 41.4382 7.70608C41.299 7.86517 41.2294 8.07729 41.2294 8.34244C41.2294 8.71034 41.3652 8.98875 41.637 9.17767C41.9088 9.36327 42.2552 9.45608 42.6761 9.45608ZM54.3307 2.84386V9.26218H55.4494V12.9412H53.9827V10.4802H48.1013V2.84386H49.558V9.19755H52.879V2.84386H54.3307ZM58.5541 8.39713L61.9199 2.84386H63.5207V10.4802H62.0641V4.92199L58.7132 10.4802H57.0974V2.84386H58.5541V8.39713ZM70.0733 10.4802V4.11162H68.2437C67.8096 4.11162 67.4715 4.21271 67.2295 4.41488C66.9876 4.61706 66.8666 4.88221 66.8666 5.21034C66.8666 5.53515 66.9776 5.79699 67.1997 5.99585C67.4251 6.1914 67.74 6.28917 68.1443 6.28917H70.5058V7.4923H68.1443C67.5809 7.4923 67.0936 7.3995 66.6827 7.21389C66.275 7.02497 65.9601 6.75816 65.7381 6.41346C65.5193 6.06877 65.4099 5.6611 65.4099 5.19045C65.4099 4.70986 65.5226 4.29557 65.748 3.94755C65.9767 3.59623 66.3032 3.32445 66.7274 3.13221C67.155 2.93998 67.6604 2.84386 68.2437 2.84386H71.4703V10.4802H70.0733ZM65.0619 10.4802L67.2146 6.62227H68.7359L66.5832 10.4802H65.0619ZM78.6108 8.39713L81.9765 2.84386H83.5774V10.4802H82.1207V4.92199L78.7698 10.4802H77.1541V2.84386H78.6108V8.39713ZM85.1235 8.46176H86.6448C86.6647 8.77331 86.8056 9.01361 87.0674 9.18264C87.3326 9.35167 87.6756 9.43619 88.0965 9.43619C88.5241 9.43619 88.8887 9.34504 89.1903 9.16275C89.4919 8.97715 89.6427 8.69045 89.6427 8.30267C89.6427 8.07066 89.5847 7.86848 89.4687 7.69613C89.356 7.52047 89.1953 7.38458 88.9865 7.28846C88.781 7.19235 88.5374 7.14429 88.2556 7.14429H87.0127V5.97596H88.2556C88.6766 5.97596 88.9914 5.87985 89.2002 5.68761C89.409 5.49538 89.5134 5.25508 89.5134 4.96673C89.5134 4.65518 89.4008 4.40494 89.1754 4.21602C88.9533 4.02379 88.6434 3.92767 88.2457 3.92767C87.8413 3.92767 87.5049 4.01881 87.2365 4.20111C86.968 4.38008 86.8271 4.61209 86.8139 4.89713H85.3125C85.3224 4.46957 85.4517 4.09504 85.7002 3.77355C85.9521 3.44874 86.2902 3.19684 86.7144 3.01787C87.142 2.83558 87.6276 2.74443 88.1711 2.74443C88.7379 2.74443 89.2284 2.83558 89.6427 3.01787C90.057 3.20016 90.3768 3.45205 90.6022 3.77355C90.8309 4.09504 90.9453 4.4646 90.9453 4.88221C90.9453 5.30314 90.8193 5.64784 90.5674 5.9163C90.3188 6.18146 89.994 6.37203 89.593 6.48804V6.56758C89.888 6.58747 90.1498 6.67696 90.3785 6.83605C90.6072 6.99514 90.7862 7.2056 90.9154 7.46744C91.0447 7.72928 91.1093 8.02592 91.1093 8.35736C91.1093 8.82468 90.9801 9.22904 90.7215 9.57042C90.4663 9.91181 90.1117 10.1753 89.6576 10.3609C89.2069 10.5432 88.6915 10.6343 88.1115 10.6343C87.548 10.6343 87.0426 10.5465 86.5951 10.3708C86.151 10.1919 85.798 9.93998 85.5362 9.61517C85.2777 9.29036 85.1401 8.90589 85.1235 8.46176ZM95.8609 10.6343C95.145 10.6343 94.5203 10.4703 93.9866 10.1422C93.453 9.81403 93.0387 9.35499 92.7437 8.76503C92.4488 8.17506 92.3013 7.48567 92.3013 6.69684C92.3013 5.9047 92.4488 5.212 92.7437 4.61872C93.0387 4.02544 93.453 3.56474 93.9866 3.23662C94.5203 2.90849 95.145 2.74443 95.8609 2.74443C96.5768 2.74443 97.2016 2.90849 97.7352 3.23662C98.2688 3.56474 98.6831 4.02544 98.9781 4.61872C99.2731 5.212 99.4206 5.9047 99.4206 6.69684C99.4206 7.48567 99.2731 8.17506 98.9781 8.76503C98.6831 9.35499 98.2688 9.81403 97.7352 10.1422C97.2016 10.4703 96.5768 10.6343 95.8609 10.6343ZM95.8659 9.38647C96.3299 9.38647 96.7144 9.26384 97.0193 9.01858C97.3242 8.77331 97.5496 8.44684 97.6954 8.03917C97.8446 7.6315 97.9192 7.1824 97.9192 6.69187C97.9192 6.20466 97.8446 5.75721 97.6954 5.34954C97.5496 4.93856 97.3242 4.60878 97.0193 4.3602C96.7144 4.11162 96.3299 3.98733 95.8659 3.98733C95.3986 3.98733 95.0108 4.11162 94.7025 4.3602C94.3976 4.60878 94.1706 4.93856 94.0214 5.34954C93.8756 5.75721 93.8027 6.20466 93.8027 6.69187C93.8027 7.1824 93.8756 7.6315 94.0214 8.03917C94.1706 8.44684 94.3976 8.77331 94.7025 9.01858C95.0108 9.26384 95.3986 9.38647 95.8659 9.38647ZM106.971 0.000110745L107.588 0.939742C107.359 1.14855 107.099 1.2977 106.807 1.38718C106.519 1.47336 106.186 1.52805 105.808 1.55125C105.43 1.57113 104.997 1.58936 104.51 1.60593C103.96 1.62251 103.508 1.74182 103.153 1.96389C102.798 2.18264 102.525 2.50745 102.333 2.93832C102.144 3.36588 102.021 3.90281 101.965 4.54912H102.059C102.308 4.07516 102.653 3.72052 103.093 3.4852C103.537 3.24987 104.036 3.13221 104.59 3.13221C105.206 3.13221 105.755 3.27307 106.235 3.5548C106.716 3.83652 107.094 4.24916 107.369 4.79272C107.647 5.33297 107.787 5.99419 107.787 6.77639C107.787 7.56853 107.641 8.25295 107.349 8.82966C107.061 9.40636 106.653 9.85215 106.126 10.167C105.602 10.4786 104.984 10.6343 104.272 10.6343C103.559 10.6343 102.938 10.4736 102.407 10.1521C101.88 9.82729 101.471 9.3467 101.179 8.71034C100.891 8.07397 100.747 7.28846 100.747 6.3538V5.59812C100.747 3.85144 101.058 2.53728 101.681 1.65565C102.305 0.774022 103.236 0.321607 104.475 0.298406C104.876 0.288463 105.234 0.286806 105.549 0.293434C105.864 0.296749 106.139 0.281834 106.375 0.24869C106.613 0.212232 106.812 0.129372 106.971 0.000110745ZM104.277 9.38647C104.691 9.38647 105.047 9.28207 105.345 9.07326C105.647 8.86114 105.879 8.56119 106.042 8.17341C106.204 7.78562 106.285 7.32824 106.285 6.80125C106.285 6.2842 106.204 5.84504 106.042 5.48378C105.879 5.12251 105.647 4.84741 105.345 4.65849C105.044 4.46626 104.683 4.37014 104.262 4.37014C103.95 4.37014 103.672 4.42483 103.426 4.5342C103.181 4.64026 102.971 4.7977 102.795 5.0065C102.623 5.21531 102.488 5.47052 102.392 5.77213C102.3 6.07042 102.25 6.41346 102.243 6.80125C102.243 7.59007 102.424 8.21815 102.785 8.68548C103.15 9.15281 103.647 9.38647 104.277 9.38647ZM109.447 13.3439V2.84386H110.899V4.08179H111.023C111.109 3.9227 111.234 3.73875 111.396 3.52994C111.558 3.32113 111.784 3.13884 112.072 2.98307C112.36 2.82397 112.742 2.74443 113.216 2.74443C113.832 2.74443 114.382 2.90021 114.866 3.21176C115.35 3.52331 115.729 3.97241 116.005 4.55906C116.283 5.14571 116.422 5.85167 116.422 6.67696C116.422 7.50224 116.285 8.20986 116.01 8.79983C115.734 9.38647 115.357 9.83889 114.876 10.1571C114.395 10.4719 113.847 10.6294 113.23 10.6294C112.766 10.6294 112.387 10.5515 112.092 10.3957C111.8 10.2399 111.572 10.0576 111.406 9.84883C111.24 9.64003 111.113 9.45442 111.023 9.29201H110.934V13.3439H109.447ZM110.904 6.66204C110.904 7.19897 110.982 7.66962 111.137 8.07397C111.293 8.47833 111.519 8.79486 111.814 9.02355C112.109 9.24893 112.47 9.36162 112.897 9.36162C113.341 9.36162 113.713 9.24396 114.011 9.00863C114.309 8.77 114.535 8.44684 114.687 8.03917C114.843 7.6315 114.921 7.17246 114.921 6.66204C114.921 6.15825 114.845 5.70584 114.692 5.3048C114.543 4.90376 114.318 4.58723 114.016 4.35522C113.718 4.12322 113.345 4.00721 112.897 4.00721C112.466 4.00721 112.102 4.11825 111.804 4.34031C111.509 4.56237 111.285 4.87227 111.132 5.27C110.98 5.66772 110.904 6.13174 110.904 6.66204ZM120.31 10.6493C119.826 10.6493 119.389 10.5598 118.997 10.3808C118.606 10.1985 118.296 9.93501 118.068 9.59031C117.842 9.24561 117.73 8.82303 117.73 8.32255C117.73 7.89168 117.813 7.53704 117.978 7.25863C118.144 6.98022 118.368 6.75982 118.649 6.59741C118.931 6.43501 119.246 6.31237 119.594 6.22951C119.942 6.14665 120.297 6.08368 120.658 6.04059C121.115 5.98756 121.487 5.94448 121.772 5.91133C122.057 5.87487 122.264 5.81687 122.393 5.73733C122.522 5.65778 122.587 5.52852 122.587 5.34954V5.31474C122.587 4.88056 122.464 4.54414 122.219 4.30551C121.977 4.06687 121.616 3.94755 121.135 3.94755C120.635 3.94755 120.24 4.05859 119.952 4.28065C119.667 4.4994 119.47 4.74301 119.36 5.01147L117.963 4.69329C118.129 4.22928 118.371 3.85475 118.689 3.56971C119.011 3.28136 119.38 3.07255 119.798 2.94329C120.216 2.81072 120.655 2.74443 121.115 2.74443C121.42 2.74443 121.743 2.78089 122.085 2.8538C122.43 2.92341 122.751 3.05267 123.049 3.24159C123.351 3.43051 123.598 3.70063 123.79 4.05196C123.982 4.39997 124.078 4.85238 124.078 5.4092V10.4802H122.627V9.43619H122.567C122.471 9.62843 122.327 9.81735 122.135 10.003C121.942 10.1886 121.695 10.3427 121.394 10.4653C121.092 10.5879 120.731 10.6493 120.31 10.6493ZM120.633 9.45608C121.044 9.45608 121.395 9.37487 121.687 9.21247C121.982 9.05006 122.206 8.83794 122.358 8.57611C122.514 8.31095 122.592 8.02757 122.592 7.72596V6.74159C122.539 6.79462 122.436 6.84433 122.284 6.89074C122.135 6.93382 121.964 6.97194 121.772 7.00508C121.579 7.03491 121.392 7.06308 121.21 7.0896C121.028 7.1128 120.875 7.13269 120.752 7.14926C120.464 7.18572 120.201 7.24703 119.962 7.33321C119.727 7.41938 119.538 7.54367 119.395 7.70608C119.256 7.86517 119.186 8.07729 119.186 8.34244C119.186 8.71034 119.322 8.98875 119.594 9.17767C119.866 9.36327 120.212 9.45608 120.633 9.45608ZM125.571 10.4802L128.529 6.57255L125.606 2.84386H127.336L129.698 6.01574H130.23V2.84386H131.716V6.01574H132.233L134.595 2.84386H136.325L133.416 6.57255L136.36 10.4802H134.595L132.213 7.29841H131.716V10.4802H130.23V7.29841H129.732L127.336 10.4802H125.571ZM140.861 10.6343C140.109 10.6343 139.461 10.4736 138.917 10.1521C138.377 9.82729 137.96 9.37156 137.665 8.78491C137.373 8.19495 137.227 7.5039 137.227 6.71176C137.227 5.92956 137.373 5.24017 137.665 4.64358C137.96 4.04699 138.371 3.58131 138.898 3.24656C139.428 2.91181 140.048 2.74443 140.757 2.74443C141.188 2.74443 141.605 2.81569 142.01 2.95821C142.414 3.10073 142.777 3.32445 143.098 3.62937C143.42 3.9343 143.674 4.33037 143.859 4.81758C144.045 5.30148 144.138 5.88979 144.138 6.5825V7.10949H138.067V5.99585H142.681C142.681 5.60475 142.601 5.2584 142.442 4.95679C142.283 4.65186 142.059 4.41157 141.771 4.23591C141.486 4.06024 141.151 3.97241 140.767 3.97241C140.349 3.97241 139.985 4.07516 139.673 4.28065C139.365 4.48283 139.126 4.74798 138.957 5.07611C138.791 5.40092 138.709 5.7539 138.709 6.13505V7.00508C138.709 7.5155 138.798 7.94968 138.977 8.30764C139.159 8.66559 139.413 8.93903 139.738 9.12795C140.063 9.31356 140.442 9.40636 140.876 9.40636C141.158 9.40636 141.415 9.36659 141.647 9.28704C141.879 9.20418 142.079 9.08155 142.248 8.91914C142.417 8.75674 142.547 8.55622 142.636 8.31758L144.043 8.57113C143.93 8.98543 143.728 9.34836 143.437 9.65991C143.148 9.96815 142.785 10.2084 142.348 10.3808C141.914 10.5498 141.418 10.6343 140.861 10.6343ZM150.962 6.02071V7.30835H146.826V6.02071H150.962ZM147.244 2.84386V10.4802H145.787V2.84386H147.244ZM152.001 2.84386V10.4802H150.55V2.84386H152.001ZM155.447 8.39713L158.812 2.84386H160.413V10.4802H158.957V4.92199L155.606 10.4802H153.99V2.84386H155.447V8.39713ZM163.869 8.39713L167.234 2.84386H168.835V10.4802H167.379V4.92199L164.028 10.4802H162.412V2.84386H163.869V8.39713ZM166.598 0.258633H167.821C167.821 0.818766 167.622 1.2745 167.224 1.62582C166.83 1.97383 166.296 2.14784 165.624 2.14784C164.954 2.14784 164.422 1.97383 164.028 1.62582C163.633 1.2745 163.436 0.818766 163.436 0.258633H164.654C164.654 0.507213 164.727 0.72762 164.873 0.919855C165.019 1.10878 165.269 1.20324 165.624 1.20324C165.972 1.20324 166.22 1.10878 166.369 0.919855C166.522 0.730935 166.598 0.510527 166.598 0.258633Z" fill="#DCE8FF"/>
<path d="M6.34868 0.298406V1.62085H1.53618V10.4802H-4.43608e-05V0.298406H6.34868ZM10.1445 10.6343C9.39212 10.6343 8.74416 10.4736 8.20059 10.1521C7.66035 9.82729 7.24273 9.37156 6.94775 8.78491C6.65609 8.19495 6.51025 7.5039 6.51025 6.71176C6.51025 5.92956 6.65609 5.24017 6.94775 4.64358C7.24273 4.04699 7.65372 3.58131 8.18071 3.24656C8.71101 2.91181 9.3308 2.74443 10.0401 2.74443C10.471 2.74443 10.8886 2.81569 11.2929 2.95821C11.6973 3.10073 12.0602 3.32445 12.3817 3.62937C12.7032 3.9343 12.9568 4.33037 13.1424 4.81758C13.328 5.30148 13.4208 5.88979 13.4208 6.5825V7.10949H7.35045V5.99585H11.9641C11.9641 5.60475 11.8845 5.2584 11.7255 4.95679C11.5664 4.65186 11.3426 4.41157 11.0543 4.23591C10.7693 4.06024 10.4345 3.97241 10.05 3.97241C9.63241 3.97241 9.26783 4.07516 8.95628 4.28065C8.64804 4.48283 8.4094 4.74798 8.24037 5.07611C8.07465 5.40092 7.99179 5.7539 7.99179 6.13505V7.00508C7.99179 7.5155 8.08128 7.94968 8.26025 8.30764C8.44255 8.66559 8.6961 8.93903 9.02091 9.12795C9.34572 9.31356 9.72522 9.40636 10.1594 9.40636C10.4411 9.40636 10.698 9.36659 10.93 9.28704C11.162 9.20418 11.3625 9.08155 11.5316 8.91914C11.7006 8.75674 11.8299 8.55622 11.9193 8.31758L13.3263 8.57113C13.2136 8.98543 13.0114 9.34836 12.7198 9.65991C12.4314 9.96815 12.0685 10.2084 11.631 10.3808C11.1968 10.5498 10.7013 10.6343 10.1445 10.6343ZM20.2455 6.02071V7.30835H16.1092V6.02071H20.2455ZM16.5268 2.84386V10.4802H15.0701V2.84386H16.5268ZM21.2846 2.84386V10.4802H19.8329V2.84386H21.2846ZM26.5644 10.6343C25.812 10.6343 25.1641 10.4736 24.6205 10.1521C24.0803 9.82729 23.6627 9.37156 23.3677 8.78491C23.076 8.19495 22.9302 7.5039 22.9302 6.71176C22.9302 5.92956 23.076 5.24017 23.3677 4.64358C23.6627 4.04699 24.0736 3.58131 24.6006 3.24656C25.1309 2.91181 25.7507 2.74443 26.46 2.74443C26.8909 2.74443 27.3085 2.81569 27.7128 2.95821C28.1172 3.10073 28.4801 3.32445 28.8016 3.62937C29.1231 3.9343 29.3767 4.33037 29.5623 4.81758C29.7479 5.30148 29.8407 5.88979 29.8407 6.5825V7.10949H23.7704V5.99585H28.384C28.384 5.60475 28.3045 5.2584 28.1454 4.95679C27.9863 4.65186 27.7626 4.41157 27.4742 4.23591C27.1892 4.06024 26.8544 3.97241 26.4699 3.97241C26.0523 3.97241 25.6878 4.07516 25.3762 4.28065C25.068 4.48283 24.8293 4.74798 24.6603 5.07611C24.4946 5.40092 24.4117 5.7539 24.4117 6.13505V7.00508C24.4117 7.5155 24.5012 7.94968 24.6802 8.30764C24.8625 8.66559 25.116 8.93903 25.4408 9.12795C25.7656 9.31356 26.1451 9.40636 26.5793 9.40636C26.861 9.40636 27.1179 9.36659 27.3499 9.28704C27.5819 9.20418 27.7824 9.08155 27.9515 8.91914C28.1205 8.75674 28.2498 8.55622 28.3393 8.31758L29.7462 8.57113C29.6335 8.98543 29.4314 9.34836 29.1397 9.65991C28.8513 9.96815 28.4884 10.2084 28.0509 10.3808C27.6167 10.5498 27.1212 10.6343 26.5644 10.6343ZM31.49 13.3439V2.84386H32.9417V4.08179H33.066C33.1522 3.9227 33.2765 3.73875 33.4389 3.52994C33.6013 3.32113 33.8267 3.13884 34.115 2.98307C34.4034 2.82397 34.7845 2.74443 35.2585 2.74443C35.875 2.74443 36.4251 2.90021 36.909 3.21176C37.3929 3.52331 37.7724 3.97241 38.0475 4.55906C38.326 5.14571 38.4652 5.85167 38.4652 6.67696C38.4652 7.50224 38.3276 8.20986 38.0525 8.79983C37.7774 9.38647 37.3996 9.83889 36.919 10.1571C36.4384 10.4719 35.8899 10.6294 35.2734 10.6294C34.8094 10.6294 34.4299 10.5515 34.1349 10.3957C33.8432 10.2399 33.6145 10.0576 33.4488 9.84883C33.2831 9.64003 33.1555 9.45442 33.066 9.29201H32.9765V13.3439H31.49ZM32.9467 6.66204C32.9467 7.19897 33.0246 7.66962 33.1804 8.07397C33.3361 8.47833 33.5615 8.79486 33.8565 9.02355C34.1515 9.24893 34.5127 9.36162 34.9403 9.36162C35.3844 9.36162 35.7556 9.24396 36.0539 9.00863C36.3522 8.77 36.5776 8.44684 36.7301 8.03917C36.8858 7.6315 36.9637 7.17246 36.9637 6.66204C36.9637 6.15825 36.8875 5.70584 36.735 5.3048C36.5859 4.90376 36.3605 4.58723 36.0589 4.35522C35.7606 4.12322 35.3877 4.00721 34.9403 4.00721C34.5094 4.00721 34.1448 4.11825 33.8465 4.34031C33.5516 4.56237 33.3278 4.87227 33.1754 5.27C33.0229 5.66772 32.9467 6.13174 32.9467 6.66204ZM42.3529 10.6493C41.869 10.6493 41.4315 10.5598 41.0404 10.3808C40.6493 10.1985 40.3394 9.93501 40.1108 9.59031C39.8854 9.24561 39.7727 8.82303 39.7727 8.32255C39.7727 7.89168 39.8555 7.53704 40.0213 7.25863C40.187 6.98022 40.4107 6.75982 40.6924 6.59741C40.9742 6.43501 41.289 6.31237 41.637 6.22951C41.985 6.14665 42.3397 6.08368 42.7009 6.04059C43.1583 5.98756 43.5295 5.94448 43.8146 5.91133C44.0996 5.87487 44.3068 5.81687 44.436 5.73733C44.5653 5.65778 44.6299 5.52852 44.6299 5.34954V5.31474C44.6299 4.88056 44.5073 4.54414 44.262 4.30551C44.0201 4.06687 43.6588 3.94755 43.1782 3.94755C42.6777 3.94755 42.2833 4.05859 41.995 4.28065C41.7099 4.4994 41.5127 4.74301 41.4034 5.01147L40.0063 4.69329C40.1721 4.22928 40.414 3.85475 40.7322 3.56971C41.0537 3.28136 41.4233 3.07255 41.8409 2.94329C42.2585 2.81072 42.6976 2.74443 43.1583 2.74443C43.4633 2.74443 43.7864 2.78089 44.1278 2.8538C44.4725 2.92341 44.794 3.05267 45.0923 3.24159C45.3939 3.43051 45.6408 3.70063 45.8331 4.05196C46.0253 4.39997 46.1214 4.85238 46.1214 5.4092V10.4802H44.6697V9.43619H44.61C44.5139 9.62843 44.3697 9.81735 44.1775 10.003C43.9853 10.1886 43.7384 10.3427 43.4367 10.4653C43.1351 10.5879 42.7739 10.6493 42.3529 10.6493ZM42.6761 9.45608C43.0871 9.45608 43.4384 9.37487 43.7301 9.21247C44.0251 9.05006 44.2488 8.83794 44.4012 8.57611C44.557 8.31095 44.6349 8.02757 44.6349 7.72596V6.74159C44.5819 6.79462 44.4791 6.84433 44.3267 6.89074C44.1775 6.93382 44.0068 6.97194 43.8146 7.00508C43.6224 7.03491 43.4351 7.06308 43.2528 7.0896C43.0705 7.1128 42.918 7.13269 42.7954 7.14926C42.5071 7.18572 42.2436 7.24703 42.0049 7.33321C41.7696 7.41938 41.5807 7.54367 41.4382 7.70608C41.299 7.86517 41.2294 8.07729 41.2294 8.34244C41.2294 8.71034 41.3652 8.98875 41.637 9.17767C41.9088 9.36327 42.2552 9.45608 42.6761 9.45608ZM54.3307 2.84386V9.26218H55.4494V12.9412H53.9827V10.4802H48.1013V2.84386H49.558V9.19755H52.879V2.84386H54.3307ZM58.5541 8.39713L61.9199 2.84386H63.5207V10.4802H62.0641V4.92199L58.7132 10.4802H57.0974V2.84386H58.5541V8.39713ZM70.0733 10.4802V4.11162H68.2437C67.8096 4.11162 67.4715 4.21271 67.2295 4.41488C66.9876 4.61706 66.8666 4.88221 66.8666 5.21034C66.8666 5.53515 66.9776 5.79699 67.1997 5.99585C67.4251 6.1914 67.74 6.28917 68.1443 6.28917H70.5058V7.4923H68.1443C67.5809 7.4923 67.0936 7.3995 66.6827 7.21389C66.275 7.02497 65.9601 6.75816 65.7381 6.41346C65.5193 6.06877 65.4099 5.6611 65.4099 5.19045C65.4099 4.70986 65.5226 4.29557 65.748 3.94755C65.9767 3.59623 66.3032 3.32445 66.7274 3.13221C67.155 2.93998 67.6604 2.84386 68.2437 2.84386H71.4703V10.4802H70.0733ZM65.0619 10.4802L67.2146 6.62227H68.7359L66.5832 10.4802H65.0619ZM78.6108 8.39713L81.9765 2.84386H83.5774V10.4802H82.1207V4.92199L78.7698 10.4802H77.1541V2.84386H78.6108V8.39713ZM85.1235 8.46176H86.6448C86.6647 8.77331 86.8056 9.01361 87.0674 9.18264C87.3326 9.35167 87.6756 9.43619 88.0965 9.43619C88.5241 9.43619 88.8887 9.34504 89.1903 9.16275C89.4919 8.97715 89.6427 8.69045 89.6427 8.30267C89.6427 8.07066 89.5847 7.86848 89.4687 7.69613C89.356 7.52047 89.1953 7.38458 88.9865 7.28846C88.781 7.19235 88.5374 7.14429 88.2556 7.14429H87.0127V5.97596H88.2556C88.6766 5.97596 88.9914 5.87985 89.2002 5.68761C89.409 5.49538 89.5134 5.25508 89.5134 4.96673C89.5134 4.65518 89.4008 4.40494 89.1754 4.21602C88.9533 4.02379 88.6434 3.92767 88.2457 3.92767C87.8413 3.92767 87.5049 4.01881 87.2365 4.20111C86.968 4.38008 86.8271 4.61209 86.8139 4.89713H85.3125C85.3224 4.46957 85.4517 4.09504 85.7002 3.77355C85.9521 3.44874 86.2902 3.19684 86.7144 3.01787C87.142 2.83558 87.6276 2.74443 88.1711 2.74443C88.7379 2.74443 89.2284 2.83558 89.6427 3.01787C90.057 3.20016 90.3768 3.45205 90.6022 3.77355C90.8309 4.09504 90.9453 4.4646 90.9453 4.88221C90.9453 5.30314 90.8193 5.64784 90.5674 5.9163C90.3188 6.18146 89.994 6.37203 89.593 6.48804V6.56758C89.888 6.58747 90.1498 6.67696 90.3785 6.83605C90.6072 6.99514 90.7862 7.2056 90.9154 7.46744C91.0447 7.72928 91.1093 8.02592 91.1093 8.35736C91.1093 8.82468 90.9801 9.22904 90.7215 9.57042C90.4663 9.91181 90.1117 10.1753 89.6576 10.3609C89.2069 10.5432 88.6915 10.6343 88.1115 10.6343C87.548 10.6343 87.0426 10.5465 86.5951 10.3708C86.151 10.1919 85.798 9.93998 85.5362 9.61517C85.2777 9.29036 85.1401 8.90589 85.1235 8.46176ZM95.8609 10.6343C95.145 10.6343 94.5203 10.4703 93.9866 10.1422C93.453 9.81403 93.0387 9.35499 92.7437 8.76503C92.4488 8.17506 92.3013 7.48567 92.3013 6.69684C92.3013 5.9047 92.4488 5.212 92.7437 4.61872C93.0387 4.02544 93.453 3.56474 93.9866 3.23662C94.5203 2.90849 95.145 2.74443 95.8609 2.74443C96.5768 2.74443 97.2016 2.90849 97.7352 3.23662C98.2688 3.56474 98.6831 4.02544 98.9781 4.61872C99.2731 5.212 99.4206 5.9047 99.4206 6.69684C99.4206 7.48567 99.2731 8.17506 98.9781 8.76503C98.6831 9.35499 98.2688 9.81403 97.7352 10.1422C97.2016 10.4703 96.5768 10.6343 95.8609 10.6343ZM95.8659 9.38647C96.3299 9.38647 96.7144 9.26384 97.0193 9.01858C97.3242 8.77331 97.5496 8.44684 97.6954 8.03917C97.8446 7.6315 97.9192 7.1824 97.9192 6.69187C97.9192 6.20466 97.8446 5.75721 97.6954 5.34954C97.5496 4.93856 97.3242 4.60878 97.0193 4.3602C96.7144 4.11162 96.3299 3.98733 95.8659 3.98733C95.3986 3.98733 95.0108 4.11162 94.7025 4.3602C94.3976 4.60878 94.1706 4.93856 94.0214 5.34954C93.8756 5.75721 93.8027 6.20466 93.8027 6.69187C93.8027 7.1824 93.8756 7.6315 94.0214 8.03917C94.1706 8.44684 94.3976 8.77331 94.7025 9.01858C95.0108 9.26384 95.3986 9.38647 95.8659 9.38647ZM106.971 0.000110745L107.588 0.939742C107.359 1.14855 107.099 1.2977 106.807 1.38718C106.519 1.47336 106.186 1.52805 105.808 1.55125C105.43 1.57113 104.997 1.58936 104.51 1.60593C103.96 1.62251 103.508 1.74182 103.153 1.96389C102.798 2.18264 102.525 2.50745 102.333 2.93832C102.144 3.36588 102.021 3.90281 101.965 4.54912H102.059C102.308 4.07516 102.653 3.72052 103.093 3.4852C103.537 3.24987 104.036 3.13221 104.59 3.13221C105.206 3.13221 105.755 3.27307 106.235 3.5548C106.716 3.83652 107.094 4.24916 107.369 4.79272C107.647 5.33297 107.787 5.99419 107.787 6.77639C107.787 7.56853 107.641 8.25295 107.349 8.82966C107.061 9.40636 106.653 9.85215 106.126 10.167C105.602 10.4786 104.984 10.6343 104.272 10.6343C103.559 10.6343 102.938 10.4736 102.407 10.1521C101.88 9.82729 101.471 9.3467 101.179 8.71034C100.891 8.07397 100.747 7.28846 100.747 6.3538V5.59812C100.747 3.85144 101.058 2.53728 101.681 1.65565C102.305 0.774022 103.236 0.321607 104.475 0.298406C104.876 0.288463 105.234 0.286806 105.549 0.293434C105.864 0.296749 106.139 0.281834 106.375 0.24869C106.613 0.212232 106.812 0.129372 106.971 0.000110745ZM104.277 9.38647C104.691 9.38647 105.047 9.28207 105.345 9.07326C105.647 8.86114 105.879 8.56119 106.042 8.17341C106.204 7.78562 106.285 7.32824 106.285 6.80125C106.285 6.2842 106.204 5.84504 106.042 5.48378C105.879 5.12251 105.647 4.84741 105.345 4.65849C105.044 4.46626 104.683 4.37014 104.262 4.37014C103.95 4.37014 103.672 4.42483 103.426 4.5342C103.181 4.64026 102.971 4.7977 102.795 5.0065C102.623 5.21531 102.488 5.47052 102.392 5.77213C102.3 6.07042 102.25 6.41346 102.243 6.80125C102.243 7.59007 102.424 8.21815 102.785 8.68548C103.15 9.15281 103.647 9.38647 104.277 9.38647ZM109.447 13.3439V2.84386H110.899V4.08179H111.023C111.109 3.9227 111.234 3.73875 111.396 3.52994C111.558 3.32113 111.784 3.13884 112.072 2.98307C112.36 2.82397 112.742 2.74443 113.216 2.74443C113.832 2.74443 114.382 2.90021 114.866 3.21176C115.35 3.52331 115.729 3.97241 116.005 4.55906C116.283 5.14571 116.422 5.85167 116.422 6.67696C116.422 7.50224 116.285 8.20986 116.01 8.79983C115.734 9.38647 115.357 9.83889 114.876 10.1571C114.395 10.4719 113.847 10.6294 113.23 10.6294C112.766 10.6294 112.387 10.5515 112.092 10.3957C111.8 10.2399 111.572 10.0576 111.406 9.84883C111.24 9.64003 111.113 9.45442 111.023 9.29201H110.934V13.3439H109.447ZM110.904 6.66204C110.904 7.19897 110.982 7.66962 111.137 8.07397C111.293 8.47833 111.519 8.79486 111.814 9.02355C112.109 9.24893 112.47 9.36162 112.897 9.36162C113.341 9.36162 113.713 9.24396 114.011 9.00863C114.309 8.77 114.535 8.44684 114.687 8.03917C114.843 7.6315 114.921 7.17246 114.921 6.66204C114.921 6.15825 114.845 5.70584 114.692 5.3048C114.543 4.90376 114.318 4.58723 114.016 4.35522C113.718 4.12322 113.345 4.00721 112.897 4.00721C112.466 4.00721 112.102 4.11825 111.804 4.34031C111.509 4.56237 111.285 4.87227 111.132 5.27C110.98 5.66772 110.904 6.13174 110.904 6.66204ZM120.31 10.6493C119.826 10.6493 119.389 10.5598 118.997 10.3808C118.606 10.1985 118.296 9.93501 118.068 9.59031C117.842 9.24561 117.73 8.82303 117.73 8.32255C117.73 7.89168 117.813 7.53704 117.978 7.25863C118.144 6.98022 118.368 6.75982 118.649 6.59741C118.931 6.43501 119.246 6.31237 119.594 6.22951C119.942 6.14665 120.297 6.08368 120.658 6.04059C121.115 5.98756 121.487 5.94448 121.772 5.91133C122.057 5.87487 122.264 5.81687 122.393 5.73733C122.522 5.65778 122.587 5.52852 122.587 5.34954V5.31474C122.587 4.88056 122.464 4.54414 122.219 4.30551C121.977 4.06687 121.616 3.94755 121.135 3.94755C120.635 3.94755 120.24 4.05859 119.952 4.28065C119.667 4.4994 119.47 4.74301 119.36 5.01147L117.963 4.69329C118.129 4.22928 118.371 3.85475 118.689 3.56971C119.011 3.28136 119.38 3.07255 119.798 2.94329C120.216 2.81072 120.655 2.74443 121.115 2.74443C121.42 2.74443 121.743 2.78089 122.085 2.8538C122.43 2.92341 122.751 3.05267 123.049 3.24159C123.351 3.43051 123.598 3.70063 123.79 4.05196C123.982 4.39997 124.078 4.85238 124.078 5.4092V10.4802H122.627V9.43619H122.567C122.471 9.62843 122.327 9.81735 122.135 10.003C121.942 10.1886 121.695 10.3427 121.394 10.4653C121.092 10.5879 120.731 10.6493 120.31 10.6493ZM120.633 9.45608C121.044 9.45608 121.395 9.37487 121.687 9.21247C121.982 9.05006 122.206 8.83794 122.358 8.57611C122.514 8.31095 122.592 8.02757 122.592 7.72596V6.74159C122.539 6.79462 122.436 6.84433 122.284 6.89074C122.135 6.93382 121.964 6.97194 121.772 7.00508C121.579 7.03491 121.392 7.06308 121.21 7.0896C121.028 7.1128 120.875 7.13269 120.752 7.14926C120.464 7.18572 120.201 7.24703 119.962 7.33321C119.727 7.41938 119.538 7.54367 119.395 7.70608C119.256 7.86517 119.186 8.07729 119.186 8.34244C119.186 8.71034 119.322 8.98875 119.594 9.17767C119.866 9.36327 120.212 9.45608 120.633 9.45608ZM125.571 10.4802L128.529 6.57255L125.606 2.84386H127.336L129.698 6.01574H130.23V2.84386H131.716V6.01574H132.233L134.595 2.84386H136.325L133.416 6.57255L136.36 10.4802H134.595L132.213 7.29841H131.716V10.4802H130.23V7.29841H129.732L127.336 10.4802H125.571ZM140.861 10.6343C140.109 10.6343 139.461 10.4736 138.917 10.1521C138.377 9.82729 137.96 9.37156 137.665 8.78491C137.373 8.19495 137.227 7.5039 137.227 6.71176C137.227 5.92956 137.373 5.24017 137.665 4.64358C137.96 4.04699 138.371 3.58131 138.898 3.24656C139.428 2.91181 140.048 2.74443 140.757 2.74443C141.188 2.74443 141.605 2.81569 142.01 2.95821C142.414 3.10073 142.777 3.32445 143.098 3.62937C143.42 3.9343 143.674 4.33037 143.859 4.81758C144.045 5.30148 144.138 5.88979 144.138 6.5825V7.10949H138.067V5.99585H142.681C142.681 5.60475 142.601 5.2584 142.442 4.95679C142.283 4.65186 142.059 4.41157 141.771 4.23591C141.486 4.06024 141.151 3.97241 140.767 3.97241C140.349 3.97241 139.985 4.07516 139.673 4.28065C139.365 4.48283 139.126 4.74798 138.957 5.07611C138.791 5.40092 138.709 5.7539 138.709 6.13505V7.00508C138.709 7.5155 138.798 7.94968 138.977 8.30764C139.159 8.66559 139.413 8.93903 139.738 9.12795C140.063 9.31356 140.442 9.40636 140.876 9.40636C141.158 9.40636 141.415 9.36659 141.647 9.28704C141.879 9.20418 142.079 9.08155 142.248 8.91914C142.417 8.75674 142.547 8.55622 142.636 8.31758L144.043 8.57113C143.93 8.98543 143.728 9.34836 143.437 9.65991C143.148 9.96815 142.785 10.2084 142.348 10.3808C141.914 10.5498 141.418 10.6343 140.861 10.6343ZM150.962 6.02071V7.30835H146.826V6.02071H150.962ZM147.244 2.84386V10.4802H145.787V2.84386H147.244ZM152.001 2.84386V10.4802H150.55V2.84386H152.001ZM155.447 8.39713L158.812 2.84386H160.413V10.4802H158.957V4.92199L155.606 10.4802H153.99V2.84386H155.447V8.39713ZM163.869 8.39713L167.234 2.84386H168.835V10.4802H167.379V4.92199L164.028 10.4802H162.412V2.84386H163.869V8.39713ZM166.598 0.258633H167.821C167.821 0.818766 167.622 1.2745 167.224 1.62582C166.83 1.97383 166.296 2.14784 165.624 2.14784C164.954 2.14784 164.422 1.97383 164.028 1.62582C163.633 1.2745 163.436 0.818766 163.436 0.258633H164.654C164.654 0.507213 164.727 0.72762 164.873 0.919855C165.019 1.10878 165.269 1.20324 165.624 1.20324C165.972 1.20324 166.22 1.10878 166.369 0.919855C166.522 0.730935 166.598 0.510527 166.598 0.258633Z" fill="url(#paint0_linear_924_4389)"/>
<path d="M6.34868 0.298406V1.62085H1.53618V10.4802H-4.43608e-05V0.298406H6.34868ZM10.1445 10.6343C9.39212 10.6343 8.74416 10.4736 8.20059 10.1521C7.66035 9.82729 7.24273 9.37156 6.94775 8.78491C6.65609 8.19495 6.51025 7.5039 6.51025 6.71176C6.51025 5.92956 6.65609 5.24017 6.94775 4.64358C7.24273 4.04699 7.65372 3.58131 8.18071 3.24656C8.71101 2.91181 9.3308 2.74443 10.0401 2.74443C10.471 2.74443 10.8886 2.81569 11.2929 2.95821C11.6973 3.10073 12.0602 3.32445 12.3817 3.62937C12.7032 3.9343 12.9568 4.33037 13.1424 4.81758C13.328 5.30148 13.4208 5.88979 13.4208 6.5825V7.10949H7.35045V5.99585H11.9641C11.9641 5.60475 11.8845 5.2584 11.7255 4.95679C11.5664 4.65186 11.3426 4.41157 11.0543 4.23591C10.7693 4.06024 10.4345 3.97241 10.05 3.97241C9.63241 3.97241 9.26783 4.07516 8.95628 4.28065C8.64804 4.48283 8.4094 4.74798 8.24037 5.07611C8.07465 5.40092 7.99179 5.7539 7.99179 6.13505V7.00508C7.99179 7.5155 8.08128 7.94968 8.26025 8.30764C8.44255 8.66559 8.6961 8.93903 9.02091 9.12795C9.34572 9.31356 9.72522 9.40636 10.1594 9.40636C10.4411 9.40636 10.698 9.36659 10.93 9.28704C11.162 9.20418 11.3625 9.08155 11.5316 8.91914C11.7006 8.75674 11.8299 8.55622 11.9193 8.31758L13.3263 8.57113C13.2136 8.98543 13.0114 9.34836 12.7198 9.65991C12.4314 9.96815 12.0685 10.2084 11.631 10.3808C11.1968 10.5498 10.7013 10.6343 10.1445 10.6343ZM20.2455 6.02071V7.30835H16.1092V6.02071H20.2455ZM16.5268 2.84386V10.4802H15.0701V2.84386H16.5268ZM21.2846 2.84386V10.4802H19.8329V2.84386H21.2846ZM26.5644 10.6343C25.812 10.6343 25.1641 10.4736 24.6205 10.1521C24.0803 9.82729 23.6627 9.37156 23.3677 8.78491C23.076 8.19495 22.9302 7.5039 22.9302 6.71176C22.9302 5.92956 23.076 5.24017 23.3677 4.64358C23.6627 4.04699 24.0736 3.58131 24.6006 3.24656C25.1309 2.91181 25.7507 2.74443 26.46 2.74443C26.8909 2.74443 27.3085 2.81569 27.7128 2.95821C28.1172 3.10073 28.4801 3.32445 28.8016 3.62937C29.1231 3.9343 29.3767 4.33037 29.5623 4.81758C29.7479 5.30148 29.8407 5.88979 29.8407 6.5825V7.10949H23.7704V5.99585H28.384C28.384 5.60475 28.3045 5.2584 28.1454 4.95679C27.9863 4.65186 27.7626 4.41157 27.4742 4.23591C27.1892 4.06024 26.8544 3.97241 26.4699 3.97241C26.0523 3.97241 25.6878 4.07516 25.3762 4.28065C25.068 4.48283 24.8293 4.74798 24.6603 5.07611C24.4946 5.40092 24.4117 5.7539 24.4117 6.13505V7.00508C24.4117 7.5155 24.5012 7.94968 24.6802 8.30764C24.8625 8.66559 25.116 8.93903 25.4408 9.12795C25.7656 9.31356 26.1451 9.40636 26.5793 9.40636C26.861 9.40636 27.1179 9.36659 27.3499 9.28704C27.5819 9.20418 27.7824 9.08155 27.9515 8.91914C28.1205 8.75674 28.2498 8.55622 28.3393 8.31758L29.7462 8.57113C29.6335 8.98543 29.4314 9.34836 29.1397 9.65991C28.8513 9.96815 28.4884 10.2084 28.0509 10.3808C27.6167 10.5498 27.1212 10.6343 26.5644 10.6343ZM31.49 13.3439V2.84386H32.9417V4.08179H33.066C33.1522 3.9227 33.2765 3.73875 33.4389 3.52994C33.6013 3.32113 33.8267 3.13884 34.115 2.98307C34.4034 2.82397 34.7845 2.74443 35.2585 2.74443C35.875 2.74443 36.4251 2.90021 36.909 3.21176C37.3929 3.52331 37.7724 3.97241 38.0475 4.55906C38.326 5.14571 38.4652 5.85167 38.4652 6.67696C38.4652 7.50224 38.3276 8.20986 38.0525 8.79983C37.7774 9.38647 37.3996 9.83889 36.919 10.1571C36.4384 10.4719 35.8899 10.6294 35.2734 10.6294C34.8094 10.6294 34.4299 10.5515 34.1349 10.3957C33.8432 10.2399 33.6145 10.0576 33.4488 9.84883C33.2831 9.64003 33.1555 9.45442 33.066 9.29201H32.9765V13.3439H31.49ZM32.9467 6.66204C32.9467 7.19897 33.0246 7.66962 33.1804 8.07397C33.3361 8.47833 33.5615 8.79486 33.8565 9.02355C34.1515 9.24893 34.5127 9.36162 34.9403 9.36162C35.3844 9.36162 35.7556 9.24396 36.0539 9.00863C36.3522 8.77 36.5776 8.44684 36.7301 8.03917C36.8858 7.6315 36.9637 7.17246 36.9637 6.66204C36.9637 6.15825 36.8875 5.70584 36.735 5.3048C36.5859 4.90376 36.3605 4.58723 36.0589 4.35522C35.7606 4.12322 35.3877 4.00721 34.9403 4.00721C34.5094 4.00721 34.1448 4.11825 33.8465 4.34031C33.5516 4.56237 33.3278 4.87227 33.1754 5.27C33.0229 5.66772 32.9467 6.13174 32.9467 6.66204ZM42.3529 10.6493C41.869 10.6493 41.4315 10.5598 41.0404 10.3808C40.6493 10.1985 40.3394 9.93501 40.1108 9.59031C39.8854 9.24561 39.7727 8.82303 39.7727 8.32255C39.7727 7.89168 39.8555 7.53704 40.0213 7.25863C40.187 6.98022 40.4107 6.75982 40.6924 6.59741C40.9742 6.43501 41.289 6.31237 41.637 6.22951C41.985 6.14665 42.3397 6.08368 42.7009 6.04059C43.1583 5.98756 43.5295 5.94448 43.8146 5.91133C44.0996 5.87487 44.3068 5.81687 44.436 5.73733C44.5653 5.65778 44.6299 5.52852 44.6299 5.34954V5.31474C44.6299 4.88056 44.5073 4.54414 44.262 4.30551C44.0201 4.06687 43.6588 3.94755 43.1782 3.94755C42.6777 3.94755 42.2833 4.05859 41.995 4.28065C41.7099 4.4994 41.5127 4.74301 41.4034 5.01147L40.0063 4.69329C40.1721 4.22928 40.414 3.85475 40.7322 3.56971C41.0537 3.28136 41.4233 3.07255 41.8409 2.94329C42.2585 2.81072 42.6976 2.74443 43.1583 2.74443C43.4633 2.74443 43.7864 2.78089 44.1278 2.8538C44.4725 2.92341 44.794 3.05267 45.0923 3.24159C45.3939 3.43051 45.6408 3.70063 45.8331 4.05196C46.0253 4.39997 46.1214 4.85238 46.1214 5.4092V10.4802H44.6697V9.43619H44.61C44.5139 9.62843 44.3697 9.81735 44.1775 10.003C43.9853 10.1886 43.7384 10.3427 43.4367 10.4653C43.1351 10.5879 42.7739 10.6493 42.3529 10.6493ZM42.6761 9.45608C43.0871 9.45608 43.4384 9.37487 43.7301 9.21247C44.0251 9.05006 44.2488 8.83794 44.4012 8.57611C44.557 8.31095 44.6349 8.02757 44.6349 7.72596V6.74159C44.5819 6.79462 44.4791 6.84433 44.3267 6.89074C44.1775 6.93382 44.0068 6.97194 43.8146 7.00508C43.6224 7.03491 43.4351 7.06308 43.2528 7.0896C43.0705 7.1128 42.918 7.13269 42.7954 7.14926C42.5071 7.18572 42.2436 7.24703 42.0049 7.33321C41.7696 7.41938 41.5807 7.54367 41.4382 7.70608C41.299 7.86517 41.2294 8.07729 41.2294 8.34244C41.2294 8.71034 41.3652 8.98875 41.637 9.17767C41.9088 9.36327 42.2552 9.45608 42.6761 9.45608ZM54.3307 2.84386V9.26218H55.4494V12.9412H53.9827V10.4802H48.1013V2.84386H49.558V9.19755H52.879V2.84386H54.3307ZM58.5541 8.39713L61.9199 2.84386H63.5207V10.4802H62.0641V4.92199L58.7132 10.4802H57.0974V2.84386H58.5541V8.39713ZM70.0733 10.4802V4.11162H68.2437C67.8096 4.11162 67.4715 4.21271 67.2295 4.41488C66.9876 4.61706 66.8666 4.88221 66.8666 5.21034C66.8666 5.53515 66.9776 5.79699 67.1997 5.99585C67.4251 6.1914 67.74 6.28917 68.1443 6.28917H70.5058V7.4923H68.1443C67.5809 7.4923 67.0936 7.3995 66.6827 7.21389C66.275 7.02497 65.9601 6.75816 65.7381 6.41346C65.5193 6.06877 65.4099 5.6611 65.4099 5.19045C65.4099 4.70986 65.5226 4.29557 65.748 3.94755C65.9767 3.59623 66.3032 3.32445 66.7274 3.13221C67.155 2.93998 67.6604 2.84386 68.2437 2.84386H71.4703V10.4802H70.0733ZM65.0619 10.4802L67.2146 6.62227H68.7359L66.5832 10.4802H65.0619ZM78.6108 8.39713L81.9765 2.84386H83.5774V10.4802H82.1207V4.92199L78.7698 10.4802H77.1541V2.84386H78.6108V8.39713ZM85.1235 8.46176H86.6448C86.6647 8.77331 86.8056 9.01361 87.0674 9.18264C87.3326 9.35167 87.6756 9.43619 88.0965 9.43619C88.5241 9.43619 88.8887 9.34504 89.1903 9.16275C89.4919 8.97715 89.6427 8.69045 89.6427 8.30267C89.6427 8.07066 89.5847 7.86848 89.4687 7.69613C89.356 7.52047 89.1953 7.38458 88.9865 7.28846C88.781 7.19235 88.5374 7.14429 88.2556 7.14429H87.0127V5.97596H88.2556C88.6766 5.97596 88.9914 5.87985 89.2002 5.68761C89.409 5.49538 89.5134 5.25508 89.5134 4.96673C89.5134 4.65518 89.4008 4.40494 89.1754 4.21602C88.9533 4.02379 88.6434 3.92767 88.2457 3.92767C87.8413 3.92767 87.5049 4.01881 87.2365 4.20111C86.968 4.38008 86.8271 4.61209 86.8139 4.89713H85.3125C85.3224 4.46957 85.4517 4.09504 85.7002 3.77355C85.9521 3.44874 86.2902 3.19684 86.7144 3.01787C87.142 2.83558 87.6276 2.74443 88.1711 2.74443C88.7379 2.74443 89.2284 2.83558 89.6427 3.01787C90.057 3.20016 90.3768 3.45205 90.6022 3.77355C90.8309 4.09504 90.9453 4.4646 90.9453 4.88221C90.9453 5.30314 90.8193 5.64784 90.5674 5.9163C90.3188 6.18146 89.994 6.37203 89.593 6.48804V6.56758C89.888 6.58747 90.1498 6.67696 90.3785 6.83605C90.6072 6.99514 90.7862 7.2056 90.9154 7.46744C91.0447 7.72928 91.1093 8.02592 91.1093 8.35736C91.1093 8.82468 90.9801 9.22904 90.7215 9.57042C90.4663 9.91181 90.1117 10.1753 89.6576 10.3609C89.2069 10.5432 88.6915 10.6343 88.1115 10.6343C87.548 10.6343 87.0426 10.5465 86.5951 10.3708C86.151 10.1919 85.798 9.93998 85.5362 9.61517C85.2777 9.29036 85.1401 8.90589 85.1235 8.46176ZM95.8609 10.6343C95.145 10.6343 94.5203 10.4703 93.9866 10.1422C93.453 9.81403 93.0387 9.35499 92.7437 8.76503C92.4488 8.17506 92.3013 7.48567 92.3013 6.69684C92.3013 5.9047 92.4488 5.212 92.7437 4.61872C93.0387 4.02544 93.453 3.56474 93.9866 3.23662C94.5203 2.90849 95.145 2.74443 95.8609 2.74443C96.5768 2.74443 97.2016 2.90849 97.7352 3.23662C98.2688 3.56474 98.6831 4.02544 98.9781 4.61872C99.2731 5.212 99.4206 5.9047 99.4206 6.69684C99.4206 7.48567 99.2731 8.17506 98.9781 8.76503C98.6831 9.35499 98.2688 9.81403 97.7352 10.1422C97.2016 10.4703 96.5768 10.6343 95.8609 10.6343ZM95.8659 9.38647C96.3299 9.38647 96.7144 9.26384 97.0193 9.01858C97.3242 8.77331 97.5496 8.44684 97.6954 8.03917C97.8446 7.6315 97.9192 7.1824 97.9192 6.69187C97.9192 6.20466 97.8446 5.75721 97.6954 5.34954C97.5496 4.93856 97.3242 4.60878 97.0193 4.3602C96.7144 4.11162 96.3299 3.98733 95.8659 3.98733C95.3986 3.98733 95.0108 4.11162 94.7025 4.3602C94.3976 4.60878 94.1706 4.93856 94.0214 5.34954C93.8756 5.75721 93.8027 6.20466 93.8027 6.69187C93.8027 7.1824 93.8756 7.6315 94.0214 8.03917C94.1706 8.44684 94.3976 8.77331 94.7025 9.01858C95.0108 9.26384 95.3986 9.38647 95.8659 9.38647ZM106.971 0.000110745L107.588 0.939742C107.359 1.14855 107.099 1.2977 106.807 1.38718C106.519 1.47336 106.186 1.52805 105.808 1.55125C105.43 1.57113 104.997 1.58936 104.51 1.60593C103.96 1.62251 103.508 1.74182 103.153 1.96389C102.798 2.18264 102.525 2.50745 102.333 2.93832C102.144 3.36588 102.021 3.90281 101.965 4.54912H102.059C102.308 4.07516 102.653 3.72052 103.093 3.4852C103.537 3.24987 104.036 3.13221 104.59 3.13221C105.206 3.13221 105.755 3.27307 106.235 3.5548C106.716 3.83652 107.094 4.24916 107.369 4.79272C107.647 5.33297 107.787 5.99419 107.787 6.77639C107.787 7.56853 107.641 8.25295 107.349 8.82966C107.061 9.40636 106.653 9.85215 106.126 10.167C105.602 10.4786 104.984 10.6343 104.272 10.6343C103.559 10.6343 102.938 10.4736 102.407 10.1521C101.88 9.82729 101.471 9.3467 101.179 8.71034C100.891 8.07397 100.747 7.28846 100.747 6.3538V5.59812C100.747 3.85144 101.058 2.53728 101.681 1.65565C102.305 0.774022 103.236 0.321607 104.475 0.298406C104.876 0.288463 105.234 0.286806 105.549 0.293434C105.864 0.296749 106.139 0.281834 106.375 0.24869C106.613 0.212232 106.812 0.129372 106.971 0.000110745ZM104.277 9.38647C104.691 9.38647 105.047 9.28207 105.345 9.07326C105.647 8.86114 105.879 8.56119 106.042 8.17341C106.204 7.78562 106.285 7.32824 106.285 6.80125C106.285 6.2842 106.204 5.84504 106.042 5.48378C105.879 5.12251 105.647 4.84741 105.345 4.65849C105.044 4.46626 104.683 4.37014 104.262 4.37014C103.95 4.37014 103.672 4.42483 103.426 4.5342C103.181 4.64026 102.971 4.7977 102.795 5.0065C102.623 5.21531 102.488 5.47052 102.392 5.77213C102.3 6.07042 102.25 6.41346 102.243 6.80125C102.243 7.59007 102.424 8.21815 102.785 8.68548C103.15 9.15281 103.647 9.38647 104.277 9.38647ZM109.447 13.3439V2.84386H110.899V4.08179H111.023C111.109 3.9227 111.234 3.73875 111.396 3.52994C111.558 3.32113 111.784 3.13884 112.072 2.98307C112.36 2.82397 112.742 2.74443 113.216 2.74443C113.832 2.74443 114.382 2.90021 114.866 3.21176C115.35 3.52331 115.729 3.97241 116.005 4.55906C116.283 5.14571 116.422 5.85167 116.422 6.67696C116.422 7.50224 116.285 8.20986 116.01 8.79983C115.734 9.38647 115.357 9.83889 114.876 10.1571C114.395 10.4719 113.847 10.6294 113.23 10.6294C112.766 10.6294 112.387 10.5515 112.092 10.3957C111.8 10.2399 111.572 10.0576 111.406 9.84883C111.24 9.64003 111.113 9.45442 111.023 9.29201H110.934V13.3439H109.447ZM110.904 6.66204C110.904 7.19897 110.982 7.66962 111.137 8.07397C111.293 8.47833 111.519 8.79486 111.814 9.02355C112.109 9.24893 112.47 9.36162 112.897 9.36162C113.341 9.36162 113.713 9.24396 114.011 9.00863C114.309 8.77 114.535 8.44684 114.687 8.03917C114.843 7.6315 114.921 7.17246 114.921 6.66204C114.921 6.15825 114.845 5.70584 114.692 5.3048C114.543 4.90376 114.318 4.58723 114.016 4.35522C113.718 4.12322 113.345 4.00721 112.897 4.00721C112.466 4.00721 112.102 4.11825 111.804 4.34031C111.509 4.56237 111.285 4.87227 111.132 5.27C110.98 5.66772 110.904 6.13174 110.904 6.66204ZM120.31 10.6493C119.826 10.6493 119.389 10.5598 118.997 10.3808C118.606 10.1985 118.296 9.93501 118.068 9.59031C117.842 9.24561 117.73 8.82303 117.73 8.32255C117.73 7.89168 117.813 7.53704 117.978 7.25863C118.144 6.98022 118.368 6.75982 118.649 6.59741C118.931 6.43501 119.246 6.31237 119.594 6.22951C119.942 6.14665 120.297 6.08368 120.658 6.04059C121.115 5.98756 121.487 5.94448 121.772 5.91133C122.057 5.87487 122.264 5.81687 122.393 5.73733C122.522 5.65778 122.587 5.52852 122.587 5.34954V5.31474C122.587 4.88056 122.464 4.54414 122.219 4.30551C121.977 4.06687 121.616 3.94755 121.135 3.94755C120.635 3.94755 120.24 4.05859 119.952 4.28065C119.667 4.4994 119.47 4.74301 119.36 5.01147L117.963 4.69329C118.129 4.22928 118.371 3.85475 118.689 3.56971C119.011 3.28136 119.38 3.07255 119.798 2.94329C120.216 2.81072 120.655 2.74443 121.115 2.74443C121.42 2.74443 121.743 2.78089 122.085 2.8538C122.43 2.92341 122.751 3.05267 123.049 3.24159C123.351 3.43051 123.598 3.70063 123.79 4.05196C123.982 4.39997 124.078 4.85238 124.078 5.4092V10.4802H122.627V9.43619H122.567C122.471 9.62843 122.327 9.81735 122.135 10.003C121.942 10.1886 121.695 10.3427 121.394 10.4653C121.092 10.5879 120.731 10.6493 120.31 10.6493ZM120.633 9.45608C121.044 9.45608 121.395 9.37487 121.687 9.21247C121.982 9.05006 122.206 8.83794 122.358 8.57611C122.514 8.31095 122.592 8.02757 122.592 7.72596V6.74159C122.539 6.79462 122.436 6.84433 122.284 6.89074C122.135 6.93382 121.964 6.97194 121.772 7.00508C121.579 7.03491 121.392 7.06308 121.21 7.0896C121.028 7.1128 120.875 7.13269 120.752 7.14926C120.464 7.18572 120.201 7.24703 119.962 7.33321C119.727 7.41938 119.538 7.54367 119.395 7.70608C119.256 7.86517 119.186 8.07729 119.186 8.34244C119.186 8.71034 119.322 8.98875 119.594 9.17767C119.866 9.36327 120.212 9.45608 120.633 9.45608ZM125.571 10.4802L128.529 6.57255L125.606 2.84386H127.336L129.698 6.01574H130.23V2.84386H131.716V6.01574H132.233L134.595 2.84386H136.325L133.416 6.57255L136.36 10.4802H134.595L132.213 7.29841H131.716V10.4802H130.23V7.29841H129.732L127.336 10.4802H125.571ZM140.861 10.6343C140.109 10.6343 139.461 10.4736 138.917 10.1521C138.377 9.82729 137.96 9.37156 137.665 8.78491C137.373 8.19495 137.227 7.5039 137.227 6.71176C137.227 5.92956 137.373 5.24017 137.665 4.64358C137.96 4.04699 138.371 3.58131 138.898 3.24656C139.428 2.91181 140.048 2.74443 140.757 2.74443C141.188 2.74443 141.605 2.81569 142.01 2.95821C142.414 3.10073 142.777 3.32445 143.098 3.62937C143.42 3.9343 143.674 4.33037 143.859 4.81758C144.045 5.30148 144.138 5.88979 144.138 6.5825V7.10949H138.067V5.99585H142.681C142.681 5.60475 142.601 5.2584 142.442 4.95679C142.283 4.65186 142.059 4.41157 141.771 4.23591C141.486 4.06024 141.151 3.97241 140.767 3.97241C140.349 3.97241 139.985 4.07516 139.673 4.28065C139.365 4.48283 139.126 4.74798 138.957 5.07611C138.791 5.40092 138.709 5.7539 138.709 6.13505V7.00508C138.709 7.5155 138.798 7.94968 138.977 8.30764C139.159 8.66559 139.413 8.93903 139.738 9.12795C140.063 9.31356 140.442 9.40636 140.876 9.40636C141.158 9.40636 141.415 9.36659 141.647 9.28704C141.879 9.20418 142.079 9.08155 142.248 8.91914C142.417 8.75674 142.547 8.55622 142.636 8.31758L144.043 8.57113C143.93 8.98543 143.728 9.34836 143.437 9.65991C143.148 9.96815 142.785 10.2084 142.348 10.3808C141.914 10.5498 141.418 10.6343 140.861 10.6343ZM150.962 6.02071V7.30835H146.826V6.02071H150.962ZM147.244 2.84386V10.4802H145.787V2.84386H147.244ZM152.001 2.84386V10.4802H150.55V2.84386H152.001ZM155.447 8.39713L158.812 2.84386H160.413V10.4802H158.957V4.92199L155.606 10.4802H153.99V2.84386H155.447V8.39713ZM163.869 8.39713L167.234 2.84386H168.835V10.4802H167.379V4.92199L164.028 10.4802H162.412V2.84386H163.869V8.39713ZM166.598 0.258633H167.821C167.821 0.818766 167.622 1.2745 167.224 1.62582C166.83 1.97383 166.296 2.14784 165.624 2.14784C164.954 2.14784 164.422 1.97383 164.028 1.62582C163.633 1.2745 163.436 0.818766 163.436 0.258633H164.654C164.654 0.507213 164.727 0.72762 164.873 0.919855C165.019 1.10878 165.269 1.20324 165.624 1.20324C165.972 1.20324 166.22 1.10878 166.369 0.919855C166.522 0.730935 166.598 0.510527 166.598 0.258633Z" fill="white" fill-opacity="0.3"/>
<defs>
<linearGradient id="paint0_linear_924_4389" x1="-1.11865" y1="5.48022" x2="169.881" y2="5.48022" gradientUnits="userSpaceOnUse">
<stop stop-color="#9747FF"/>
<stop offset="1" stop-color="#005FF9"/>
</linearGradient>
</defs>
</svg>
