<svg width="152" height="14" viewBox="0 0 152 14" fill="none" xmlns="http://www.w3.org/2000/svg">
<path d="M-4.43608e-05 10.1816V-0.00017786H3.62922C4.42136 -0.00017786 5.07761 0.143998 5.59797 0.43235C6.11833 0.720703 6.50777 1.11512 6.76629 1.61559C7.02481 2.11275 7.15408 2.67288 7.15408 3.29599C7.15408 3.92241 7.02316 4.48585 6.76132 4.98633C6.5028 5.48349 6.1117 5.8779 5.58802 6.16957C5.06766 6.45792 4.41307 6.6021 3.62425 6.6021H1.12851V5.29954H3.48504C3.98551 5.29954 4.39153 5.21336 4.70308 5.04102C5.01463 4.86535 5.24333 4.62672 5.38916 4.32511C5.53499 4.0235 5.60791 3.68046 5.60791 3.29599C5.60791 2.91152 5.53499 2.57013 5.38916 2.27184C5.24333 1.97354 5.01298 1.73988 4.69811 1.57085C4.38656 1.40181 3.97557 1.31729 3.46515 1.31729H1.53618V10.1816H-4.43608e-05ZM12.0312 10.3358C11.2788 10.3358 10.6309 10.175 10.0873 9.85352C9.54707 9.52871 9.12945 9.07298 8.83447 8.48633C8.54281 7.89637 8.39697 7.20531 8.39697 6.41317C8.39697 5.63098 8.54281 4.94158 8.83447 4.34499C9.12945 3.7484 9.54044 3.28273 10.0674 2.94798C10.5977 2.61322 11.2175 2.44585 11.9268 2.44585C12.3577 2.44585 12.7753 2.5171 13.1796 2.65962C13.584 2.80214 13.9469 3.02586 14.2684 3.33079C14.5899 3.63571 14.8435 4.03178 15.0291 4.519C15.2147 5.0029 15.3075 5.5912 15.3075 6.28391V6.8109H9.23717V5.69727H13.8508C13.8508 5.30617 13.7713 4.95981 13.6122 4.6582C13.4531 4.35328 13.2294 4.11299 12.941 3.93732C12.656 3.76166 12.3212 3.67383 11.9367 3.67383C11.5191 3.67383 11.1545 3.77657 10.843 3.98207C10.5348 4.18424 10.2961 4.4494 10.1271 4.77752C9.96137 5.10233 9.87851 5.45531 9.87851 5.83647V6.7065C9.87851 7.21692 9.968 7.6511 10.147 8.00906C10.3293 8.36701 10.5828 8.64045 10.9076 8.82937C11.2324 9.01497 11.6119 9.10778 12.0461 9.10778C12.3278 9.10778 12.5847 9.068 12.8167 8.98846C13.0487 8.9056 13.2492 8.78297 13.4183 8.62056C13.5873 8.45816 13.7166 8.25763 13.8061 8.019L15.213 8.27255C15.1003 8.68685 14.8982 9.04978 14.6065 9.36133C14.3181 9.66957 13.9552 9.90986 13.5177 10.0822C13.0835 10.2512 12.588 10.3358 12.0312 10.3358ZM16.2111 12.3841V8.894H16.8325C16.9916 8.74817 17.1258 8.57416 17.2352 8.37198C17.3479 8.1698 17.4424 7.92951 17.5186 7.6511C17.5981 7.37269 17.6644 7.04788 17.7175 6.67667C17.7705 6.30214 17.8169 5.87459 17.8567 5.394L18.0953 2.54528H23.2856V8.894H24.4589V12.3841H23.0072V10.1816H17.6827V12.3841H16.2111ZM18.4234 8.894H21.8339V3.818H19.4277L19.2686 5.394C19.1924 6.19608 19.0963 6.8921 18.9802 7.48207C18.8642 8.06871 18.6786 8.53936 18.4234 8.894ZM28.1342 10.3507C27.6503 10.3507 27.2128 10.2612 26.8217 10.0822C26.4306 9.89992 26.1207 9.63642 25.892 9.29173C25.6666 8.94703 25.5539 8.52444 25.5539 8.02397C25.5539 7.5931 25.6368 7.23846 25.8025 6.96005C25.9682 6.68164 26.192 6.46123 26.4737 6.29883C26.7554 6.13642 27.0703 6.01379 27.4183 5.93093C27.7663 5.84807 28.1209 5.7851 28.4822 5.74201C28.9396 5.68898 29.3108 5.64589 29.5958 5.61275C29.8809 5.57629 30.088 5.51829 30.2173 5.43874C30.3465 5.3592 30.4112 5.22994 30.4112 5.05096V5.01616C30.4112 4.58197 30.2885 4.24556 30.0433 4.00692C29.8013 3.76829 29.4401 3.64897 28.9595 3.64897C28.459 3.64897 28.0646 3.76 27.7762 3.98207C27.4912 4.20082 27.294 4.44442 27.1846 4.71289L25.7876 4.39471C25.9533 3.93069 26.1953 3.55617 26.5134 3.27113C26.8349 2.98278 27.2045 2.77397 27.6221 2.64471C28.0397 2.51213 28.4789 2.44585 28.9396 2.44585C29.2445 2.44585 29.5677 2.4823 29.909 2.55522C30.2537 2.62482 30.5752 2.75408 30.8735 2.943C31.1751 3.13192 31.4221 3.40205 31.6143 3.75337C31.8065 4.10138 31.9027 4.5538 31.9027 5.11062V10.1816H30.4509V9.13761H30.3913C30.2952 9.32984 30.151 9.51876 29.9588 9.70437C29.7665 9.88997 29.5196 10.0441 29.218 10.1667C28.9164 10.2894 28.5551 10.3507 28.1342 10.3507ZM28.4573 9.15749C28.8683 9.15749 29.2197 9.07629 29.5113 8.91388C29.8063 8.75148 30.03 8.53936 30.1825 8.27752C30.3383 8.01237 30.4161 7.72899 30.4161 7.42738V6.443C30.3631 6.49603 30.2604 6.54575 30.1079 6.59215C29.9588 6.63524 29.7881 6.67335 29.5958 6.7065C29.4036 6.73633 29.2163 6.7645 29.034 6.79102C28.8518 6.81422 28.6993 6.8341 28.5767 6.85067C28.2883 6.88713 28.0248 6.94845 27.7862 7.03462C27.5509 7.1208 27.3619 7.24509 27.2194 7.40749C27.0802 7.56658 27.0106 7.7787 27.0106 8.04386C27.0106 8.41175 27.1465 8.69016 27.4183 8.87908C27.6901 9.06469 28.0364 9.15749 28.4573 9.15749ZM33.8826 10.1816V2.54528H35.3691V5.74698H36.085L38.6056 2.54528H40.4451L37.487 6.25906L40.4799 10.1816H38.6354L36.3336 7.12908H35.3691V10.1816H33.8826ZM41.207 3.82795V2.54528H47.6502V3.82795H45.1594V10.1816H43.7077V3.82795H41.207ZM50.6791 8.09854L54.0449 2.54528H55.6457V10.1816H54.1891V4.6234L50.8382 10.1816H49.2224V2.54528H50.6791V8.09854ZM57.6443 13.0453V2.54528H59.096V3.7832H59.2203C59.3065 3.62411 59.4308 3.44016 59.5932 3.23136C59.7556 3.02255 59.981 2.84026 60.2693 2.68448C60.5577 2.52539 60.9388 2.44585 61.4128 2.44585C62.0293 2.44585 62.5794 2.60162 63.0633 2.91317C63.5472 3.22473 63.9267 3.67383 64.2018 4.26048C64.4802 4.84712 64.6195 5.55309 64.6195 6.37837C64.6195 7.20366 64.4819 7.91128 64.2068 8.50124C63.9317 9.08789 63.5539 9.54031 63.0733 9.85849C62.5927 10.1734 62.0442 10.3308 61.4277 10.3308C60.9637 10.3308 60.5842 10.2529 60.2892 10.0971C59.9975 9.94135 59.7688 9.75906 59.6031 9.55025C59.4374 9.34144 59.3098 9.15584 59.2203 8.99343H59.1308V13.0453H57.6443ZM59.101 6.36346C59.101 6.90039 59.1789 7.37103 59.3347 7.77539C59.4904 8.17975 59.7158 8.49627 60.0108 8.72496C60.3058 8.95034 60.667 9.06303 61.0946 9.06303C61.5387 9.06303 61.9099 8.94537 62.2082 8.71005C62.5065 8.47141 62.7319 8.14826 62.8844 7.74059C63.0401 7.33292 63.118 6.87388 63.118 6.36346C63.118 5.85967 63.0418 5.40726 62.8893 5.00621C62.7402 4.60517 62.5148 4.28865 62.2132 4.05664C61.9149 3.82463 61.542 3.70863 61.0946 3.70863C60.6637 3.70863 60.2991 3.81966 60.0008 4.04173C59.7059 4.26379 59.4821 4.57369 59.3297 4.97141C59.1772 5.36914 59.101 5.83316 59.101 6.36346ZM69.5016 10.3358C68.7856 10.3358 68.1609 10.1717 67.6273 9.84357C67.0936 9.51545 66.6793 9.0564 66.3844 8.46644C66.0894 7.87648 65.9419 7.18709 65.9419 6.39826C65.9419 5.60612 66.0894 4.91341 66.3844 4.32013C66.6793 3.72686 67.0936 3.26616 67.6273 2.93803C68.1609 2.60991 68.7856 2.44585 69.5016 2.44585C70.2175 2.44585 70.8422 2.60991 71.3758 2.93803C71.9095 3.26616 72.3238 3.72686 72.6187 4.32013C72.9137 4.91341 73.0612 5.60612 73.0612 6.39826C73.0612 7.18709 72.9137 7.87648 72.6187 8.46644C72.3238 9.0564 71.9095 9.51545 71.3758 9.84357C70.8422 10.1717 70.2175 10.3358 69.5016 10.3358ZM69.5065 9.08789C69.9705 9.08789 70.355 8.96526 70.6599 8.71999C70.9649 8.47473 71.1902 8.14826 71.3361 7.74059C71.4852 7.33292 71.5598 6.88382 71.5598 6.39329C71.5598 5.90607 71.4852 5.45863 71.3361 5.05096C71.1902 4.63997 70.9649 4.31019 70.6599 4.06161C70.355 3.81303 69.9705 3.68874 69.5065 3.68874C69.0392 3.68874 68.6514 3.81303 68.3432 4.06161C68.0382 4.31019 67.8112 4.63997 67.6621 5.05096C67.5162 5.45863 67.4433 5.90607 67.4433 6.39329C67.4433 6.88382 67.5162 7.33292 67.6621 7.74059C67.8112 8.14826 68.0382 8.47473 68.3432 8.71999C68.6514 8.96526 69.0392 9.08789 69.5065 9.08789ZM74.7205 10.1816V2.54528H77.8874C78.7491 2.54528 79.4319 2.72923 79.9357 3.09712C80.4395 3.46171 80.6914 3.95721 80.6914 4.58363C80.6914 5.03107 80.5488 5.38571 80.2638 5.64755C79.9788 5.90939 79.6009 6.08505 79.1303 6.17454C79.4717 6.21431 79.7849 6.31706 80.0699 6.48278C80.355 6.64518 80.5836 6.86393 80.756 7.13903C80.9317 7.41412 81.0195 7.74225 81.0195 8.1234C81.0195 8.52776 80.9151 8.88571 80.7063 9.19727C80.4975 9.5055 80.1942 9.74745 79.7965 9.92312C79.4021 10.0955 78.9264 10.1816 78.3696 10.1816H74.7205ZM76.1175 8.93874H78.3696C78.7375 8.93874 79.0259 8.85091 79.2347 8.67525C79.4435 8.49959 79.5479 8.26095 79.5479 7.95934C79.5479 7.6047 79.4435 7.32629 79.2347 7.12411C79.0259 6.91862 78.7375 6.81587 78.3696 6.81587H76.1175V8.93874ZM76.1175 5.7271H77.9023C78.1807 5.7271 78.4193 5.68732 78.6182 5.60778C78.8204 5.52823 78.9745 5.41554 79.0806 5.26971C79.1899 5.12056 79.2446 4.9449 79.2446 4.74272C79.2446 4.44774 79.1237 4.21739 78.8817 4.05167C78.6398 3.88595 78.3083 3.80309 77.8874 3.80309H76.1175V5.7271ZM84.8725 10.3507C84.3886 10.3507 83.9511 10.2612 83.56 10.0822C83.1689 9.89992 82.859 9.63642 82.6303 9.29173C82.4049 8.94703 82.2922 8.52444 82.2922 8.02397C82.2922 7.5931 82.3751 7.23846 82.5408 6.96005C82.7065 6.68164 82.9302 6.46123 83.212 6.29883C83.4937 6.13642 83.8085 6.01379 84.1566 5.93093C84.5046 5.84807 84.8592 5.7851 85.2205 5.74201C85.6779 5.68898 86.0491 5.64589 86.3341 5.61275C86.6192 5.57629 86.8263 5.51829 86.9556 5.43874C87.0848 5.3592 87.1495 5.22994 87.1495 5.05096V5.01616C87.1495 4.58197 87.0268 4.24556 86.7816 4.00692C86.5396 3.76829 86.1783 3.64897 85.6978 3.64897C85.1973 3.64897 84.8029 3.76 84.5145 3.98207C84.2295 4.20082 84.0323 4.44442 83.9229 4.71289L82.5259 4.39471C82.6916 3.93069 82.9335 3.55617 83.2517 3.27113C83.5732 2.98278 83.9428 2.77397 84.3604 2.64471C84.778 2.51213 85.2172 2.44585 85.6779 2.44585C85.9828 2.44585 86.3059 2.4823 86.6473 2.55522C86.992 2.62482 87.3135 2.75408 87.6118 2.943C87.9134 3.13192 88.1603 3.40205 88.3526 3.75337C88.5448 4.10138 88.6409 4.5538 88.6409 5.11062V10.1816H87.1892V9.13761H87.1296C87.0335 9.32984 86.8893 9.51876 86.697 9.70437C86.5048 9.88997 86.2579 10.0441 85.9563 10.1667C85.6547 10.2894 85.2934 10.3507 84.8725 10.3507ZM85.1956 9.15749C85.6066 9.15749 85.9579 9.07629 86.2496 8.91388C86.5446 8.75148 86.7683 8.53936 86.9208 8.27752C87.0765 8.01237 87.1544 7.72899 87.1544 7.42738V6.443C87.1014 6.49603 86.9987 6.54575 86.8462 6.59215C86.697 6.63524 86.5264 6.67335 86.3341 6.7065C86.1419 6.73633 85.9546 6.7645 85.7723 6.79102C85.59 6.81422 85.4376 6.8341 85.3149 6.85067C85.0266 6.88713 84.7631 6.94845 84.5245 7.03462C84.2891 7.1208 84.1002 7.24509 83.9577 7.40749C83.8185 7.56658 83.7489 7.7787 83.7489 8.04386C83.7489 8.41175 83.8848 8.69016 84.1566 8.87908C84.4283 9.06469 84.7747 9.15749 85.1956 9.15749ZM95.7963 5.72212V7.00977H91.6599V5.72212H95.7963ZM92.0775 2.54528V10.1816H90.6209V2.54528H92.0775ZM96.8354 2.54528V10.1816H95.3837V2.54528H96.8354ZM100.281 8.09854L103.646 2.54528H105.247V10.1816H103.791V4.6234L100.44 10.1816H98.824V2.54528H100.281V8.09854ZM110.537 10.3358C109.785 10.3358 109.137 10.175 108.593 9.85352C108.053 9.52871 107.635 9.07298 107.34 8.48633C107.049 7.89637 106.903 7.20531 106.903 6.41317C106.903 5.63098 107.049 4.94158 107.34 4.34499C107.635 3.7484 108.046 3.28273 108.573 2.94798C109.104 2.61322 109.723 2.44585 110.433 2.44585C110.864 2.44585 111.281 2.5171 111.686 2.65962C112.09 2.80214 112.453 3.02586 112.774 3.33079C113.096 3.63571 113.349 4.03178 113.535 4.519C113.721 5.0029 113.813 5.5912 113.813 6.28391V6.8109H107.743V5.69727H112.357C112.357 5.30617 112.277 4.95981 112.118 4.6582C111.959 4.35328 111.735 4.11299 111.447 3.93732C111.162 3.76166 110.827 3.67383 110.443 3.67383C110.025 3.67383 109.66 3.77657 109.349 3.98207C109.041 4.18424 108.802 4.4494 108.633 4.77752C108.467 5.10233 108.384 5.45531 108.384 5.83647V6.7065C108.384 7.21692 108.474 7.6511 108.653 8.00906C108.835 8.36701 109.089 8.64045 109.413 8.82937C109.738 9.01497 110.118 9.10778 110.552 9.10778C110.834 9.10778 111.091 9.068 111.323 8.98846C111.555 8.9056 111.755 8.78297 111.924 8.62056C112.093 8.45816 112.222 8.25763 112.312 8.019L113.719 8.27255C113.606 8.68685 113.404 9.04978 113.112 9.36133C112.824 9.66957 112.461 9.90986 112.024 10.0822C111.589 10.2512 111.094 10.3358 110.537 10.3358ZM122.454 12.7818V-0.00017786H123.94V12.7818H122.454ZM122.454 10.3358C121.914 10.3358 121.422 10.243 120.977 10.0574C120.533 9.86843 120.15 9.59996 119.829 9.25195C119.507 8.90394 119.259 8.48799 119.083 8.00408C118.911 7.52018 118.825 6.98491 118.825 6.39826C118.825 5.80498 118.911 5.26639 119.083 4.78249C119.259 4.29859 119.507 3.88263 119.829 3.53462C120.15 3.18661 120.533 2.91815 120.977 2.72923C121.422 2.54031 121.914 2.44585 122.454 2.44585H122.822V10.3358H122.454ZM122.454 9.08292H122.663V3.69869H122.454C122.096 3.69869 121.784 3.7716 121.519 3.91744C121.254 4.05995 121.034 4.25716 120.858 4.50906C120.682 4.75763 120.55 5.04433 120.46 5.36914C120.374 5.69395 120.331 6.03699 120.331 6.39826C120.331 6.88216 120.409 7.32795 120.565 7.73562C120.721 8.13997 120.956 8.46644 121.271 8.71502C121.586 8.96029 121.98 9.08292 122.454 9.08292ZM123.94 10.3358H123.568V2.44585H123.94C124.481 2.44585 124.973 2.54031 125.417 2.72923C125.861 2.91815 126.242 3.18661 126.561 3.53462C126.882 3.88263 127.129 4.29859 127.301 4.78249C127.477 5.26639 127.565 5.80498 127.565 6.39826C127.565 6.98491 127.477 7.52018 127.301 8.00408C127.129 8.48799 126.882 8.90394 126.561 9.25195C126.242 9.59996 125.861 9.86843 125.417 10.0574C124.973 10.243 124.481 10.3358 123.94 10.3358ZM123.94 9.08292C124.298 9.08292 124.61 9.01332 124.875 8.87411C125.14 8.73159 125.361 8.53604 125.536 8.28746C125.712 8.03557 125.843 7.74888 125.929 7.42738C126.015 7.10257 126.058 6.75953 126.058 6.39826C126.058 5.91767 125.98 5.47354 125.825 5.06587C125.672 4.65489 125.439 4.32511 125.124 4.07653C124.809 3.82463 124.414 3.69869 123.94 3.69869H123.727V9.08292H123.94ZM132.433 10.3358C131.717 10.3358 131.093 10.1717 130.559 9.84357C130.025 9.51545 129.611 9.0564 129.316 8.46644C129.021 7.87648 128.874 7.18709 128.874 6.39826C128.874 5.60612 129.021 4.91341 129.316 4.32013C129.611 3.72686 130.025 3.26616 130.559 2.93803C131.093 2.60991 131.717 2.44585 132.433 2.44585C133.149 2.44585 133.774 2.60991 134.307 2.93803C134.841 3.26616 135.255 3.72686 135.55 4.32013C135.845 4.91341 135.993 5.60612 135.993 6.39826C135.993 7.18709 135.845 7.87648 135.55 8.46644C135.255 9.0564 134.841 9.51545 134.307 9.84357C133.774 10.1717 133.149 10.3358 132.433 10.3358ZM132.438 9.08789C132.902 9.08789 133.287 8.96526 133.592 8.71999C133.896 8.47473 134.122 8.14826 134.268 7.74059C134.417 7.33292 134.491 6.88382 134.491 6.39329C134.491 5.90607 134.417 5.45863 134.268 5.05096C134.122 4.63997 133.896 4.31019 133.592 4.06161C133.287 3.81303 132.902 3.68874 132.438 3.68874C131.971 3.68874 131.583 3.81303 131.275 4.06161C130.97 4.31019 130.743 4.63997 130.594 5.05096C130.448 5.45863 130.375 5.90607 130.375 6.39329C130.375 6.88382 130.448 7.33292 130.594 7.74059C130.743 8.14826 130.97 8.47473 131.275 8.71999C131.583 8.96526 131.971 9.08789 132.438 9.08789ZM136.732 3.82795V2.54528H143.176V3.82795H140.685V10.1816H139.233V3.82795H136.732ZM147.609 10.3358C146.893 10.3358 146.268 10.1717 145.735 9.84357C145.201 9.51545 144.787 9.0564 144.492 8.46644C144.197 7.87648 144.049 7.18709 144.049 6.39826C144.049 5.60612 144.197 4.91341 144.492 4.32013C144.787 3.72686 145.201 3.26616 145.735 2.93803C146.268 2.60991 146.893 2.44585 147.609 2.44585C148.325 2.44585 148.95 2.60991 149.483 2.93803C150.017 3.26616 150.431 3.72686 150.726 4.32013C151.021 4.91341 151.169 5.60612 151.169 6.39826C151.169 7.18709 151.021 7.87648 150.726 8.46644C150.431 9.0564 150.017 9.51545 149.483 9.84357C148.95 10.1717 148.325 10.3358 147.609 10.3358ZM147.614 9.08789C148.078 9.08789 148.462 8.96526 148.767 8.71999C149.072 8.47473 149.298 8.14826 149.443 7.74059C149.593 7.33292 149.667 6.88382 149.667 6.39329C149.667 5.90607 149.593 5.45863 149.443 5.05096C149.298 4.63997 149.072 4.31019 148.767 4.06161C148.462 3.81303 148.078 3.68874 147.614 3.68874C147.147 3.68874 146.759 3.81303 146.451 4.06161C146.146 4.31019 145.919 4.63997 145.769 5.05096C145.624 5.45863 145.551 5.90607 145.551 6.39329C145.551 6.88382 145.624 7.33292 145.769 7.74059C145.919 8.14826 146.146 8.47473 146.451 8.71999C146.759 8.96526 147.147 9.08789 147.614 9.08789Z" fill="#DCE8FF"/>
<path d="M-4.43608e-05 10.1816V-0.00017786H3.62922C4.42136 -0.00017786 5.07761 0.143998 5.59797 0.43235C6.11833 0.720703 6.50777 1.11512 6.76629 1.61559C7.02481 2.11275 7.15408 2.67288 7.15408 3.29599C7.15408 3.92241 7.02316 4.48585 6.76132 4.98633C6.5028 5.48349 6.1117 5.8779 5.58802 6.16957C5.06766 6.45792 4.41307 6.6021 3.62425 6.6021H1.12851V5.29954H3.48504C3.98551 5.29954 4.39153 5.21336 4.70308 5.04102C5.01463 4.86535 5.24333 4.62672 5.38916 4.32511C5.53499 4.0235 5.60791 3.68046 5.60791 3.29599C5.60791 2.91152 5.53499 2.57013 5.38916 2.27184C5.24333 1.97354 5.01298 1.73988 4.69811 1.57085C4.38656 1.40181 3.97557 1.31729 3.46515 1.31729H1.53618V10.1816H-4.43608e-05ZM12.0312 10.3358C11.2788 10.3358 10.6309 10.175 10.0873 9.85352C9.54707 9.52871 9.12945 9.07298 8.83447 8.48633C8.54281 7.89637 8.39697 7.20531 8.39697 6.41317C8.39697 5.63098 8.54281 4.94158 8.83447 4.34499C9.12945 3.7484 9.54044 3.28273 10.0674 2.94798C10.5977 2.61322 11.2175 2.44585 11.9268 2.44585C12.3577 2.44585 12.7753 2.5171 13.1796 2.65962C13.584 2.80214 13.9469 3.02586 14.2684 3.33079C14.5899 3.63571 14.8435 4.03178 15.0291 4.519C15.2147 5.0029 15.3075 5.5912 15.3075 6.28391V6.8109H9.23717V5.69727H13.8508C13.8508 5.30617 13.7713 4.95981 13.6122 4.6582C13.4531 4.35328 13.2294 4.11299 12.941 3.93732C12.656 3.76166 12.3212 3.67383 11.9367 3.67383C11.5191 3.67383 11.1545 3.77657 10.843 3.98207C10.5348 4.18424 10.2961 4.4494 10.1271 4.77752C9.96137 5.10233 9.87851 5.45531 9.87851 5.83647V6.7065C9.87851 7.21692 9.968 7.6511 10.147 8.00906C10.3293 8.36701 10.5828 8.64045 10.9076 8.82937C11.2324 9.01497 11.6119 9.10778 12.0461 9.10778C12.3278 9.10778 12.5847 9.068 12.8167 8.98846C13.0487 8.9056 13.2492 8.78297 13.4183 8.62056C13.5873 8.45816 13.7166 8.25763 13.8061 8.019L15.213 8.27255C15.1003 8.68685 14.8982 9.04978 14.6065 9.36133C14.3181 9.66957 13.9552 9.90986 13.5177 10.0822C13.0835 10.2512 12.588 10.3358 12.0312 10.3358ZM16.2111 12.3841V8.894H16.8325C16.9916 8.74817 17.1258 8.57416 17.2352 8.37198C17.3479 8.1698 17.4424 7.92951 17.5186 7.6511C17.5981 7.37269 17.6644 7.04788 17.7175 6.67667C17.7705 6.30214 17.8169 5.87459 17.8567 5.394L18.0953 2.54528H23.2856V8.894H24.4589V12.3841H23.0072V10.1816H17.6827V12.3841H16.2111ZM18.4234 8.894H21.8339V3.818H19.4277L19.2686 5.394C19.1924 6.19608 19.0963 6.8921 18.9802 7.48207C18.8642 8.06871 18.6786 8.53936 18.4234 8.894ZM28.1342 10.3507C27.6503 10.3507 27.2128 10.2612 26.8217 10.0822C26.4306 9.89992 26.1207 9.63642 25.892 9.29173C25.6666 8.94703 25.5539 8.52444 25.5539 8.02397C25.5539 7.5931 25.6368 7.23846 25.8025 6.96005C25.9682 6.68164 26.192 6.46123 26.4737 6.29883C26.7554 6.13642 27.0703 6.01379 27.4183 5.93093C27.7663 5.84807 28.1209 5.7851 28.4822 5.74201C28.9396 5.68898 29.3108 5.64589 29.5958 5.61275C29.8809 5.57629 30.088 5.51829 30.2173 5.43874C30.3465 5.3592 30.4112 5.22994 30.4112 5.05096V5.01616C30.4112 4.58197 30.2885 4.24556 30.0433 4.00692C29.8013 3.76829 29.4401 3.64897 28.9595 3.64897C28.459 3.64897 28.0646 3.76 27.7762 3.98207C27.4912 4.20082 27.294 4.44442 27.1846 4.71289L25.7876 4.39471C25.9533 3.93069 26.1953 3.55617 26.5134 3.27113C26.8349 2.98278 27.2045 2.77397 27.6221 2.64471C28.0397 2.51213 28.4789 2.44585 28.9396 2.44585C29.2445 2.44585 29.5677 2.4823 29.909 2.55522C30.2537 2.62482 30.5752 2.75408 30.8735 2.943C31.1751 3.13192 31.4221 3.40205 31.6143 3.75337C31.8065 4.10138 31.9027 4.5538 31.9027 5.11062V10.1816H30.4509V9.13761H30.3913C30.2952 9.32984 30.151 9.51876 29.9588 9.70437C29.7665 9.88997 29.5196 10.0441 29.218 10.1667C28.9164 10.2894 28.5551 10.3507 28.1342 10.3507ZM28.4573 9.15749C28.8683 9.15749 29.2197 9.07629 29.5113 8.91388C29.8063 8.75148 30.03 8.53936 30.1825 8.27752C30.3383 8.01237 30.4161 7.72899 30.4161 7.42738V6.443C30.3631 6.49603 30.2604 6.54575 30.1079 6.59215C29.9588 6.63524 29.7881 6.67335 29.5958 6.7065C29.4036 6.73633 29.2163 6.7645 29.034 6.79102C28.8518 6.81422 28.6993 6.8341 28.5767 6.85067C28.2883 6.88713 28.0248 6.94845 27.7862 7.03462C27.5509 7.1208 27.3619 7.24509 27.2194 7.40749C27.0802 7.56658 27.0106 7.7787 27.0106 8.04386C27.0106 8.41175 27.1465 8.69016 27.4183 8.87908C27.6901 9.06469 28.0364 9.15749 28.4573 9.15749ZM33.8826 10.1816V2.54528H35.3691V5.74698H36.085L38.6056 2.54528H40.4451L37.487 6.25906L40.4799 10.1816H38.6354L36.3336 7.12908H35.3691V10.1816H33.8826ZM41.207 3.82795V2.54528H47.6502V3.82795H45.1594V10.1816H43.7077V3.82795H41.207ZM50.6791 8.09854L54.0449 2.54528H55.6457V10.1816H54.1891V4.6234L50.8382 10.1816H49.2224V2.54528H50.6791V8.09854ZM57.6443 13.0453V2.54528H59.096V3.7832H59.2203C59.3065 3.62411 59.4308 3.44016 59.5932 3.23136C59.7556 3.02255 59.981 2.84026 60.2693 2.68448C60.5577 2.52539 60.9388 2.44585 61.4128 2.44585C62.0293 2.44585 62.5794 2.60162 63.0633 2.91317C63.5472 3.22473 63.9267 3.67383 64.2018 4.26048C64.4802 4.84712 64.6195 5.55309 64.6195 6.37837C64.6195 7.20366 64.4819 7.91128 64.2068 8.50124C63.9317 9.08789 63.5539 9.54031 63.0733 9.85849C62.5927 10.1734 62.0442 10.3308 61.4277 10.3308C60.9637 10.3308 60.5842 10.2529 60.2892 10.0971C59.9975 9.94135 59.7688 9.75906 59.6031 9.55025C59.4374 9.34144 59.3098 9.15584 59.2203 8.99343H59.1308V13.0453H57.6443ZM59.101 6.36346C59.101 6.90039 59.1789 7.37103 59.3347 7.77539C59.4904 8.17975 59.7158 8.49627 60.0108 8.72496C60.3058 8.95034 60.667 9.06303 61.0946 9.06303C61.5387 9.06303 61.9099 8.94537 62.2082 8.71005C62.5065 8.47141 62.7319 8.14826 62.8844 7.74059C63.0401 7.33292 63.118 6.87388 63.118 6.36346C63.118 5.85967 63.0418 5.40726 62.8893 5.00621C62.7402 4.60517 62.5148 4.28865 62.2132 4.05664C61.9149 3.82463 61.542 3.70863 61.0946 3.70863C60.6637 3.70863 60.2991 3.81966 60.0008 4.04173C59.7059 4.26379 59.4821 4.57369 59.3297 4.97141C59.1772 5.36914 59.101 5.83316 59.101 6.36346ZM69.5016 10.3358C68.7856 10.3358 68.1609 10.1717 67.6273 9.84357C67.0936 9.51545 66.6793 9.0564 66.3844 8.46644C66.0894 7.87648 65.9419 7.18709 65.9419 6.39826C65.9419 5.60612 66.0894 4.91341 66.3844 4.32013C66.6793 3.72686 67.0936 3.26616 67.6273 2.93803C68.1609 2.60991 68.7856 2.44585 69.5016 2.44585C70.2175 2.44585 70.8422 2.60991 71.3758 2.93803C71.9095 3.26616 72.3238 3.72686 72.6187 4.32013C72.9137 4.91341 73.0612 5.60612 73.0612 6.39826C73.0612 7.18709 72.9137 7.87648 72.6187 8.46644C72.3238 9.0564 71.9095 9.51545 71.3758 9.84357C70.8422 10.1717 70.2175 10.3358 69.5016 10.3358ZM69.5065 9.08789C69.9705 9.08789 70.355 8.96526 70.6599 8.71999C70.9649 8.47473 71.1902 8.14826 71.3361 7.74059C71.4852 7.33292 71.5598 6.88382 71.5598 6.39329C71.5598 5.90607 71.4852 5.45863 71.3361 5.05096C71.1902 4.63997 70.9649 4.31019 70.6599 4.06161C70.355 3.81303 69.9705 3.68874 69.5065 3.68874C69.0392 3.68874 68.6514 3.81303 68.3432 4.06161C68.0382 4.31019 67.8112 4.63997 67.6621 5.05096C67.5162 5.45863 67.4433 5.90607 67.4433 6.39329C67.4433 6.88382 67.5162 7.33292 67.6621 7.74059C67.8112 8.14826 68.0382 8.47473 68.3432 8.71999C68.6514 8.96526 69.0392 9.08789 69.5065 9.08789ZM74.7205 10.1816V2.54528H77.8874C78.7491 2.54528 79.4319 2.72923 79.9357 3.09712C80.4395 3.46171 80.6914 3.95721 80.6914 4.58363C80.6914 5.03107 80.5488 5.38571 80.2638 5.64755C79.9788 5.90939 79.6009 6.08505 79.1303 6.17454C79.4717 6.21431 79.7849 6.31706 80.0699 6.48278C80.355 6.64518 80.5836 6.86393 80.756 7.13903C80.9317 7.41412 81.0195 7.74225 81.0195 8.1234C81.0195 8.52776 80.9151 8.88571 80.7063 9.19727C80.4975 9.5055 80.1942 9.74745 79.7965 9.92312C79.4021 10.0955 78.9264 10.1816 78.3696 10.1816H74.7205ZM76.1175 8.93874H78.3696C78.7375 8.93874 79.0259 8.85091 79.2347 8.67525C79.4435 8.49959 79.5479 8.26095 79.5479 7.95934C79.5479 7.6047 79.4435 7.32629 79.2347 7.12411C79.0259 6.91862 78.7375 6.81587 78.3696 6.81587H76.1175V8.93874ZM76.1175 5.7271H77.9023C78.1807 5.7271 78.4193 5.68732 78.6182 5.60778C78.8204 5.52823 78.9745 5.41554 79.0806 5.26971C79.1899 5.12056 79.2446 4.9449 79.2446 4.74272C79.2446 4.44774 79.1237 4.21739 78.8817 4.05167C78.6398 3.88595 78.3083 3.80309 77.8874 3.80309H76.1175V5.7271ZM84.8725 10.3507C84.3886 10.3507 83.9511 10.2612 83.56 10.0822C83.1689 9.89992 82.859 9.63642 82.6303 9.29173C82.4049 8.94703 82.2922 8.52444 82.2922 8.02397C82.2922 7.5931 82.3751 7.23846 82.5408 6.96005C82.7065 6.68164 82.9302 6.46123 83.212 6.29883C83.4937 6.13642 83.8085 6.01379 84.1566 5.93093C84.5046 5.84807 84.8592 5.7851 85.2205 5.74201C85.6779 5.68898 86.0491 5.64589 86.3341 5.61275C86.6192 5.57629 86.8263 5.51829 86.9556 5.43874C87.0848 5.3592 87.1495 5.22994 87.1495 5.05096V5.01616C87.1495 4.58197 87.0268 4.24556 86.7816 4.00692C86.5396 3.76829 86.1783 3.64897 85.6978 3.64897C85.1973 3.64897 84.8029 3.76 84.5145 3.98207C84.2295 4.20082 84.0323 4.44442 83.9229 4.71289L82.5259 4.39471C82.6916 3.93069 82.9335 3.55617 83.2517 3.27113C83.5732 2.98278 83.9428 2.77397 84.3604 2.64471C84.778 2.51213 85.2172 2.44585 85.6779 2.44585C85.9828 2.44585 86.3059 2.4823 86.6473 2.55522C86.992 2.62482 87.3135 2.75408 87.6118 2.943C87.9134 3.13192 88.1603 3.40205 88.3526 3.75337C88.5448 4.10138 88.6409 4.5538 88.6409 5.11062V10.1816H87.1892V9.13761H87.1296C87.0335 9.32984 86.8893 9.51876 86.697 9.70437C86.5048 9.88997 86.2579 10.0441 85.9563 10.1667C85.6547 10.2894 85.2934 10.3507 84.8725 10.3507ZM85.1956 9.15749C85.6066 9.15749 85.9579 9.07629 86.2496 8.91388C86.5446 8.75148 86.7683 8.53936 86.9208 8.27752C87.0765 8.01237 87.1544 7.72899 87.1544 7.42738V6.443C87.1014 6.49603 86.9987 6.54575 86.8462 6.59215C86.697 6.63524 86.5264 6.67335 86.3341 6.7065C86.1419 6.73633 85.9546 6.7645 85.7723 6.79102C85.59 6.81422 85.4376 6.8341 85.3149 6.85067C85.0266 6.88713 84.7631 6.94845 84.5245 7.03462C84.2891 7.1208 84.1002 7.24509 83.9577 7.40749C83.8185 7.56658 83.7489 7.7787 83.7489 8.04386C83.7489 8.41175 83.8848 8.69016 84.1566 8.87908C84.4283 9.06469 84.7747 9.15749 85.1956 9.15749ZM95.7963 5.72212V7.00977H91.6599V5.72212H95.7963ZM92.0775 2.54528V10.1816H90.6209V2.54528H92.0775ZM96.8354 2.54528V10.1816H95.3837V2.54528H96.8354ZM100.281 8.09854L103.646 2.54528H105.247V10.1816H103.791V4.6234L100.44 10.1816H98.824V2.54528H100.281V8.09854ZM110.537 10.3358C109.785 10.3358 109.137 10.175 108.593 9.85352C108.053 9.52871 107.635 9.07298 107.34 8.48633C107.049 7.89637 106.903 7.20531 106.903 6.41317C106.903 5.63098 107.049 4.94158 107.34 4.34499C107.635 3.7484 108.046 3.28273 108.573 2.94798C109.104 2.61322 109.723 2.44585 110.433 2.44585C110.864 2.44585 111.281 2.5171 111.686 2.65962C112.09 2.80214 112.453 3.02586 112.774 3.33079C113.096 3.63571 113.349 4.03178 113.535 4.519C113.721 5.0029 113.813 5.5912 113.813 6.28391V6.8109H107.743V5.69727H112.357C112.357 5.30617 112.277 4.95981 112.118 4.6582C111.959 4.35328 111.735 4.11299 111.447 3.93732C111.162 3.76166 110.827 3.67383 110.443 3.67383C110.025 3.67383 109.66 3.77657 109.349 3.98207C109.041 4.18424 108.802 4.4494 108.633 4.77752C108.467 5.10233 108.384 5.45531 108.384 5.83647V6.7065C108.384 7.21692 108.474 7.6511 108.653 8.00906C108.835 8.36701 109.089 8.64045 109.413 8.82937C109.738 9.01497 110.118 9.10778 110.552 9.10778C110.834 9.10778 111.091 9.068 111.323 8.98846C111.555 8.9056 111.755 8.78297 111.924 8.62056C112.093 8.45816 112.222 8.25763 112.312 8.019L113.719 8.27255C113.606 8.68685 113.404 9.04978 113.112 9.36133C112.824 9.66957 112.461 9.90986 112.024 10.0822C111.589 10.2512 111.094 10.3358 110.537 10.3358ZM122.454 12.7818V-0.00017786H123.94V12.7818H122.454ZM122.454 10.3358C121.914 10.3358 121.422 10.243 120.977 10.0574C120.533 9.86843 120.15 9.59996 119.829 9.25195C119.507 8.90394 119.259 8.48799 119.083 8.00408C118.911 7.52018 118.825 6.98491 118.825 6.39826C118.825 5.80498 118.911 5.26639 119.083 4.78249C119.259 4.29859 119.507 3.88263 119.829 3.53462C120.15 3.18661 120.533 2.91815 120.977 2.72923C121.422 2.54031 121.914 2.44585 122.454 2.44585H122.822V10.3358H122.454ZM122.454 9.08292H122.663V3.69869H122.454C122.096 3.69869 121.784 3.7716 121.519 3.91744C121.254 4.05995 121.034 4.25716 120.858 4.50906C120.682 4.75763 120.55 5.04433 120.46 5.36914C120.374 5.69395 120.331 6.03699 120.331 6.39826C120.331 6.88216 120.409 7.32795 120.565 7.73562C120.721 8.13997 120.956 8.46644 121.271 8.71502C121.586 8.96029 121.98 9.08292 122.454 9.08292ZM123.94 10.3358H123.568V2.44585H123.94C124.481 2.44585 124.973 2.54031 125.417 2.72923C125.861 2.91815 126.242 3.18661 126.561 3.53462C126.882 3.88263 127.129 4.29859 127.301 4.78249C127.477 5.26639 127.565 5.80498 127.565 6.39826C127.565 6.98491 127.477 7.52018 127.301 8.00408C127.129 8.48799 126.882 8.90394 126.561 9.25195C126.242 9.59996 125.861 9.86843 125.417 10.0574C124.973 10.243 124.481 10.3358 123.94 10.3358ZM123.94 9.08292C124.298 9.08292 124.61 9.01332 124.875 8.87411C125.14 8.73159 125.361 8.53604 125.536 8.28746C125.712 8.03557 125.843 7.74888 125.929 7.42738C126.015 7.10257 126.058 6.75953 126.058 6.39826C126.058 5.91767 125.98 5.47354 125.825 5.06587C125.672 4.65489 125.439 4.32511 125.124 4.07653C124.809 3.82463 124.414 3.69869 123.94 3.69869H123.727V9.08292H123.94ZM132.433 10.3358C131.717 10.3358 131.093 10.1717 130.559 9.84357C130.025 9.51545 129.611 9.0564 129.316 8.46644C129.021 7.87648 128.874 7.18709 128.874 6.39826C128.874 5.60612 129.021 4.91341 129.316 4.32013C129.611 3.72686 130.025 3.26616 130.559 2.93803C131.093 2.60991 131.717 2.44585 132.433 2.44585C133.149 2.44585 133.774 2.60991 134.307 2.93803C134.841 3.26616 135.255 3.72686 135.55 4.32013C135.845 4.91341 135.993 5.60612 135.993 6.39826C135.993 7.18709 135.845 7.87648 135.55 8.46644C135.255 9.0564 134.841 9.51545 134.307 9.84357C133.774 10.1717 133.149 10.3358 132.433 10.3358ZM132.438 9.08789C132.902 9.08789 133.287 8.96526 133.592 8.71999C133.896 8.47473 134.122 8.14826 134.268 7.74059C134.417 7.33292 134.491 6.88382 134.491 6.39329C134.491 5.90607 134.417 5.45863 134.268 5.05096C134.122 4.63997 133.896 4.31019 133.592 4.06161C133.287 3.81303 132.902 3.68874 132.438 3.68874C131.971 3.68874 131.583 3.81303 131.275 4.06161C130.97 4.31019 130.743 4.63997 130.594 5.05096C130.448 5.45863 130.375 5.90607 130.375 6.39329C130.375 6.88382 130.448 7.33292 130.594 7.74059C130.743 8.14826 130.97 8.47473 131.275 8.71999C131.583 8.96526 131.971 9.08789 132.438 9.08789ZM136.732 3.82795V2.54528H143.176V3.82795H140.685V10.1816H139.233V3.82795H136.732ZM147.609 10.3358C146.893 10.3358 146.268 10.1717 145.735 9.84357C145.201 9.51545 144.787 9.0564 144.492 8.46644C144.197 7.87648 144.049 7.18709 144.049 6.39826C144.049 5.60612 144.197 4.91341 144.492 4.32013C144.787 3.72686 145.201 3.26616 145.735 2.93803C146.268 2.60991 146.893 2.44585 147.609 2.44585C148.325 2.44585 148.95 2.60991 149.483 2.93803C150.017 3.26616 150.431 3.72686 150.726 4.32013C151.021 4.91341 151.169 5.60612 151.169 6.39826C151.169 7.18709 151.021 7.87648 150.726 8.46644C150.431 9.0564 150.017 9.51545 149.483 9.84357C148.95 10.1717 148.325 10.3358 147.609 10.3358ZM147.614 9.08789C148.078 9.08789 148.462 8.96526 148.767 8.71999C149.072 8.47473 149.298 8.14826 149.443 7.74059C149.593 7.33292 149.667 6.88382 149.667 6.39329C149.667 5.90607 149.593 5.45863 149.443 5.05096C149.298 4.63997 149.072 4.31019 148.767 4.06161C148.462 3.81303 148.078 3.68874 147.614 3.68874C147.147 3.68874 146.759 3.81303 146.451 4.06161C146.146 4.31019 145.919 4.63997 145.769 5.05096C145.624 5.45863 145.551 5.90607 145.551 6.39329C145.551 6.88382 145.624 7.33292 145.769 7.74059C145.919 8.14826 146.146 8.47473 146.451 8.71999C146.759 8.96526 147.147 9.08789 147.614 9.08789Z" fill="url(#paint0_linear_951_10849)"/>
<path d="M-4.43608e-05 10.1816V-0.00017786H3.62922C4.42136 -0.00017786 5.07761 0.143998 5.59797 0.43235C6.11833 0.720703 6.50777 1.11512 6.76629 1.61559C7.02481 2.11275 7.15408 2.67288 7.15408 3.29599C7.15408 3.92241 7.02316 4.48585 6.76132 4.98633C6.5028 5.48349 6.1117 5.8779 5.58802 6.16957C5.06766 6.45792 4.41307 6.6021 3.62425 6.6021H1.12851V5.29954H3.48504C3.98551 5.29954 4.39153 5.21336 4.70308 5.04102C5.01463 4.86535 5.24333 4.62672 5.38916 4.32511C5.53499 4.0235 5.60791 3.68046 5.60791 3.29599C5.60791 2.91152 5.53499 2.57013 5.38916 2.27184C5.24333 1.97354 5.01298 1.73988 4.69811 1.57085C4.38656 1.40181 3.97557 1.31729 3.46515 1.31729H1.53618V10.1816H-4.43608e-05ZM12.0312 10.3358C11.2788 10.3358 10.6309 10.175 10.0873 9.85352C9.54707 9.52871 9.12945 9.07298 8.83447 8.48633C8.54281 7.89637 8.39697 7.20531 8.39697 6.41317C8.39697 5.63098 8.54281 4.94158 8.83447 4.34499C9.12945 3.7484 9.54044 3.28273 10.0674 2.94798C10.5977 2.61322 11.2175 2.44585 11.9268 2.44585C12.3577 2.44585 12.7753 2.5171 13.1796 2.65962C13.584 2.80214 13.9469 3.02586 14.2684 3.33079C14.5899 3.63571 14.8435 4.03178 15.0291 4.519C15.2147 5.0029 15.3075 5.5912 15.3075 6.28391V6.8109H9.23717V5.69727H13.8508C13.8508 5.30617 13.7713 4.95981 13.6122 4.6582C13.4531 4.35328 13.2294 4.11299 12.941 3.93732C12.656 3.76166 12.3212 3.67383 11.9367 3.67383C11.5191 3.67383 11.1545 3.77657 10.843 3.98207C10.5348 4.18424 10.2961 4.4494 10.1271 4.77752C9.96137 5.10233 9.87851 5.45531 9.87851 5.83647V6.7065C9.87851 7.21692 9.968 7.6511 10.147 8.00906C10.3293 8.36701 10.5828 8.64045 10.9076 8.82937C11.2324 9.01497 11.6119 9.10778 12.0461 9.10778C12.3278 9.10778 12.5847 9.068 12.8167 8.98846C13.0487 8.9056 13.2492 8.78297 13.4183 8.62056C13.5873 8.45816 13.7166 8.25763 13.8061 8.019L15.213 8.27255C15.1003 8.68685 14.8982 9.04978 14.6065 9.36133C14.3181 9.66957 13.9552 9.90986 13.5177 10.0822C13.0835 10.2512 12.588 10.3358 12.0312 10.3358ZM16.2111 12.3841V8.894H16.8325C16.9916 8.74817 17.1258 8.57416 17.2352 8.37198C17.3479 8.1698 17.4424 7.92951 17.5186 7.6511C17.5981 7.37269 17.6644 7.04788 17.7175 6.67667C17.7705 6.30214 17.8169 5.87459 17.8567 5.394L18.0953 2.54528H23.2856V8.894H24.4589V12.3841H23.0072V10.1816H17.6827V12.3841H16.2111ZM18.4234 8.894H21.8339V3.818H19.4277L19.2686 5.394C19.1924 6.19608 19.0963 6.8921 18.9802 7.48207C18.8642 8.06871 18.6786 8.53936 18.4234 8.894ZM28.1342 10.3507C27.6503 10.3507 27.2128 10.2612 26.8217 10.0822C26.4306 9.89992 26.1207 9.63642 25.892 9.29173C25.6666 8.94703 25.5539 8.52444 25.5539 8.02397C25.5539 7.5931 25.6368 7.23846 25.8025 6.96005C25.9682 6.68164 26.192 6.46123 26.4737 6.29883C26.7554 6.13642 27.0703 6.01379 27.4183 5.93093C27.7663 5.84807 28.1209 5.7851 28.4822 5.74201C28.9396 5.68898 29.3108 5.64589 29.5958 5.61275C29.8809 5.57629 30.088 5.51829 30.2173 5.43874C30.3465 5.3592 30.4112 5.22994 30.4112 5.05096V5.01616C30.4112 4.58197 30.2885 4.24556 30.0433 4.00692C29.8013 3.76829 29.4401 3.64897 28.9595 3.64897C28.459 3.64897 28.0646 3.76 27.7762 3.98207C27.4912 4.20082 27.294 4.44442 27.1846 4.71289L25.7876 4.39471C25.9533 3.93069 26.1953 3.55617 26.5134 3.27113C26.8349 2.98278 27.2045 2.77397 27.6221 2.64471C28.0397 2.51213 28.4789 2.44585 28.9396 2.44585C29.2445 2.44585 29.5677 2.4823 29.909 2.55522C30.2537 2.62482 30.5752 2.75408 30.8735 2.943C31.1751 3.13192 31.4221 3.40205 31.6143 3.75337C31.8065 4.10138 31.9027 4.5538 31.9027 5.11062V10.1816H30.4509V9.13761H30.3913C30.2952 9.32984 30.151 9.51876 29.9588 9.70437C29.7665 9.88997 29.5196 10.0441 29.218 10.1667C28.9164 10.2894 28.5551 10.3507 28.1342 10.3507ZM28.4573 9.15749C28.8683 9.15749 29.2197 9.07629 29.5113 8.91388C29.8063 8.75148 30.03 8.53936 30.1825 8.27752C30.3383 8.01237 30.4161 7.72899 30.4161 7.42738V6.443C30.3631 6.49603 30.2604 6.54575 30.1079 6.59215C29.9588 6.63524 29.7881 6.67335 29.5958 6.7065C29.4036 6.73633 29.2163 6.7645 29.034 6.79102C28.8518 6.81422 28.6993 6.8341 28.5767 6.85067C28.2883 6.88713 28.0248 6.94845 27.7862 7.03462C27.5509 7.1208 27.3619 7.24509 27.2194 7.40749C27.0802 7.56658 27.0106 7.7787 27.0106 8.04386C27.0106 8.41175 27.1465 8.69016 27.4183 8.87908C27.6901 9.06469 28.0364 9.15749 28.4573 9.15749ZM33.8826 10.1816V2.54528H35.3691V5.74698H36.085L38.6056 2.54528H40.4451L37.487 6.25906L40.4799 10.1816H38.6354L36.3336 7.12908H35.3691V10.1816H33.8826ZM41.207 3.82795V2.54528H47.6502V3.82795H45.1594V10.1816H43.7077V3.82795H41.207ZM50.6791 8.09854L54.0449 2.54528H55.6457V10.1816H54.1891V4.6234L50.8382 10.1816H49.2224V2.54528H50.6791V8.09854ZM57.6443 13.0453V2.54528H59.096V3.7832H59.2203C59.3065 3.62411 59.4308 3.44016 59.5932 3.23136C59.7556 3.02255 59.981 2.84026 60.2693 2.68448C60.5577 2.52539 60.9388 2.44585 61.4128 2.44585C62.0293 2.44585 62.5794 2.60162 63.0633 2.91317C63.5472 3.22473 63.9267 3.67383 64.2018 4.26048C64.4802 4.84712 64.6195 5.55309 64.6195 6.37837C64.6195 7.20366 64.4819 7.91128 64.2068 8.50124C63.9317 9.08789 63.5539 9.54031 63.0733 9.85849C62.5927 10.1734 62.0442 10.3308 61.4277 10.3308C60.9637 10.3308 60.5842 10.2529 60.2892 10.0971C59.9975 9.94135 59.7688 9.75906 59.6031 9.55025C59.4374 9.34144 59.3098 9.15584 59.2203 8.99343H59.1308V13.0453H57.6443ZM59.101 6.36346C59.101 6.90039 59.1789 7.37103 59.3347 7.77539C59.4904 8.17975 59.7158 8.49627 60.0108 8.72496C60.3058 8.95034 60.667 9.06303 61.0946 9.06303C61.5387 9.06303 61.9099 8.94537 62.2082 8.71005C62.5065 8.47141 62.7319 8.14826 62.8844 7.74059C63.0401 7.33292 63.118 6.87388 63.118 6.36346C63.118 5.85967 63.0418 5.40726 62.8893 5.00621C62.7402 4.60517 62.5148 4.28865 62.2132 4.05664C61.9149 3.82463 61.542 3.70863 61.0946 3.70863C60.6637 3.70863 60.2991 3.81966 60.0008 4.04173C59.7059 4.26379 59.4821 4.57369 59.3297 4.97141C59.1772 5.36914 59.101 5.83316 59.101 6.36346ZM69.5016 10.3358C68.7856 10.3358 68.1609 10.1717 67.6273 9.84357C67.0936 9.51545 66.6793 9.0564 66.3844 8.46644C66.0894 7.87648 65.9419 7.18709 65.9419 6.39826C65.9419 5.60612 66.0894 4.91341 66.3844 4.32013C66.6793 3.72686 67.0936 3.26616 67.6273 2.93803C68.1609 2.60991 68.7856 2.44585 69.5016 2.44585C70.2175 2.44585 70.8422 2.60991 71.3758 2.93803C71.9095 3.26616 72.3238 3.72686 72.6187 4.32013C72.9137 4.91341 73.0612 5.60612 73.0612 6.39826C73.0612 7.18709 72.9137 7.87648 72.6187 8.46644C72.3238 9.0564 71.9095 9.51545 71.3758 9.84357C70.8422 10.1717 70.2175 10.3358 69.5016 10.3358ZM69.5065 9.08789C69.9705 9.08789 70.355 8.96526 70.6599 8.71999C70.9649 8.47473 71.1902 8.14826 71.3361 7.74059C71.4852 7.33292 71.5598 6.88382 71.5598 6.39329C71.5598 5.90607 71.4852 5.45863 71.3361 5.05096C71.1902 4.63997 70.9649 4.31019 70.6599 4.06161C70.355 3.81303 69.9705 3.68874 69.5065 3.68874C69.0392 3.68874 68.6514 3.81303 68.3432 4.06161C68.0382 4.31019 67.8112 4.63997 67.6621 5.05096C67.5162 5.45863 67.4433 5.90607 67.4433 6.39329C67.4433 6.88382 67.5162 7.33292 67.6621 7.74059C67.8112 8.14826 68.0382 8.47473 68.3432 8.71999C68.6514 8.96526 69.0392 9.08789 69.5065 9.08789ZM74.7205 10.1816V2.54528H77.8874C78.7491 2.54528 79.4319 2.72923 79.9357 3.09712C80.4395 3.46171 80.6914 3.95721 80.6914 4.58363C80.6914 5.03107 80.5488 5.38571 80.2638 5.64755C79.9788 5.90939 79.6009 6.08505 79.1303 6.17454C79.4717 6.21431 79.7849 6.31706 80.0699 6.48278C80.355 6.64518 80.5836 6.86393 80.756 7.13903C80.9317 7.41412 81.0195 7.74225 81.0195 8.1234C81.0195 8.52776 80.9151 8.88571 80.7063 9.19727C80.4975 9.5055 80.1942 9.74745 79.7965 9.92312C79.4021 10.0955 78.9264 10.1816 78.3696 10.1816H74.7205ZM76.1175 8.93874H78.3696C78.7375 8.93874 79.0259 8.85091 79.2347 8.67525C79.4435 8.49959 79.5479 8.26095 79.5479 7.95934C79.5479 7.6047 79.4435 7.32629 79.2347 7.12411C79.0259 6.91862 78.7375 6.81587 78.3696 6.81587H76.1175V8.93874ZM76.1175 5.7271H77.9023C78.1807 5.7271 78.4193 5.68732 78.6182 5.60778C78.8204 5.52823 78.9745 5.41554 79.0806 5.26971C79.1899 5.12056 79.2446 4.9449 79.2446 4.74272C79.2446 4.44774 79.1237 4.21739 78.8817 4.05167C78.6398 3.88595 78.3083 3.80309 77.8874 3.80309H76.1175V5.7271ZM84.8725 10.3507C84.3886 10.3507 83.9511 10.2612 83.56 10.0822C83.1689 9.89992 82.859 9.63642 82.6303 9.29173C82.4049 8.94703 82.2922 8.52444 82.2922 8.02397C82.2922 7.5931 82.3751 7.23846 82.5408 6.96005C82.7065 6.68164 82.9302 6.46123 83.212 6.29883C83.4937 6.13642 83.8085 6.01379 84.1566 5.93093C84.5046 5.84807 84.8592 5.7851 85.2205 5.74201C85.6779 5.68898 86.0491 5.64589 86.3341 5.61275C86.6192 5.57629 86.8263 5.51829 86.9556 5.43874C87.0848 5.3592 87.1495 5.22994 87.1495 5.05096V5.01616C87.1495 4.58197 87.0268 4.24556 86.7816 4.00692C86.5396 3.76829 86.1783 3.64897 85.6978 3.64897C85.1973 3.64897 84.8029 3.76 84.5145 3.98207C84.2295 4.20082 84.0323 4.44442 83.9229 4.71289L82.5259 4.39471C82.6916 3.93069 82.9335 3.55617 83.2517 3.27113C83.5732 2.98278 83.9428 2.77397 84.3604 2.64471C84.778 2.51213 85.2172 2.44585 85.6779 2.44585C85.9828 2.44585 86.3059 2.4823 86.6473 2.55522C86.992 2.62482 87.3135 2.75408 87.6118 2.943C87.9134 3.13192 88.1603 3.40205 88.3526 3.75337C88.5448 4.10138 88.6409 4.5538 88.6409 5.11062V10.1816H87.1892V9.13761H87.1296C87.0335 9.32984 86.8893 9.51876 86.697 9.70437C86.5048 9.88997 86.2579 10.0441 85.9563 10.1667C85.6547 10.2894 85.2934 10.3507 84.8725 10.3507ZM85.1956 9.15749C85.6066 9.15749 85.9579 9.07629 86.2496 8.91388C86.5446 8.75148 86.7683 8.53936 86.9208 8.27752C87.0765 8.01237 87.1544 7.72899 87.1544 7.42738V6.443C87.1014 6.49603 86.9987 6.54575 86.8462 6.59215C86.697 6.63524 86.5264 6.67335 86.3341 6.7065C86.1419 6.73633 85.9546 6.7645 85.7723 6.79102C85.59 6.81422 85.4376 6.8341 85.3149 6.85067C85.0266 6.88713 84.7631 6.94845 84.5245 7.03462C84.2891 7.1208 84.1002 7.24509 83.9577 7.40749C83.8185 7.56658 83.7489 7.7787 83.7489 8.04386C83.7489 8.41175 83.8848 8.69016 84.1566 8.87908C84.4283 9.06469 84.7747 9.15749 85.1956 9.15749ZM95.7963 5.72212V7.00977H91.6599V5.72212H95.7963ZM92.0775 2.54528V10.1816H90.6209V2.54528H92.0775ZM96.8354 2.54528V10.1816H95.3837V2.54528H96.8354ZM100.281 8.09854L103.646 2.54528H105.247V10.1816H103.791V4.6234L100.44 10.1816H98.824V2.54528H100.281V8.09854ZM110.537 10.3358C109.785 10.3358 109.137 10.175 108.593 9.85352C108.053 9.52871 107.635 9.07298 107.34 8.48633C107.049 7.89637 106.903 7.20531 106.903 6.41317C106.903 5.63098 107.049 4.94158 107.34 4.34499C107.635 3.7484 108.046 3.28273 108.573 2.94798C109.104 2.61322 109.723 2.44585 110.433 2.44585C110.864 2.44585 111.281 2.5171 111.686 2.65962C112.09 2.80214 112.453 3.02586 112.774 3.33079C113.096 3.63571 113.349 4.03178 113.535 4.519C113.721 5.0029 113.813 5.5912 113.813 6.28391V6.8109H107.743V5.69727H112.357C112.357 5.30617 112.277 4.95981 112.118 4.6582C111.959 4.35328 111.735 4.11299 111.447 3.93732C111.162 3.76166 110.827 3.67383 110.443 3.67383C110.025 3.67383 109.66 3.77657 109.349 3.98207C109.041 4.18424 108.802 4.4494 108.633 4.77752C108.467 5.10233 108.384 5.45531 108.384 5.83647V6.7065C108.384 7.21692 108.474 7.6511 108.653 8.00906C108.835 8.36701 109.089 8.64045 109.413 8.82937C109.738 9.01497 110.118 9.10778 110.552 9.10778C110.834 9.10778 111.091 9.068 111.323 8.98846C111.555 8.9056 111.755 8.78297 111.924 8.62056C112.093 8.45816 112.222 8.25763 112.312 8.019L113.719 8.27255C113.606 8.68685 113.404 9.04978 113.112 9.36133C112.824 9.66957 112.461 9.90986 112.024 10.0822C111.589 10.2512 111.094 10.3358 110.537 10.3358ZM122.454 12.7818V-0.00017786H123.94V12.7818H122.454ZM122.454 10.3358C121.914 10.3358 121.422 10.243 120.977 10.0574C120.533 9.86843 120.15 9.59996 119.829 9.25195C119.507 8.90394 119.259 8.48799 119.083 8.00408C118.911 7.52018 118.825 6.98491 118.825 6.39826C118.825 5.80498 118.911 5.26639 119.083 4.78249C119.259 4.29859 119.507 3.88263 119.829 3.53462C120.15 3.18661 120.533 2.91815 120.977 2.72923C121.422 2.54031 121.914 2.44585 122.454 2.44585H122.822V10.3358H122.454ZM122.454 9.08292H122.663V3.69869H122.454C122.096 3.69869 121.784 3.7716 121.519 3.91744C121.254 4.05995 121.034 4.25716 120.858 4.50906C120.682 4.75763 120.55 5.04433 120.46 5.36914C120.374 5.69395 120.331 6.03699 120.331 6.39826C120.331 6.88216 120.409 7.32795 120.565 7.73562C120.721 8.13997 120.956 8.46644 121.271 8.71502C121.586 8.96029 121.98 9.08292 122.454 9.08292ZM123.94 10.3358H123.568V2.44585H123.94C124.481 2.44585 124.973 2.54031 125.417 2.72923C125.861 2.91815 126.242 3.18661 126.561 3.53462C126.882 3.88263 127.129 4.29859 127.301 4.78249C127.477 5.26639 127.565 5.80498 127.565 6.39826C127.565 6.98491 127.477 7.52018 127.301 8.00408C127.129 8.48799 126.882 8.90394 126.561 9.25195C126.242 9.59996 125.861 9.86843 125.417 10.0574C124.973 10.243 124.481 10.3358 123.94 10.3358ZM123.94 9.08292C124.298 9.08292 124.61 9.01332 124.875 8.87411C125.14 8.73159 125.361 8.53604 125.536 8.28746C125.712 8.03557 125.843 7.74888 125.929 7.42738C126.015 7.10257 126.058 6.75953 126.058 6.39826C126.058 5.91767 125.98 5.47354 125.825 5.06587C125.672 4.65489 125.439 4.32511 125.124 4.07653C124.809 3.82463 124.414 3.69869 123.94 3.69869H123.727V9.08292H123.94ZM132.433 10.3358C131.717 10.3358 131.093 10.1717 130.559 9.84357C130.025 9.51545 129.611 9.0564 129.316 8.46644C129.021 7.87648 128.874 7.18709 128.874 6.39826C128.874 5.60612 129.021 4.91341 129.316 4.32013C129.611 3.72686 130.025 3.26616 130.559 2.93803C131.093 2.60991 131.717 2.44585 132.433 2.44585C133.149 2.44585 133.774 2.60991 134.307 2.93803C134.841 3.26616 135.255 3.72686 135.55 4.32013C135.845 4.91341 135.993 5.60612 135.993 6.39826C135.993 7.18709 135.845 7.87648 135.55 8.46644C135.255 9.0564 134.841 9.51545 134.307 9.84357C133.774 10.1717 133.149 10.3358 132.433 10.3358ZM132.438 9.08789C132.902 9.08789 133.287 8.96526 133.592 8.71999C133.896 8.47473 134.122 8.14826 134.268 7.74059C134.417 7.33292 134.491 6.88382 134.491 6.39329C134.491 5.90607 134.417 5.45863 134.268 5.05096C134.122 4.63997 133.896 4.31019 133.592 4.06161C133.287 3.81303 132.902 3.68874 132.438 3.68874C131.971 3.68874 131.583 3.81303 131.275 4.06161C130.97 4.31019 130.743 4.63997 130.594 5.05096C130.448 5.45863 130.375 5.90607 130.375 6.39329C130.375 6.88382 130.448 7.33292 130.594 7.74059C130.743 8.14826 130.97 8.47473 131.275 8.71999C131.583 8.96526 131.971 9.08789 132.438 9.08789ZM136.732 3.82795V2.54528H143.176V3.82795H140.685V10.1816H139.233V3.82795H136.732ZM147.609 10.3358C146.893 10.3358 146.268 10.1717 145.735 9.84357C145.201 9.51545 144.787 9.0564 144.492 8.46644C144.197 7.87648 144.049 7.18709 144.049 6.39826C144.049 5.60612 144.197 4.91341 144.492 4.32013C144.787 3.72686 145.201 3.26616 145.735 2.93803C146.268 2.60991 146.893 2.44585 147.609 2.44585C148.325 2.44585 148.95 2.60991 149.483 2.93803C150.017 3.26616 150.431 3.72686 150.726 4.32013C151.021 4.91341 151.169 5.60612 151.169 6.39826C151.169 7.18709 151.021 7.87648 150.726 8.46644C150.431 9.0564 150.017 9.51545 149.483 9.84357C148.95 10.1717 148.325 10.3358 147.609 10.3358ZM147.614 9.08789C148.078 9.08789 148.462 8.96526 148.767 8.71999C149.072 8.47473 149.298 8.14826 149.443 7.74059C149.593 7.33292 149.667 6.88382 149.667 6.39329C149.667 5.90607 149.593 5.45863 149.443 5.05096C149.298 4.63997 149.072 4.31019 148.767 4.06161C148.462 3.81303 148.078 3.68874 147.614 3.68874C147.147 3.68874 146.759 3.81303 146.451 4.06161C146.146 4.31019 145.919 4.63997 145.769 5.05096C145.624 5.45863 145.551 5.90607 145.551 6.39329C145.551 6.88382 145.624 7.33292 145.769 7.74059C145.919 8.14826 146.146 8.47473 146.451 8.71999C146.759 8.96526 147.147 9.08789 147.614 9.08789Z" fill="white" fill-opacity="0.3"/>
<defs>
<linearGradient id="paint0_linear_951_10849" x1="-1.11865" y1="5.18164" x2="151.881" y2="5.18164" gradientUnits="userSpaceOnUse">
<stop stop-color="#9747FF"/>
<stop offset="1" stop-color="#005FF9"/>
</linearGradient>
</defs>
</svg>
