<svg width="360" height="33" viewBox="0 0 360 33" fill="none" xmlns="http://www.w3.org/2000/svg">
<path d="M-1.11461e-05 26.3862V0.204412H9.81817C11.8295 0.204412 13.517 0.579412 14.8807 1.32941C16.2528 2.07941 17.2883 3.11066 17.9872 4.42316C18.6946 5.72714 19.0483 7.21009 19.0483 8.87203C19.0483 10.551 18.6946 12.0425 17.9872 13.3465C17.2798 14.6504 16.2358 15.6774 14.8551 16.4274C13.4744 17.1689 11.7741 17.5396 9.75425 17.5396H3.24715V13.6405H9.11505C10.2912 13.6405 11.2543 13.4359 12.0043 13.0269C12.7543 12.6178 13.3082 12.0553 13.6662 11.3394C14.0327 10.6234 14.2159 9.801 14.2159 8.87203C14.2159 7.94305 14.0327 7.12487 13.6662 6.41748C13.3082 5.71009 12.75 5.16038 11.9915 4.76833C11.2415 4.36776 10.2741 4.16748 9.08948 4.16748H4.74289V26.3862H-1.11461e-05ZM28.2624 26.7825C27.0181 26.7825 25.8974 26.5609 24.9002 26.1178C23.9116 25.6661 23.1275 25.0013 22.5479 24.1234C21.9769 23.2456 21.6914 22.1632 21.6914 20.8763C21.6914 19.7683 21.8959 18.8521 22.305 18.1277C22.7141 17.4033 23.2724 16.8237 23.9797 16.3891C24.6871 15.9544 25.484 15.6263 26.3704 15.4047C27.2653 15.1746 28.19 15.0084 29.1445 14.9061C30.2951 14.7868 31.2283 14.6803 31.9442 14.5865C32.6601 14.4842 33.18 14.3308 33.5039 14.1263C33.8363 13.9132 34.0025 13.5851 34.0025 13.1419V13.0652C34.0025 12.1021 33.717 11.3564 33.1459 10.828C32.5749 10.2996 31.7525 10.0354 30.6786 10.0354C29.5451 10.0354 28.6459 10.2825 27.9812 10.7769C27.3249 11.2712 26.8817 11.855 26.6516 12.5283L22.3306 11.9146C22.6715 10.7215 23.234 9.7243 24.0181 8.92316C24.8022 8.1135 25.761 7.50839 26.8945 7.10782C28.028 6.69873 29.2809 6.49419 30.653 6.49419C31.5991 6.49419 32.5408 6.60498 33.4783 6.82657C34.4158 7.04816 35.2724 7.41464 36.0479 7.926C36.8235 8.42884 37.4457 9.11492 37.9144 9.98424C38.3917 10.8536 38.6303 11.9402 38.6303 13.2442V26.3862H34.1815V23.6888H34.028C33.7468 24.2342 33.3505 24.7456 32.8391 25.2229C32.3363 25.6916 31.7013 26.0709 30.9343 26.3607C30.1758 26.6419 29.2851 26.7825 28.2624 26.7825ZM29.4641 23.382C30.3931 23.382 31.1985 23.1987 31.8803 22.8323C32.5621 22.4573 33.0863 21.9629 33.4528 21.3493C33.8278 20.7357 34.0153 20.0666 34.0153 19.3422V17.0283C33.8704 17.1476 33.6232 17.2584 33.2738 17.3607C32.9329 17.4629 32.5494 17.5524 32.1232 17.6291C31.6971 17.7058 31.2752 17.774 30.8576 17.8337C30.44 17.8933 30.0778 17.9445 29.7709 17.9871C29.0806 18.0808 28.4627 18.2342 27.9172 18.4473C27.3718 18.6604 26.9414 18.9587 26.6261 19.3422C26.3107 19.7172 26.153 20.203 26.153 20.7996C26.153 21.6519 26.4641 22.2953 27.0863 22.73C27.7084 23.1646 28.5011 23.382 29.4641 23.382ZM42.1971 21.0041H46.7866C46.8292 21.7371 47.1573 22.3038 47.7709 22.7044C48.3846 23.105 49.1815 23.3053 50.1616 23.3053C51.1587 23.3053 51.9982 23.0879 52.68 22.6533C53.3704 22.2101 53.7155 21.5411 53.7155 20.6462C53.7155 20.1178 53.5834 19.6533 53.3192 19.2527C53.055 18.8436 52.6843 18.5283 52.207 18.3067C51.7297 18.0851 51.1672 17.9743 50.5195 17.9743H47.5153V14.6888H50.5195C51.4826 14.6888 52.2113 14.4672 52.7056 14.024C53.2084 13.5808 53.4599 13.0226 53.4599 12.3493C53.4599 11.6249 53.1957 11.0368 52.6672 10.5851C52.1474 10.1334 51.4272 9.90754 50.5067 9.90754C49.5863 9.90754 48.8192 10.1163 48.2056 10.534C47.6005 10.9516 47.2851 11.4885 47.2596 12.1448H42.6957C42.7127 11.0027 43.0536 10.0098 43.7184 9.16606C44.3917 8.32231 45.2951 7.66606 46.4286 7.19731C47.5707 6.72856 48.8576 6.49419 50.2894 6.49419C51.8235 6.49419 53.1488 6.7243 54.2653 7.18453C55.3817 7.64475 56.2425 8.28822 56.8476 9.11492C57.4528 9.93311 57.7553 10.8962 57.7553 12.0041C57.7553 13.0695 57.4229 13.9516 56.7582 14.6504C56.0934 15.3408 55.1985 15.8351 54.0735 16.1334V16.3379C54.8491 16.3805 55.5479 16.6021 56.1701 17.0027C56.7922 17.3948 57.2866 17.9274 57.653 18.6007C58.0195 19.274 58.2028 20.0538 58.2028 20.9402C58.2028 22.1419 57.8576 23.1817 57.1672 24.0595C56.4769 24.9288 55.5266 25.5979 54.3164 26.0666C53.1147 26.5354 51.7383 26.7698 50.1871 26.7698C48.6786 26.7698 47.3278 26.5439 46.1346 26.0922C44.9499 25.632 44.0082 24.9715 43.3093 24.1107C42.6104 23.2499 42.2397 22.2144 42.1971 21.0041ZM60.4911 26.3862L60.4655 22.5766H61.1431C61.6545 22.5766 62.0849 22.4615 62.4343 22.2314C62.7837 22.0013 63.0735 21.6178 63.3036 21.0808C63.5337 20.5354 63.7127 19.8024 63.8405 18.882C63.9684 17.9615 64.0579 16.8152 64.109 15.443L64.4542 6.74987H78.7724V26.3862H74.2979V10.5467H68.6601L68.3533 16.8749C68.2766 18.5112 68.0934 19.9303 67.8036 21.132C67.5224 22.3252 67.1218 23.3095 66.6019 24.0851C66.0905 24.8607 65.4471 25.4402 64.6715 25.8237C63.8959 26.1987 62.9797 26.3862 61.9229 26.3862H60.4911ZM87.8938 20.122L95.756 6.74987H100.512V26.3862H96.0373V13.0013L88.2006 26.3862H83.4322V6.74987H87.8938V20.122ZM121.666 6.74987V26.3862H117.217V6.74987H121.666ZM119.582 15.622V19.4061C119.08 19.6277 118.509 19.828 117.869 20.007C117.239 20.1774 116.57 20.3138 115.862 20.4161C115.163 20.5183 114.464 20.5695 113.766 20.5695C111.141 20.5695 109.065 19.9814 107.54 18.8053C106.023 17.6206 105.264 15.7754 105.264 13.2698V6.7243H109.687V13.2698C109.687 14.1135 109.837 14.7911 110.135 15.3024C110.433 15.8138 110.885 16.1888 111.49 16.4274C112.095 16.6575 112.854 16.7726 113.766 16.7726C114.788 16.7726 115.76 16.6703 116.68 16.4658C117.601 16.2612 118.568 15.98 119.582 15.622ZM139.81 14.6504V18.4473H129.353V14.6504H139.81ZM130.784 6.74987V26.3862H126.323V6.74987H130.784ZM142.84 6.74987V26.3862H138.391V6.74987H142.84ZM150.654 13.1419H156.445C158.951 13.1419 160.89 13.7513 162.262 14.97C163.634 16.1888 164.325 17.7868 164.333 19.7641C164.325 21.051 164.009 22.193 163.387 23.1902C162.773 24.1874 161.879 24.9715 160.702 25.5425C159.535 26.105 158.116 26.3862 156.445 26.3862H147.522V6.74987H151.984V22.5894H156.445C157.451 22.5894 158.278 22.3337 158.925 21.8223C159.573 21.3024 159.897 20.6377 159.897 19.828C159.897 18.9757 159.573 18.2811 158.925 17.7442C158.278 17.2073 157.451 16.9388 156.445 16.9388H150.654V13.1419ZM166.775 26.3862V6.74987H171.403V26.3862H166.775ZM179.958 6.74987L183.922 13.9984L187.948 6.74987H192.845L186.926 16.568L192.947 26.3862H188.076L183.922 19.3166L179.805 26.3862H174.896L180.879 16.568L175.049 6.74987H179.958ZM216.655 21.0041L222.485 6.74987H226.218L218.279 26.3862H215.044L207.284 6.74987H210.979L216.655 21.0041ZM209.816 6.74987V26.3862H205.354V6.74987H209.816ZM223.686 26.3862V6.74987H228.11V26.3862H223.686ZM241.341 26.7698C239.424 26.7698 237.762 26.3479 236.355 25.5041C234.949 24.6604 233.858 23.48 233.083 21.9629C232.316 20.4459 231.932 18.6732 231.932 16.6448C231.932 14.6163 232.316 12.8394 233.083 11.3138C233.858 9.78822 234.949 8.60356 236.355 7.75981C237.762 6.91606 239.424 6.49419 241.341 6.49419C243.259 6.49419 244.921 6.91606 246.327 7.75981C247.733 8.60356 248.82 9.78822 249.587 11.3138C250.363 12.8394 250.75 14.6163 250.75 16.6448C250.75 18.6732 250.363 20.4459 249.587 21.9629C248.82 23.48 247.733 24.6604 246.327 25.5041C244.921 26.3479 243.259 26.7698 241.341 26.7698ZM241.367 23.0624C242.407 23.0624 243.276 22.7769 243.975 22.2058C244.674 21.6263 245.194 20.8507 245.534 19.8791C245.884 18.9075 246.059 17.8252 246.059 16.632C246.059 15.4303 245.884 14.3436 245.534 13.372C245.194 12.3919 244.674 11.6121 243.975 11.0325C243.276 10.453 242.407 10.1632 241.367 10.1632C240.301 10.1632 239.415 10.453 238.708 11.0325C238.009 11.6121 237.485 12.3919 237.135 13.372C236.794 14.3436 236.624 15.4303 236.624 16.632C236.624 17.8252 236.794 18.9075 237.135 19.8791C237.485 20.8507 238.009 21.6263 238.708 22.2058C239.415 22.7769 240.301 23.0624 241.367 23.0624ZM252.94 32.0879V22.5766H254.499C254.917 22.2527 255.266 21.8138 255.548 21.2598C255.829 20.6973 256.059 20.0368 256.238 19.2783C256.425 18.5112 256.579 17.6547 256.698 16.7087C256.817 15.7541 256.924 14.7271 257.018 13.6277L257.58 6.74987H271.771V22.5766H274.813V32.0879H270.339V26.3862H257.491V32.0879H252.94ZM259.255 22.5766H267.347V10.4828H261.594L261.288 13.6277C261.117 15.7073 260.891 17.4885 260.61 18.9715C260.329 20.4544 259.877 21.6561 259.255 22.5766ZM286.961 26.7698C284.993 26.7698 283.292 26.3607 281.86 25.5425C280.437 24.7158 279.342 23.5482 278.575 22.0396C277.808 20.5226 277.424 18.7371 277.424 16.6831C277.424 14.6632 277.808 12.8905 278.575 11.3649C279.35 9.83083 280.433 8.63765 281.822 7.78538C283.211 6.92458 284.843 6.49419 286.718 6.49419C287.929 6.49419 289.071 6.69021 290.145 7.08225C291.227 7.46578 292.181 8.06237 293.008 8.87203C293.843 9.68168 294.5 10.7129 294.977 11.9658C295.454 13.2101 295.693 14.693 295.693 16.4146V17.8337H279.598V14.7144H291.257C291.248 13.828 291.056 13.0396 290.681 12.3493C290.306 11.6504 289.782 11.1007 289.109 10.7002C288.444 10.2996 287.669 10.0993 286.782 10.0993C285.836 10.0993 285.005 10.3294 284.289 10.7896C283.573 11.2413 283.015 11.8379 282.615 12.5794C282.223 13.3124 282.022 14.1178 282.014 14.9956V17.7186C282.014 18.8607 282.223 19.8408 282.64 20.659C283.058 21.4686 283.642 22.0908 284.392 22.5254C285.142 22.9516 286.02 23.1646 287.025 23.1646C287.698 23.1646 288.308 23.0709 288.853 22.8834C289.399 22.6874 289.872 22.4019 290.272 22.0269C290.673 21.6519 290.975 21.1874 291.18 20.6334L295.501 21.1192C295.228 22.2612 294.708 23.2584 293.941 24.1107C293.183 24.9544 292.211 25.6107 291.027 26.0794C289.842 26.5396 288.487 26.7698 286.961 26.7698ZM298.253 26.3862L298.227 22.5766H298.905C299.416 22.5766 299.847 22.4615 300.196 22.2314C300.545 22.0013 300.835 21.6178 301.065 21.0808C301.295 20.5354 301.474 19.8024 301.602 18.882C301.73 17.9615 301.82 16.8152 301.871 15.443L302.216 6.74987H316.534V26.3862H312.06V10.5467H306.422L306.115 16.8749C306.038 18.5112 305.855 19.9303 305.565 21.132C305.284 22.3252 304.884 23.3095 304.364 24.0851C303.852 24.8607 303.209 25.4402 302.433 25.8237C301.658 26.1987 300.741 26.3862 299.685 26.3862H298.253ZM329.887 26.7698C327.918 26.7698 326.218 26.3607 324.786 25.5425C323.363 24.7158 322.268 23.5482 321.501 22.0396C320.734 20.5226 320.35 18.7371 320.35 16.6831C320.35 14.6632 320.734 12.8905 321.501 11.3649C322.276 9.83083 323.359 8.63765 324.748 7.78538C326.137 6.92458 327.769 6.49419 329.644 6.49419C330.854 6.49419 331.996 6.69021 333.07 7.08225C334.153 7.46578 335.107 8.06237 335.934 8.87203C336.769 9.68168 337.425 10.7129 337.903 11.9658C338.38 13.2101 338.619 14.693 338.619 16.4146V17.8337H322.523V14.7144H334.183C334.174 13.828 333.982 13.0396 333.607 12.3493C333.232 11.6504 332.708 11.1007 332.035 10.7002C331.37 10.2996 330.594 10.0993 329.708 10.0993C328.762 10.0993 327.931 10.3294 327.215 10.7896C326.499 11.2413 325.941 11.8379 325.54 12.5794C325.148 13.3124 324.948 14.1178 324.94 14.9956V17.7186C324.94 18.8607 325.148 19.8408 325.566 20.659C325.984 21.4686 326.567 22.0908 327.317 22.5254C328.067 22.9516 328.945 23.1646 329.951 23.1646C330.624 23.1646 331.234 23.0709 331.779 22.8834C332.325 22.6874 332.798 22.4019 333.198 22.0269C333.599 21.6519 333.901 21.1874 334.106 20.6334L338.427 21.1192C338.154 22.2612 337.634 23.2584 336.867 24.1107C336.109 24.9544 335.137 25.6107 333.952 26.0794C332.768 26.5396 331.413 26.7698 329.887 26.7698ZM346.995 20.122L354.858 6.74987H359.613V26.3862H355.139V13.0013L347.302 26.3862H342.534V6.74987H346.995V20.122ZM353.592 -0.000133753H357.056C357.056 1.49134 356.515 2.70157 355.433 3.63055C354.359 4.551 352.902 5.01123 351.061 5.01123C349.237 5.01123 347.784 4.551 346.701 3.63055C345.627 2.70157 345.095 1.49134 345.103 -0.000133753H348.542C348.542 0.613503 348.73 1.16322 349.105 1.64901C349.488 2.12629 350.14 2.36492 351.061 2.36492C351.964 2.36492 352.608 2.12629 352.991 1.64901C353.383 1.17174 353.583 0.622026 353.592 -0.000133753Z" fill="url(#paint0_linear_924_4857)"/>
<path d="M-1.11461e-05 26.3862V0.204412H9.81817C11.8295 0.204412 13.517 0.579412 14.8807 1.32941C16.2528 2.07941 17.2883 3.11066 17.9872 4.42316C18.6946 5.72714 19.0483 7.21009 19.0483 8.87203C19.0483 10.551 18.6946 12.0425 17.9872 13.3465C17.2798 14.6504 16.2358 15.6774 14.8551 16.4274C13.4744 17.1689 11.7741 17.5396 9.75425 17.5396H3.24715V13.6405H9.11505C10.2912 13.6405 11.2543 13.4359 12.0043 13.0269C12.7543 12.6178 13.3082 12.0553 13.6662 11.3394C14.0327 10.6234 14.2159 9.801 14.2159 8.87203C14.2159 7.94305 14.0327 7.12487 13.6662 6.41748C13.3082 5.71009 12.75 5.16038 11.9915 4.76833C11.2415 4.36776 10.2741 4.16748 9.08948 4.16748H4.74289V26.3862H-1.11461e-05ZM28.2624 26.7825C27.0181 26.7825 25.8974 26.5609 24.9002 26.1178C23.9116 25.6661 23.1275 25.0013 22.5479 24.1234C21.9769 23.2456 21.6914 22.1632 21.6914 20.8763C21.6914 19.7683 21.8959 18.8521 22.305 18.1277C22.7141 17.4033 23.2724 16.8237 23.9797 16.3891C24.6871 15.9544 25.484 15.6263 26.3704 15.4047C27.2653 15.1746 28.19 15.0084 29.1445 14.9061C30.2951 14.7868 31.2283 14.6803 31.9442 14.5865C32.6601 14.4842 33.18 14.3308 33.5039 14.1263C33.8363 13.9132 34.0025 13.5851 34.0025 13.1419V13.0652C34.0025 12.1021 33.717 11.3564 33.1459 10.828C32.5749 10.2996 31.7525 10.0354 30.6786 10.0354C29.5451 10.0354 28.6459 10.2825 27.9812 10.7769C27.3249 11.2712 26.8817 11.855 26.6516 12.5283L22.3306 11.9146C22.6715 10.7215 23.234 9.7243 24.0181 8.92316C24.8022 8.1135 25.761 7.50839 26.8945 7.10782C28.028 6.69873 29.2809 6.49419 30.653 6.49419C31.5991 6.49419 32.5408 6.60498 33.4783 6.82657C34.4158 7.04816 35.2724 7.41464 36.0479 7.926C36.8235 8.42884 37.4457 9.11492 37.9144 9.98424C38.3917 10.8536 38.6303 11.9402 38.6303 13.2442V26.3862H34.1815V23.6888H34.028C33.7468 24.2342 33.3505 24.7456 32.8391 25.2229C32.3363 25.6916 31.7013 26.0709 30.9343 26.3607C30.1758 26.6419 29.2851 26.7825 28.2624 26.7825ZM29.4641 23.382C30.3931 23.382 31.1985 23.1987 31.8803 22.8323C32.5621 22.4573 33.0863 21.9629 33.4528 21.3493C33.8278 20.7357 34.0153 20.0666 34.0153 19.3422V17.0283C33.8704 17.1476 33.6232 17.2584 33.2738 17.3607C32.9329 17.4629 32.5494 17.5524 32.1232 17.6291C31.6971 17.7058 31.2752 17.774 30.8576 17.8337C30.44 17.8933 30.0778 17.9445 29.7709 17.9871C29.0806 18.0808 28.4627 18.2342 27.9172 18.4473C27.3718 18.6604 26.9414 18.9587 26.6261 19.3422C26.3107 19.7172 26.153 20.203 26.153 20.7996C26.153 21.6519 26.4641 22.2953 27.0863 22.73C27.7084 23.1646 28.5011 23.382 29.4641 23.382ZM42.1971 21.0041H46.7866C46.8292 21.7371 47.1573 22.3038 47.7709 22.7044C48.3846 23.105 49.1815 23.3053 50.1616 23.3053C51.1587 23.3053 51.9982 23.0879 52.68 22.6533C53.3704 22.2101 53.7155 21.5411 53.7155 20.6462C53.7155 20.1178 53.5834 19.6533 53.3192 19.2527C53.055 18.8436 52.6843 18.5283 52.207 18.3067C51.7297 18.0851 51.1672 17.9743 50.5195 17.9743H47.5153V14.6888H50.5195C51.4826 14.6888 52.2113 14.4672 52.7056 14.024C53.2084 13.5808 53.4599 13.0226 53.4599 12.3493C53.4599 11.6249 53.1957 11.0368 52.6672 10.5851C52.1474 10.1334 51.4272 9.90754 50.5067 9.90754C49.5863 9.90754 48.8192 10.1163 48.2056 10.534C47.6005 10.9516 47.2851 11.4885 47.2596 12.1448H42.6957C42.7127 11.0027 43.0536 10.0098 43.7184 9.16606C44.3917 8.32231 45.2951 7.66606 46.4286 7.19731C47.5707 6.72856 48.8576 6.49419 50.2894 6.49419C51.8235 6.49419 53.1488 6.7243 54.2653 7.18453C55.3817 7.64475 56.2425 8.28822 56.8476 9.11492C57.4528 9.93311 57.7553 10.8962 57.7553 12.0041C57.7553 13.0695 57.4229 13.9516 56.7582 14.6504C56.0934 15.3408 55.1985 15.8351 54.0735 16.1334V16.3379C54.8491 16.3805 55.5479 16.6021 56.1701 17.0027C56.7922 17.3948 57.2866 17.9274 57.653 18.6007C58.0195 19.274 58.2028 20.0538 58.2028 20.9402C58.2028 22.1419 57.8576 23.1817 57.1672 24.0595C56.4769 24.9288 55.5266 25.5979 54.3164 26.0666C53.1147 26.5354 51.7383 26.7698 50.1871 26.7698C48.6786 26.7698 47.3278 26.5439 46.1346 26.0922C44.9499 25.632 44.0082 24.9715 43.3093 24.1107C42.6104 23.2499 42.2397 22.2144 42.1971 21.0041ZM60.4911 26.3862L60.4655 22.5766H61.1431C61.6545 22.5766 62.0849 22.4615 62.4343 22.2314C62.7837 22.0013 63.0735 21.6178 63.3036 21.0808C63.5337 20.5354 63.7127 19.8024 63.8405 18.882C63.9684 17.9615 64.0579 16.8152 64.109 15.443L64.4542 6.74987H78.7724V26.3862H74.2979V10.5467H68.6601L68.3533 16.8749C68.2766 18.5112 68.0934 19.9303 67.8036 21.132C67.5224 22.3252 67.1218 23.3095 66.6019 24.0851C66.0905 24.8607 65.4471 25.4402 64.6715 25.8237C63.8959 26.1987 62.9797 26.3862 61.9229 26.3862H60.4911ZM87.8938 20.122L95.756 6.74987H100.512V26.3862H96.0373V13.0013L88.2006 26.3862H83.4322V6.74987H87.8938V20.122ZM121.666 6.74987V26.3862H117.217V6.74987H121.666ZM119.582 15.622V19.4061C119.08 19.6277 118.509 19.828 117.869 20.007C117.239 20.1774 116.57 20.3138 115.862 20.4161C115.163 20.5183 114.464 20.5695 113.766 20.5695C111.141 20.5695 109.065 19.9814 107.54 18.8053C106.023 17.6206 105.264 15.7754 105.264 13.2698V6.7243H109.687V13.2698C109.687 14.1135 109.837 14.7911 110.135 15.3024C110.433 15.8138 110.885 16.1888 111.49 16.4274C112.095 16.6575 112.854 16.7726 113.766 16.7726C114.788 16.7726 115.76 16.6703 116.68 16.4658C117.601 16.2612 118.568 15.98 119.582 15.622ZM139.81 14.6504V18.4473H129.353V14.6504H139.81ZM130.784 6.74987V26.3862H126.323V6.74987H130.784ZM142.84 6.74987V26.3862H138.391V6.74987H142.84ZM150.654 13.1419H156.445C158.951 13.1419 160.89 13.7513 162.262 14.97C163.634 16.1888 164.325 17.7868 164.333 19.7641C164.325 21.051 164.009 22.193 163.387 23.1902C162.773 24.1874 161.879 24.9715 160.702 25.5425C159.535 26.105 158.116 26.3862 156.445 26.3862H147.522V6.74987H151.984V22.5894H156.445C157.451 22.5894 158.278 22.3337 158.925 21.8223C159.573 21.3024 159.897 20.6377 159.897 19.828C159.897 18.9757 159.573 18.2811 158.925 17.7442C158.278 17.2073 157.451 16.9388 156.445 16.9388H150.654V13.1419ZM166.775 26.3862V6.74987H171.403V26.3862H166.775ZM179.958 6.74987L183.922 13.9984L187.948 6.74987H192.845L186.926 16.568L192.947 26.3862H188.076L183.922 19.3166L179.805 26.3862H174.896L180.879 16.568L175.049 6.74987H179.958ZM216.655 21.0041L222.485 6.74987H226.218L218.279 26.3862H215.044L207.284 6.74987H210.979L216.655 21.0041ZM209.816 6.74987V26.3862H205.354V6.74987H209.816ZM223.686 26.3862V6.74987H228.11V26.3862H223.686ZM241.341 26.7698C239.424 26.7698 237.762 26.3479 236.355 25.5041C234.949 24.6604 233.858 23.48 233.083 21.9629C232.316 20.4459 231.932 18.6732 231.932 16.6448C231.932 14.6163 232.316 12.8394 233.083 11.3138C233.858 9.78822 234.949 8.60356 236.355 7.75981C237.762 6.91606 239.424 6.49419 241.341 6.49419C243.259 6.49419 244.921 6.91606 246.327 7.75981C247.733 8.60356 248.82 9.78822 249.587 11.3138C250.363 12.8394 250.75 14.6163 250.75 16.6448C250.75 18.6732 250.363 20.4459 249.587 21.9629C248.82 23.48 247.733 24.6604 246.327 25.5041C244.921 26.3479 243.259 26.7698 241.341 26.7698ZM241.367 23.0624C242.407 23.0624 243.276 22.7769 243.975 22.2058C244.674 21.6263 245.194 20.8507 245.534 19.8791C245.884 18.9075 246.059 17.8252 246.059 16.632C246.059 15.4303 245.884 14.3436 245.534 13.372C245.194 12.3919 244.674 11.6121 243.975 11.0325C243.276 10.453 242.407 10.1632 241.367 10.1632C240.301 10.1632 239.415 10.453 238.708 11.0325C238.009 11.6121 237.485 12.3919 237.135 13.372C236.794 14.3436 236.624 15.4303 236.624 16.632C236.624 17.8252 236.794 18.9075 237.135 19.8791C237.485 20.8507 238.009 21.6263 238.708 22.2058C239.415 22.7769 240.301 23.0624 241.367 23.0624ZM252.94 32.0879V22.5766H254.499C254.917 22.2527 255.266 21.8138 255.548 21.2598C255.829 20.6973 256.059 20.0368 256.238 19.2783C256.425 18.5112 256.579 17.6547 256.698 16.7087C256.817 15.7541 256.924 14.7271 257.018 13.6277L257.58 6.74987H271.771V22.5766H274.813V32.0879H270.339V26.3862H257.491V32.0879H252.94ZM259.255 22.5766H267.347V10.4828H261.594L261.288 13.6277C261.117 15.7073 260.891 17.4885 260.61 18.9715C260.329 20.4544 259.877 21.6561 259.255 22.5766ZM286.961 26.7698C284.993 26.7698 283.292 26.3607 281.86 25.5425C280.437 24.7158 279.342 23.5482 278.575 22.0396C277.808 20.5226 277.424 18.7371 277.424 16.6831C277.424 14.6632 277.808 12.8905 278.575 11.3649C279.35 9.83083 280.433 8.63765 281.822 7.78538C283.211 6.92458 284.843 6.49419 286.718 6.49419C287.929 6.49419 289.071 6.69021 290.145 7.08225C291.227 7.46578 292.181 8.06237 293.008 8.87203C293.843 9.68168 294.5 10.7129 294.977 11.9658C295.454 13.2101 295.693 14.693 295.693 16.4146V17.8337H279.598V14.7144H291.257C291.248 13.828 291.056 13.0396 290.681 12.3493C290.306 11.6504 289.782 11.1007 289.109 10.7002C288.444 10.2996 287.669 10.0993 286.782 10.0993C285.836 10.0993 285.005 10.3294 284.289 10.7896C283.573 11.2413 283.015 11.8379 282.615 12.5794C282.223 13.3124 282.022 14.1178 282.014 14.9956V17.7186C282.014 18.8607 282.223 19.8408 282.64 20.659C283.058 21.4686 283.642 22.0908 284.392 22.5254C285.142 22.9516 286.02 23.1646 287.025 23.1646C287.698 23.1646 288.308 23.0709 288.853 22.8834C289.399 22.6874 289.872 22.4019 290.272 22.0269C290.673 21.6519 290.975 21.1874 291.18 20.6334L295.501 21.1192C295.228 22.2612 294.708 23.2584 293.941 24.1107C293.183 24.9544 292.211 25.6107 291.027 26.0794C289.842 26.5396 288.487 26.7698 286.961 26.7698ZM298.253 26.3862L298.227 22.5766H298.905C299.416 22.5766 299.847 22.4615 300.196 22.2314C300.545 22.0013 300.835 21.6178 301.065 21.0808C301.295 20.5354 301.474 19.8024 301.602 18.882C301.73 17.9615 301.82 16.8152 301.871 15.443L302.216 6.74987H316.534V26.3862H312.06V10.5467H306.422L306.115 16.8749C306.038 18.5112 305.855 19.9303 305.565 21.132C305.284 22.3252 304.884 23.3095 304.364 24.0851C303.852 24.8607 303.209 25.4402 302.433 25.8237C301.658 26.1987 300.741 26.3862 299.685 26.3862H298.253ZM329.887 26.7698C327.918 26.7698 326.218 26.3607 324.786 25.5425C323.363 24.7158 322.268 23.5482 321.501 22.0396C320.734 20.5226 320.35 18.7371 320.35 16.6831C320.35 14.6632 320.734 12.8905 321.501 11.3649C322.276 9.83083 323.359 8.63765 324.748 7.78538C326.137 6.92458 327.769 6.49419 329.644 6.49419C330.854 6.49419 331.996 6.69021 333.07 7.08225C334.153 7.46578 335.107 8.06237 335.934 8.87203C336.769 9.68168 337.425 10.7129 337.903 11.9658C338.38 13.2101 338.619 14.693 338.619 16.4146V17.8337H322.523V14.7144H334.183C334.174 13.828 333.982 13.0396 333.607 12.3493C333.232 11.6504 332.708 11.1007 332.035 10.7002C331.37 10.2996 330.594 10.0993 329.708 10.0993C328.762 10.0993 327.931 10.3294 327.215 10.7896C326.499 11.2413 325.941 11.8379 325.54 12.5794C325.148 13.3124 324.948 14.1178 324.94 14.9956V17.7186C324.94 18.8607 325.148 19.8408 325.566 20.659C325.984 21.4686 326.567 22.0908 327.317 22.5254C328.067 22.9516 328.945 23.1646 329.951 23.1646C330.624 23.1646 331.234 23.0709 331.779 22.8834C332.325 22.6874 332.798 22.4019 333.198 22.0269C333.599 21.6519 333.901 21.1874 334.106 20.6334L338.427 21.1192C338.154 22.2612 337.634 23.2584 336.867 24.1107C336.109 24.9544 335.137 25.6107 333.952 26.0794C332.768 26.5396 331.413 26.7698 329.887 26.7698ZM346.995 20.122L354.858 6.74987H359.613V26.3862H355.139V13.0013L347.302 26.3862H342.534V6.74987H346.995V20.122ZM353.592 -0.000133753H357.056C357.056 1.49134 356.515 2.70157 355.433 3.63055C354.359 4.551 352.902 5.01123 351.061 5.01123C349.237 5.01123 347.784 4.551 346.701 3.63055C345.627 2.70157 345.095 1.49134 345.103 -0.000133753H348.542C348.542 0.613503 348.73 1.16322 349.105 1.64901C349.488 2.12629 350.14 2.36492 351.061 2.36492C351.964 2.36492 352.608 2.12629 352.991 1.64901C353.383 1.17174 353.583 0.622026 353.592 -0.000133753Z" fill="white" fill-opacity="0.3"/>
<defs>
<linearGradient id="paint0_linear_924_4857" x1="-2.79724" y1="12.8862" x2="362.203" y2="12.8862" gradientUnits="userSpaceOnUse">
<stop stop-color="#9747FF"/>
<stop offset="1" stop-color="#005FF9"/>
</linearGradient>
</defs>
</svg>
