<svg width="122" height="14" viewBox="0 0 122 14" fill="none" xmlns="http://www.w3.org/2000/svg">
<path d="M6.34871 -0.00017786V1.32227H1.53621V10.1816H-1.38432e-05V-0.00017786H6.34871ZM10.1445 10.3358C9.39215 10.3358 8.74419 10.175 8.20063 9.85352C7.66038 9.52871 7.24277 9.07298 6.94778 8.48633C6.65612 7.89637 6.51028 7.20531 6.51028 6.41317C6.51028 5.63098 6.65612 4.94158 6.94778 4.34499C7.24277 3.7484 7.65375 3.28273 8.18074 2.94798C8.71104 2.61322 9.33083 2.44585 10.0401 2.44585C10.471 2.44585 10.8886 2.5171 11.293 2.65962C11.6973 2.80214 12.0602 3.02586 12.3817 3.33079C12.7032 3.63571 12.9568 4.03178 13.1424 4.519C13.328 5.0029 13.4208 5.5912 13.4208 6.28391V6.8109H7.35048V5.69727H11.9641C11.9641 5.30617 11.8846 4.95981 11.7255 4.6582C11.5664 4.35328 11.3427 4.11299 11.0543 3.93732C10.7693 3.76166 10.4345 3.67383 10.0501 3.67383C9.63244 3.67383 9.26786 3.77657 8.95631 3.98207C8.64807 4.18424 8.40943 4.4494 8.2404 4.77752C8.07468 5.10233 7.99182 5.45531 7.99182 5.83647V6.7065C7.99182 7.21692 8.08131 7.6511 8.26028 8.00906C8.44258 8.36701 8.69613 8.64045 9.02094 8.82937C9.34575 9.01497 9.72525 9.10778 10.1594 9.10778C10.4412 9.10778 10.698 9.068 10.93 8.98846C11.162 8.9056 11.3626 8.78297 11.5316 8.62056C11.7006 8.45816 11.8299 8.25763 11.9194 8.019L13.3263 8.27255C13.2136 8.68685 13.0115 9.04978 12.7198 9.36133C12.4314 9.66957 12.0685 9.90986 11.631 10.0822C11.1968 10.2512 10.7013 10.3358 10.1445 10.3358ZM20.2455 5.72212V7.00977H16.1092V5.72212H20.2455ZM16.5268 2.54528V10.1816H15.0701V2.54528H16.5268ZM21.2846 2.54528V10.1816H19.8329V2.54528H21.2846ZM26.5644 10.3358C25.8121 10.3358 25.1641 10.175 24.6205 9.85352C24.0803 9.52871 23.6627 9.07298 23.3677 8.48633C23.076 7.89637 22.9302 7.20531 22.9302 6.41317C22.9302 5.63098 23.076 4.94158 23.3677 4.34499C23.6627 3.7484 24.0737 3.28273 24.6007 2.94798C25.131 2.61322 25.7508 2.44585 26.46 2.44585C26.8909 2.44585 27.3085 2.5171 27.7129 2.65962C28.1172 2.80214 28.4802 3.02586 28.8017 3.33079C29.1232 3.63571 29.3767 4.03178 29.5623 4.519C29.7479 5.0029 29.8407 5.5912 29.8407 6.28391V6.8109H23.7704V5.69727H28.384C28.384 5.30617 28.3045 4.95981 28.1454 4.6582C27.9863 4.35328 27.7626 4.11299 27.4742 3.93732C27.1892 3.76166 26.8544 3.67383 26.47 3.67383C26.0524 3.67383 25.6878 3.77657 25.3762 3.98207C25.068 4.18424 24.8294 4.4494 24.6603 4.77752C24.4946 5.10233 24.4117 5.45531 24.4117 5.83647V6.7065C24.4117 7.21692 24.5012 7.6511 24.6802 8.00906C24.8625 8.36701 25.116 8.64045 25.4409 8.82937C25.7657 9.01497 26.1452 9.10778 26.5794 9.10778C26.8611 9.10778 27.1179 9.068 27.35 8.98846C27.582 8.9056 27.7825 8.78297 27.9515 8.62056C28.1205 8.45816 28.2498 8.25763 28.3393 8.019L29.7463 8.27255C29.6336 8.68685 29.4314 9.04978 29.1397 9.36133C28.8514 9.66957 28.4884 9.90986 28.0509 10.0822C27.6168 10.2512 27.1213 10.3358 26.5644 10.3358ZM31.49 13.0453V2.54528H32.9417V3.7832H33.066C33.1522 3.62411 33.2765 3.44016 33.4389 3.23136C33.6013 3.02255 33.8267 2.84026 34.115 2.68448C34.4034 2.52539 34.7846 2.44585 35.2585 2.44585C35.875 2.44585 36.4252 2.60162 36.9091 2.91317C37.393 3.22473 37.7725 3.67383 38.0476 4.26048C38.326 4.84712 38.4652 5.55309 38.4652 6.37837C38.4652 7.20366 38.3276 7.91128 38.0525 8.50124C37.7774 9.08789 37.3996 9.54031 36.919 9.85849C36.4384 10.1734 35.8899 10.3308 35.2734 10.3308C34.8094 10.3308 34.4299 10.2529 34.1349 10.0971C33.8433 9.94135 33.6146 9.75906 33.4488 9.55025C33.2831 9.34144 33.1555 9.15584 33.066 8.99343H32.9765V13.0453H31.49ZM32.9467 6.36346C32.9467 6.90039 33.0246 7.37103 33.1804 7.77539C33.3362 8.17975 33.5615 8.49627 33.8565 8.72496C34.1515 8.95034 34.5128 9.06303 34.9403 9.06303C35.3845 9.06303 35.7557 8.94537 36.054 8.71005C36.3523 8.47141 36.5776 8.14826 36.7301 7.74059C36.8859 7.33292 36.9638 6.87388 36.9638 6.36346C36.9638 5.85967 36.8875 5.40726 36.7351 5.00621C36.5859 4.60517 36.3605 4.28865 36.0589 4.05664C35.7606 3.82463 35.3878 3.70863 34.9403 3.70863C34.5095 3.70863 34.1449 3.81966 33.8466 4.04173C33.5516 4.26379 33.3279 4.57369 33.1754 4.97141C33.023 5.36914 32.9467 5.83316 32.9467 6.36346ZM42.353 10.3507C41.8691 10.3507 41.4316 10.2612 41.0405 10.0822C40.6494 9.89992 40.3395 9.63642 40.1108 9.29173C39.8854 8.94703 39.7727 8.52444 39.7727 8.02397C39.7727 7.5931 39.8556 7.23846 40.0213 6.96005C40.187 6.68164 40.4107 6.46123 40.6925 6.29883C40.9742 6.13642 41.289 6.01379 41.6371 5.93093C41.9851 5.84807 42.3397 5.7851 42.701 5.74201C43.1584 5.68898 43.5296 5.64589 43.8146 5.61275C44.0997 5.57629 44.3068 5.51829 44.4361 5.43874C44.5653 5.3592 44.63 5.22994 44.63 5.05096V5.01616C44.63 4.58197 44.5073 4.24556 44.2621 4.00692C44.0201 3.76829 43.6588 3.64897 43.1783 3.64897C42.6778 3.64897 42.2834 3.76 41.995 3.98207C41.71 4.20082 41.5128 4.44442 41.4034 4.71289L40.0064 4.39471C40.1721 3.93069 40.414 3.55617 40.7322 3.27113C41.0537 2.98278 41.4233 2.77397 41.8409 2.64471C42.2585 2.51213 42.6977 2.44585 43.1584 2.44585C43.4633 2.44585 43.7864 2.4823 44.1278 2.55522C44.4725 2.62482 44.794 2.75408 45.0923 2.943C45.3939 3.13192 45.6408 3.40205 45.8331 3.75337C46.0253 4.10138 46.1214 4.5538 46.1214 5.11062V10.1816H44.6697V9.13761H44.6101C44.514 9.32984 44.3698 9.51876 44.1775 9.70437C43.9853 9.88997 43.7384 10.0441 43.4368 10.1667C43.1352 10.2894 42.7739 10.3507 42.353 10.3507ZM42.6761 9.15749C43.0871 9.15749 43.4384 9.07629 43.7301 8.91388C44.0251 8.75148 44.2488 8.53936 44.4013 8.27752C44.557 8.01237 44.6349 7.72899 44.6349 7.42738V6.443C44.5819 6.49603 44.4792 6.54575 44.3267 6.59215C44.1775 6.63524 44.0069 6.67335 43.8146 6.7065C43.6224 6.73633 43.4351 6.7645 43.2528 6.79102C43.0705 6.81422 42.9181 6.8341 42.7954 6.85067C42.5071 6.88713 42.2436 6.94845 42.005 7.03462C41.7696 7.1208 41.5807 7.24509 41.4382 7.40749C41.299 7.56658 41.2294 7.7787 41.2294 8.04386C41.2294 8.41175 41.3653 8.69016 41.6371 8.87908C41.9088 9.06469 42.2552 9.15749 42.6761 9.15749ZM54.3308 2.54528V8.9636H55.4494V12.6426H53.9828V10.1816H48.1014V2.54528H49.558V8.89897H52.8791V2.54528H54.3308ZM58.5541 8.09854L61.9199 2.54528H63.5208V10.1816H62.0641V4.6234L58.7132 10.1816H57.0975V2.54528H58.5541V8.09854ZM70.0733 10.1816V3.81303H68.2438C67.8096 3.81303 67.4715 3.91412 67.2296 4.1163C66.9876 4.31848 66.8666 4.58363 66.8666 4.91175C66.8666 5.23656 66.9777 5.4984 67.1997 5.69727C67.4251 5.89281 67.74 5.99059 68.1443 5.99059H70.5058V7.19371H68.1443C67.5809 7.19371 67.0937 7.10091 66.6827 6.91531C66.275 6.72638 65.9602 6.45958 65.7381 6.11488C65.5193 5.77018 65.41 5.36251 65.41 4.89187C65.41 4.41128 65.5227 3.99698 65.748 3.64897C65.9767 3.29764 66.3032 3.02586 66.7274 2.83363C67.155 2.64139 67.6604 2.54528 68.2438 2.54528H71.4703V10.1816H70.0733ZM65.062 10.1816L67.2147 6.32369H68.736L66.5833 10.1816H65.062ZM76.7265 3.82795V2.54528H83.1697V3.82795H80.679V10.1816H79.2273V3.82795H76.7265ZM87.6777 10.3358C86.9254 10.3358 86.2774 10.175 85.7338 9.85352C85.1936 9.52871 84.776 9.07298 84.481 8.48633C84.1893 7.89637 84.0435 7.20531 84.0435 6.41317C84.0435 5.63098 84.1893 4.94158 84.481 4.34499C84.776 3.7484 85.187 3.28273 85.7139 2.94798C86.2442 2.61322 86.864 2.44585 87.5733 2.44585C88.0042 2.44585 88.4218 2.5171 88.8262 2.65962C89.2305 2.80214 89.5934 3.02586 89.9149 3.33079C90.2364 3.63571 90.49 4.03178 90.6756 4.519C90.8612 5.0029 90.954 5.5912 90.954 6.28391V6.8109H84.8837V5.69727H89.4973C89.4973 5.30617 89.4178 4.95981 89.2587 4.6582C89.0996 4.35328 88.8759 4.11299 88.5875 3.93732C88.3025 3.76166 87.9677 3.67383 87.5833 3.67383C87.1656 3.67383 86.8011 3.77657 86.4895 3.98207C86.1813 4.18424 85.9426 4.4494 85.7736 4.77752C85.6079 5.10233 85.525 5.45531 85.525 5.83647V6.7065C85.525 7.21692 85.6145 7.6511 85.7935 8.00906C85.9758 8.36701 86.2293 8.64045 86.5541 8.82937C86.879 9.01497 87.2584 9.10778 87.6926 9.10778C87.9744 9.10778 88.2312 9.068 88.4632 8.98846C88.6952 8.9056 88.8958 8.78297 89.0648 8.62056C89.2338 8.45816 89.3631 8.25763 89.4526 8.019L90.8595 8.27255C90.7468 8.68685 90.5447 9.04978 90.253 9.36133C89.9647 9.66957 89.6017 9.90986 89.1642 10.0822C88.73 10.2512 88.2345 10.3358 87.6777 10.3358ZM92.6033 10.1816V2.54528H94.0898V5.74698H94.8057L97.3263 2.54528H99.1658L96.2077 6.25906L99.2006 10.1816H97.3562L95.0543 7.12908H94.0898V10.1816H92.6033ZM103.257 10.3358C102.518 10.3358 101.882 10.1684 101.348 9.83363C100.818 9.49556 100.41 9.02989 100.125 8.43661C99.8403 7.84334 99.6978 7.16388 99.6978 6.39826C99.6978 5.62269 99.8436 4.93827 100.135 4.34499C100.427 3.7484 100.838 3.28273 101.368 2.94798C101.899 2.61322 102.523 2.44585 103.243 2.44585C103.823 2.44585 104.34 2.55356 104.794 2.769C105.248 2.98112 105.614 3.27941 105.892 3.66388C106.174 4.04835 106.341 4.49745 106.395 5.01119H104.948C104.868 4.65323 104.686 4.34499 104.401 4.08647C104.119 3.82795 103.741 3.69869 103.267 3.69869C102.853 3.69869 102.49 3.80806 102.179 4.02681C101.87 4.24225 101.63 4.55049 101.458 4.95153C101.285 5.34925 101.199 5.8199 101.199 6.36346C101.199 6.92028 101.284 7.40086 101.453 7.80522C101.622 8.20958 101.86 8.52279 102.169 8.74485C102.48 8.96692 102.846 9.07795 103.267 9.07795C103.549 9.07795 103.804 9.02657 104.033 8.92383C104.265 8.81777 104.459 8.66696 104.615 8.47141C104.774 8.27586 104.885 8.04054 104.948 7.76545H106.395C106.341 8.25929 106.181 8.70011 105.912 9.08789C105.644 9.47567 105.284 9.7806 104.833 10.0027C104.386 10.2247 103.861 10.3358 103.257 10.3358ZM107.406 3.82795V2.54528H113.849V3.82795H111.359V10.1816H109.907V3.82795H107.406ZM117.289 10.3507C116.805 10.3507 116.367 10.2612 115.976 10.0822C115.585 9.89992 115.275 9.63642 115.046 9.29173C114.821 8.94703 114.708 8.52444 114.708 8.02397C114.708 7.5931 114.791 7.23846 114.957 6.96005C115.123 6.68164 115.346 6.46123 115.628 6.29883C115.91 6.13642 116.225 6.01379 116.573 5.93093C116.921 5.84807 117.275 5.7851 117.637 5.74201C118.094 5.68898 118.465 5.64589 118.75 5.61275C119.035 5.57629 119.242 5.51829 119.372 5.43874C119.501 5.3592 119.566 5.22994 119.566 5.05096V5.01616C119.566 4.58197 119.443 4.24556 119.198 4.00692C118.956 3.76829 118.594 3.64897 118.114 3.64897C117.613 3.64897 117.219 3.76 116.931 3.98207C116.646 4.20082 116.448 4.44442 116.339 4.71289L114.942 4.39471C115.108 3.93069 115.35 3.55617 115.668 3.27113C115.989 2.98278 116.359 2.77397 116.776 2.64471C117.194 2.51213 117.633 2.44585 118.094 2.44585C118.399 2.44585 118.722 2.4823 119.063 2.55522C119.408 2.62482 119.73 2.75408 120.028 2.943C120.329 3.13192 120.576 3.40205 120.769 3.75337C120.961 4.10138 121.057 4.5538 121.057 5.11062V10.1816H119.605V9.13761H119.546C119.45 9.32984 119.305 9.51876 119.113 9.70437C118.921 9.88997 118.674 10.0441 118.372 10.1667C118.071 10.2894 117.709 10.3507 117.289 10.3507ZM117.612 9.15749C118.023 9.15749 118.374 9.07629 118.666 8.91388C118.961 8.75148 119.184 8.53936 119.337 8.27752C119.493 8.01237 119.57 7.72899 119.57 7.42738V6.443C119.517 6.49603 119.415 6.54575 119.262 6.59215C119.113 6.63524 118.942 6.67335 118.75 6.7065C118.558 6.73633 118.371 6.7645 118.188 6.79102C118.006 6.81422 117.854 6.8341 117.731 6.85067C117.443 6.88713 117.179 6.94845 116.941 7.03462C116.705 7.1208 116.516 7.24509 116.374 7.40749C116.235 7.56658 116.165 7.7787 116.165 8.04386C116.165 8.41175 116.301 8.69016 116.573 8.87908C116.844 9.06469 117.191 9.15749 117.612 9.15749Z" fill="#DCE8FF"/>
<path d="M6.34871 -0.00017786V1.32227H1.53621V10.1816H-1.38432e-05V-0.00017786H6.34871ZM10.1445 10.3358C9.39215 10.3358 8.74419 10.175 8.20063 9.85352C7.66038 9.52871 7.24277 9.07298 6.94778 8.48633C6.65612 7.89637 6.51028 7.20531 6.51028 6.41317C6.51028 5.63098 6.65612 4.94158 6.94778 4.34499C7.24277 3.7484 7.65375 3.28273 8.18074 2.94798C8.71104 2.61322 9.33083 2.44585 10.0401 2.44585C10.471 2.44585 10.8886 2.5171 11.293 2.65962C11.6973 2.80214 12.0602 3.02586 12.3817 3.33079C12.7032 3.63571 12.9568 4.03178 13.1424 4.519C13.328 5.0029 13.4208 5.5912 13.4208 6.28391V6.8109H7.35048V5.69727H11.9641C11.9641 5.30617 11.8846 4.95981 11.7255 4.6582C11.5664 4.35328 11.3427 4.11299 11.0543 3.93732C10.7693 3.76166 10.4345 3.67383 10.0501 3.67383C9.63244 3.67383 9.26786 3.77657 8.95631 3.98207C8.64807 4.18424 8.40943 4.4494 8.2404 4.77752C8.07468 5.10233 7.99182 5.45531 7.99182 5.83647V6.7065C7.99182 7.21692 8.08131 7.6511 8.26028 8.00906C8.44258 8.36701 8.69613 8.64045 9.02094 8.82937C9.34575 9.01497 9.72525 9.10778 10.1594 9.10778C10.4412 9.10778 10.698 9.068 10.93 8.98846C11.162 8.9056 11.3626 8.78297 11.5316 8.62056C11.7006 8.45816 11.8299 8.25763 11.9194 8.019L13.3263 8.27255C13.2136 8.68685 13.0115 9.04978 12.7198 9.36133C12.4314 9.66957 12.0685 9.90986 11.631 10.0822C11.1968 10.2512 10.7013 10.3358 10.1445 10.3358ZM20.2455 5.72212V7.00977H16.1092V5.72212H20.2455ZM16.5268 2.54528V10.1816H15.0701V2.54528H16.5268ZM21.2846 2.54528V10.1816H19.8329V2.54528H21.2846ZM26.5644 10.3358C25.8121 10.3358 25.1641 10.175 24.6205 9.85352C24.0803 9.52871 23.6627 9.07298 23.3677 8.48633C23.076 7.89637 22.9302 7.20531 22.9302 6.41317C22.9302 5.63098 23.076 4.94158 23.3677 4.34499C23.6627 3.7484 24.0737 3.28273 24.6007 2.94798C25.131 2.61322 25.7508 2.44585 26.46 2.44585C26.8909 2.44585 27.3085 2.5171 27.7129 2.65962C28.1172 2.80214 28.4802 3.02586 28.8017 3.33079C29.1232 3.63571 29.3767 4.03178 29.5623 4.519C29.7479 5.0029 29.8407 5.5912 29.8407 6.28391V6.8109H23.7704V5.69727H28.384C28.384 5.30617 28.3045 4.95981 28.1454 4.6582C27.9863 4.35328 27.7626 4.11299 27.4742 3.93732C27.1892 3.76166 26.8544 3.67383 26.47 3.67383C26.0524 3.67383 25.6878 3.77657 25.3762 3.98207C25.068 4.18424 24.8294 4.4494 24.6603 4.77752C24.4946 5.10233 24.4117 5.45531 24.4117 5.83647V6.7065C24.4117 7.21692 24.5012 7.6511 24.6802 8.00906C24.8625 8.36701 25.116 8.64045 25.4409 8.82937C25.7657 9.01497 26.1452 9.10778 26.5794 9.10778C26.8611 9.10778 27.1179 9.068 27.35 8.98846C27.582 8.9056 27.7825 8.78297 27.9515 8.62056C28.1205 8.45816 28.2498 8.25763 28.3393 8.019L29.7463 8.27255C29.6336 8.68685 29.4314 9.04978 29.1397 9.36133C28.8514 9.66957 28.4884 9.90986 28.0509 10.0822C27.6168 10.2512 27.1213 10.3358 26.5644 10.3358ZM31.49 13.0453V2.54528H32.9417V3.7832H33.066C33.1522 3.62411 33.2765 3.44016 33.4389 3.23136C33.6013 3.02255 33.8267 2.84026 34.115 2.68448C34.4034 2.52539 34.7846 2.44585 35.2585 2.44585C35.875 2.44585 36.4252 2.60162 36.9091 2.91317C37.393 3.22473 37.7725 3.67383 38.0476 4.26048C38.326 4.84712 38.4652 5.55309 38.4652 6.37837C38.4652 7.20366 38.3276 7.91128 38.0525 8.50124C37.7774 9.08789 37.3996 9.54031 36.919 9.85849C36.4384 10.1734 35.8899 10.3308 35.2734 10.3308C34.8094 10.3308 34.4299 10.2529 34.1349 10.0971C33.8433 9.94135 33.6146 9.75906 33.4488 9.55025C33.2831 9.34144 33.1555 9.15584 33.066 8.99343H32.9765V13.0453H31.49ZM32.9467 6.36346C32.9467 6.90039 33.0246 7.37103 33.1804 7.77539C33.3362 8.17975 33.5615 8.49627 33.8565 8.72496C34.1515 8.95034 34.5128 9.06303 34.9403 9.06303C35.3845 9.06303 35.7557 8.94537 36.054 8.71005C36.3523 8.47141 36.5776 8.14826 36.7301 7.74059C36.8859 7.33292 36.9638 6.87388 36.9638 6.36346C36.9638 5.85967 36.8875 5.40726 36.7351 5.00621C36.5859 4.60517 36.3605 4.28865 36.0589 4.05664C35.7606 3.82463 35.3878 3.70863 34.9403 3.70863C34.5095 3.70863 34.1449 3.81966 33.8466 4.04173C33.5516 4.26379 33.3279 4.57369 33.1754 4.97141C33.023 5.36914 32.9467 5.83316 32.9467 6.36346ZM42.353 10.3507C41.8691 10.3507 41.4316 10.2612 41.0405 10.0822C40.6494 9.89992 40.3395 9.63642 40.1108 9.29173C39.8854 8.94703 39.7727 8.52444 39.7727 8.02397C39.7727 7.5931 39.8556 7.23846 40.0213 6.96005C40.187 6.68164 40.4107 6.46123 40.6925 6.29883C40.9742 6.13642 41.289 6.01379 41.6371 5.93093C41.9851 5.84807 42.3397 5.7851 42.701 5.74201C43.1584 5.68898 43.5296 5.64589 43.8146 5.61275C44.0997 5.57629 44.3068 5.51829 44.4361 5.43874C44.5653 5.3592 44.63 5.22994 44.63 5.05096V5.01616C44.63 4.58197 44.5073 4.24556 44.2621 4.00692C44.0201 3.76829 43.6588 3.64897 43.1783 3.64897C42.6778 3.64897 42.2834 3.76 41.995 3.98207C41.71 4.20082 41.5128 4.44442 41.4034 4.71289L40.0064 4.39471C40.1721 3.93069 40.414 3.55617 40.7322 3.27113C41.0537 2.98278 41.4233 2.77397 41.8409 2.64471C42.2585 2.51213 42.6977 2.44585 43.1584 2.44585C43.4633 2.44585 43.7864 2.4823 44.1278 2.55522C44.4725 2.62482 44.794 2.75408 45.0923 2.943C45.3939 3.13192 45.6408 3.40205 45.8331 3.75337C46.0253 4.10138 46.1214 4.5538 46.1214 5.11062V10.1816H44.6697V9.13761H44.6101C44.514 9.32984 44.3698 9.51876 44.1775 9.70437C43.9853 9.88997 43.7384 10.0441 43.4368 10.1667C43.1352 10.2894 42.7739 10.3507 42.353 10.3507ZM42.6761 9.15749C43.0871 9.15749 43.4384 9.07629 43.7301 8.91388C44.0251 8.75148 44.2488 8.53936 44.4013 8.27752C44.557 8.01237 44.6349 7.72899 44.6349 7.42738V6.443C44.5819 6.49603 44.4792 6.54575 44.3267 6.59215C44.1775 6.63524 44.0069 6.67335 43.8146 6.7065C43.6224 6.73633 43.4351 6.7645 43.2528 6.79102C43.0705 6.81422 42.9181 6.8341 42.7954 6.85067C42.5071 6.88713 42.2436 6.94845 42.005 7.03462C41.7696 7.1208 41.5807 7.24509 41.4382 7.40749C41.299 7.56658 41.2294 7.7787 41.2294 8.04386C41.2294 8.41175 41.3653 8.69016 41.6371 8.87908C41.9088 9.06469 42.2552 9.15749 42.6761 9.15749ZM54.3308 2.54528V8.9636H55.4494V12.6426H53.9828V10.1816H48.1014V2.54528H49.558V8.89897H52.8791V2.54528H54.3308ZM58.5541 8.09854L61.9199 2.54528H63.5208V10.1816H62.0641V4.6234L58.7132 10.1816H57.0975V2.54528H58.5541V8.09854ZM70.0733 10.1816V3.81303H68.2438C67.8096 3.81303 67.4715 3.91412 67.2296 4.1163C66.9876 4.31848 66.8666 4.58363 66.8666 4.91175C66.8666 5.23656 66.9777 5.4984 67.1997 5.69727C67.4251 5.89281 67.74 5.99059 68.1443 5.99059H70.5058V7.19371H68.1443C67.5809 7.19371 67.0937 7.10091 66.6827 6.91531C66.275 6.72638 65.9602 6.45958 65.7381 6.11488C65.5193 5.77018 65.41 5.36251 65.41 4.89187C65.41 4.41128 65.5227 3.99698 65.748 3.64897C65.9767 3.29764 66.3032 3.02586 66.7274 2.83363C67.155 2.64139 67.6604 2.54528 68.2438 2.54528H71.4703V10.1816H70.0733ZM65.062 10.1816L67.2147 6.32369H68.736L66.5833 10.1816H65.062ZM76.7265 3.82795V2.54528H83.1697V3.82795H80.679V10.1816H79.2273V3.82795H76.7265ZM87.6777 10.3358C86.9254 10.3358 86.2774 10.175 85.7338 9.85352C85.1936 9.52871 84.776 9.07298 84.481 8.48633C84.1893 7.89637 84.0435 7.20531 84.0435 6.41317C84.0435 5.63098 84.1893 4.94158 84.481 4.34499C84.776 3.7484 85.187 3.28273 85.7139 2.94798C86.2442 2.61322 86.864 2.44585 87.5733 2.44585C88.0042 2.44585 88.4218 2.5171 88.8262 2.65962C89.2305 2.80214 89.5934 3.02586 89.9149 3.33079C90.2364 3.63571 90.49 4.03178 90.6756 4.519C90.8612 5.0029 90.954 5.5912 90.954 6.28391V6.8109H84.8837V5.69727H89.4973C89.4973 5.30617 89.4178 4.95981 89.2587 4.6582C89.0996 4.35328 88.8759 4.11299 88.5875 3.93732C88.3025 3.76166 87.9677 3.67383 87.5833 3.67383C87.1656 3.67383 86.8011 3.77657 86.4895 3.98207C86.1813 4.18424 85.9426 4.4494 85.7736 4.77752C85.6079 5.10233 85.525 5.45531 85.525 5.83647V6.7065C85.525 7.21692 85.6145 7.6511 85.7935 8.00906C85.9758 8.36701 86.2293 8.64045 86.5541 8.82937C86.879 9.01497 87.2584 9.10778 87.6926 9.10778C87.9744 9.10778 88.2312 9.068 88.4632 8.98846C88.6952 8.9056 88.8958 8.78297 89.0648 8.62056C89.2338 8.45816 89.3631 8.25763 89.4526 8.019L90.8595 8.27255C90.7468 8.68685 90.5447 9.04978 90.253 9.36133C89.9647 9.66957 89.6017 9.90986 89.1642 10.0822C88.73 10.2512 88.2345 10.3358 87.6777 10.3358ZM92.6033 10.1816V2.54528H94.0898V5.74698H94.8057L97.3263 2.54528H99.1658L96.2077 6.25906L99.2006 10.1816H97.3562L95.0543 7.12908H94.0898V10.1816H92.6033ZM103.257 10.3358C102.518 10.3358 101.882 10.1684 101.348 9.83363C100.818 9.49556 100.41 9.02989 100.125 8.43661C99.8403 7.84334 99.6978 7.16388 99.6978 6.39826C99.6978 5.62269 99.8436 4.93827 100.135 4.34499C100.427 3.7484 100.838 3.28273 101.368 2.94798C101.899 2.61322 102.523 2.44585 103.243 2.44585C103.823 2.44585 104.34 2.55356 104.794 2.769C105.248 2.98112 105.614 3.27941 105.892 3.66388C106.174 4.04835 106.341 4.49745 106.395 5.01119H104.948C104.868 4.65323 104.686 4.34499 104.401 4.08647C104.119 3.82795 103.741 3.69869 103.267 3.69869C102.853 3.69869 102.49 3.80806 102.179 4.02681C101.87 4.24225 101.63 4.55049 101.458 4.95153C101.285 5.34925 101.199 5.8199 101.199 6.36346C101.199 6.92028 101.284 7.40086 101.453 7.80522C101.622 8.20958 101.86 8.52279 102.169 8.74485C102.48 8.96692 102.846 9.07795 103.267 9.07795C103.549 9.07795 103.804 9.02657 104.033 8.92383C104.265 8.81777 104.459 8.66696 104.615 8.47141C104.774 8.27586 104.885 8.04054 104.948 7.76545H106.395C106.341 8.25929 106.181 8.70011 105.912 9.08789C105.644 9.47567 105.284 9.7806 104.833 10.0027C104.386 10.2247 103.861 10.3358 103.257 10.3358ZM107.406 3.82795V2.54528H113.849V3.82795H111.359V10.1816H109.907V3.82795H107.406ZM117.289 10.3507C116.805 10.3507 116.367 10.2612 115.976 10.0822C115.585 9.89992 115.275 9.63642 115.046 9.29173C114.821 8.94703 114.708 8.52444 114.708 8.02397C114.708 7.5931 114.791 7.23846 114.957 6.96005C115.123 6.68164 115.346 6.46123 115.628 6.29883C115.91 6.13642 116.225 6.01379 116.573 5.93093C116.921 5.84807 117.275 5.7851 117.637 5.74201C118.094 5.68898 118.465 5.64589 118.75 5.61275C119.035 5.57629 119.242 5.51829 119.372 5.43874C119.501 5.3592 119.566 5.22994 119.566 5.05096V5.01616C119.566 4.58197 119.443 4.24556 119.198 4.00692C118.956 3.76829 118.594 3.64897 118.114 3.64897C117.613 3.64897 117.219 3.76 116.931 3.98207C116.646 4.20082 116.448 4.44442 116.339 4.71289L114.942 4.39471C115.108 3.93069 115.35 3.55617 115.668 3.27113C115.989 2.98278 116.359 2.77397 116.776 2.64471C117.194 2.51213 117.633 2.44585 118.094 2.44585C118.399 2.44585 118.722 2.4823 119.063 2.55522C119.408 2.62482 119.73 2.75408 120.028 2.943C120.329 3.13192 120.576 3.40205 120.769 3.75337C120.961 4.10138 121.057 4.5538 121.057 5.11062V10.1816H119.605V9.13761H119.546C119.45 9.32984 119.305 9.51876 119.113 9.70437C118.921 9.88997 118.674 10.0441 118.372 10.1667C118.071 10.2894 117.709 10.3507 117.289 10.3507ZM117.612 9.15749C118.023 9.15749 118.374 9.07629 118.666 8.91388C118.961 8.75148 119.184 8.53936 119.337 8.27752C119.493 8.01237 119.57 7.72899 119.57 7.42738V6.443C119.517 6.49603 119.415 6.54575 119.262 6.59215C119.113 6.63524 118.942 6.67335 118.75 6.7065C118.558 6.73633 118.371 6.7645 118.188 6.79102C118.006 6.81422 117.854 6.8341 117.731 6.85067C117.443 6.88713 117.179 6.94845 116.941 7.03462C116.705 7.1208 116.516 7.24509 116.374 7.40749C116.235 7.56658 116.165 7.7787 116.165 8.04386C116.165 8.41175 116.301 8.69016 116.573 8.87908C116.844 9.06469 117.191 9.15749 117.612 9.15749Z" fill="url(#paint0_linear_951_10365)"/>
<path d="M6.34871 -0.00017786V1.32227H1.53621V10.1816H-1.38432e-05V-0.00017786H6.34871ZM10.1445 10.3358C9.39215 10.3358 8.74419 10.175 8.20063 9.85352C7.66038 9.52871 7.24277 9.07298 6.94778 8.48633C6.65612 7.89637 6.51028 7.20531 6.51028 6.41317C6.51028 5.63098 6.65612 4.94158 6.94778 4.34499C7.24277 3.7484 7.65375 3.28273 8.18074 2.94798C8.71104 2.61322 9.33083 2.44585 10.0401 2.44585C10.471 2.44585 10.8886 2.5171 11.293 2.65962C11.6973 2.80214 12.0602 3.02586 12.3817 3.33079C12.7032 3.63571 12.9568 4.03178 13.1424 4.519C13.328 5.0029 13.4208 5.5912 13.4208 6.28391V6.8109H7.35048V5.69727H11.9641C11.9641 5.30617 11.8846 4.95981 11.7255 4.6582C11.5664 4.35328 11.3427 4.11299 11.0543 3.93732C10.7693 3.76166 10.4345 3.67383 10.0501 3.67383C9.63244 3.67383 9.26786 3.77657 8.95631 3.98207C8.64807 4.18424 8.40943 4.4494 8.2404 4.77752C8.07468 5.10233 7.99182 5.45531 7.99182 5.83647V6.7065C7.99182 7.21692 8.08131 7.6511 8.26028 8.00906C8.44258 8.36701 8.69613 8.64045 9.02094 8.82937C9.34575 9.01497 9.72525 9.10778 10.1594 9.10778C10.4412 9.10778 10.698 9.068 10.93 8.98846C11.162 8.9056 11.3626 8.78297 11.5316 8.62056C11.7006 8.45816 11.8299 8.25763 11.9194 8.019L13.3263 8.27255C13.2136 8.68685 13.0115 9.04978 12.7198 9.36133C12.4314 9.66957 12.0685 9.90986 11.631 10.0822C11.1968 10.2512 10.7013 10.3358 10.1445 10.3358ZM20.2455 5.72212V7.00977H16.1092V5.72212H20.2455ZM16.5268 2.54528V10.1816H15.0701V2.54528H16.5268ZM21.2846 2.54528V10.1816H19.8329V2.54528H21.2846ZM26.5644 10.3358C25.8121 10.3358 25.1641 10.175 24.6205 9.85352C24.0803 9.52871 23.6627 9.07298 23.3677 8.48633C23.076 7.89637 22.9302 7.20531 22.9302 6.41317C22.9302 5.63098 23.076 4.94158 23.3677 4.34499C23.6627 3.7484 24.0737 3.28273 24.6007 2.94798C25.131 2.61322 25.7508 2.44585 26.46 2.44585C26.8909 2.44585 27.3085 2.5171 27.7129 2.65962C28.1172 2.80214 28.4802 3.02586 28.8017 3.33079C29.1232 3.63571 29.3767 4.03178 29.5623 4.519C29.7479 5.0029 29.8407 5.5912 29.8407 6.28391V6.8109H23.7704V5.69727H28.384C28.384 5.30617 28.3045 4.95981 28.1454 4.6582C27.9863 4.35328 27.7626 4.11299 27.4742 3.93732C27.1892 3.76166 26.8544 3.67383 26.47 3.67383C26.0524 3.67383 25.6878 3.77657 25.3762 3.98207C25.068 4.18424 24.8294 4.4494 24.6603 4.77752C24.4946 5.10233 24.4117 5.45531 24.4117 5.83647V6.7065C24.4117 7.21692 24.5012 7.6511 24.6802 8.00906C24.8625 8.36701 25.116 8.64045 25.4409 8.82937C25.7657 9.01497 26.1452 9.10778 26.5794 9.10778C26.8611 9.10778 27.1179 9.068 27.35 8.98846C27.582 8.9056 27.7825 8.78297 27.9515 8.62056C28.1205 8.45816 28.2498 8.25763 28.3393 8.019L29.7463 8.27255C29.6336 8.68685 29.4314 9.04978 29.1397 9.36133C28.8514 9.66957 28.4884 9.90986 28.0509 10.0822C27.6168 10.2512 27.1213 10.3358 26.5644 10.3358ZM31.49 13.0453V2.54528H32.9417V3.7832H33.066C33.1522 3.62411 33.2765 3.44016 33.4389 3.23136C33.6013 3.02255 33.8267 2.84026 34.115 2.68448C34.4034 2.52539 34.7846 2.44585 35.2585 2.44585C35.875 2.44585 36.4252 2.60162 36.9091 2.91317C37.393 3.22473 37.7725 3.67383 38.0476 4.26048C38.326 4.84712 38.4652 5.55309 38.4652 6.37837C38.4652 7.20366 38.3276 7.91128 38.0525 8.50124C37.7774 9.08789 37.3996 9.54031 36.919 9.85849C36.4384 10.1734 35.8899 10.3308 35.2734 10.3308C34.8094 10.3308 34.4299 10.2529 34.1349 10.0971C33.8433 9.94135 33.6146 9.75906 33.4488 9.55025C33.2831 9.34144 33.1555 9.15584 33.066 8.99343H32.9765V13.0453H31.49ZM32.9467 6.36346C32.9467 6.90039 33.0246 7.37103 33.1804 7.77539C33.3362 8.17975 33.5615 8.49627 33.8565 8.72496C34.1515 8.95034 34.5128 9.06303 34.9403 9.06303C35.3845 9.06303 35.7557 8.94537 36.054 8.71005C36.3523 8.47141 36.5776 8.14826 36.7301 7.74059C36.8859 7.33292 36.9638 6.87388 36.9638 6.36346C36.9638 5.85967 36.8875 5.40726 36.7351 5.00621C36.5859 4.60517 36.3605 4.28865 36.0589 4.05664C35.7606 3.82463 35.3878 3.70863 34.9403 3.70863C34.5095 3.70863 34.1449 3.81966 33.8466 4.04173C33.5516 4.26379 33.3279 4.57369 33.1754 4.97141C33.023 5.36914 32.9467 5.83316 32.9467 6.36346ZM42.353 10.3507C41.8691 10.3507 41.4316 10.2612 41.0405 10.0822C40.6494 9.89992 40.3395 9.63642 40.1108 9.29173C39.8854 8.94703 39.7727 8.52444 39.7727 8.02397C39.7727 7.5931 39.8556 7.23846 40.0213 6.96005C40.187 6.68164 40.4107 6.46123 40.6925 6.29883C40.9742 6.13642 41.289 6.01379 41.6371 5.93093C41.9851 5.84807 42.3397 5.7851 42.701 5.74201C43.1584 5.68898 43.5296 5.64589 43.8146 5.61275C44.0997 5.57629 44.3068 5.51829 44.4361 5.43874C44.5653 5.3592 44.63 5.22994 44.63 5.05096V5.01616C44.63 4.58197 44.5073 4.24556 44.2621 4.00692C44.0201 3.76829 43.6588 3.64897 43.1783 3.64897C42.6778 3.64897 42.2834 3.76 41.995 3.98207C41.71 4.20082 41.5128 4.44442 41.4034 4.71289L40.0064 4.39471C40.1721 3.93069 40.414 3.55617 40.7322 3.27113C41.0537 2.98278 41.4233 2.77397 41.8409 2.64471C42.2585 2.51213 42.6977 2.44585 43.1584 2.44585C43.4633 2.44585 43.7864 2.4823 44.1278 2.55522C44.4725 2.62482 44.794 2.75408 45.0923 2.943C45.3939 3.13192 45.6408 3.40205 45.8331 3.75337C46.0253 4.10138 46.1214 4.5538 46.1214 5.11062V10.1816H44.6697V9.13761H44.6101C44.514 9.32984 44.3698 9.51876 44.1775 9.70437C43.9853 9.88997 43.7384 10.0441 43.4368 10.1667C43.1352 10.2894 42.7739 10.3507 42.353 10.3507ZM42.6761 9.15749C43.0871 9.15749 43.4384 9.07629 43.7301 8.91388C44.0251 8.75148 44.2488 8.53936 44.4013 8.27752C44.557 8.01237 44.6349 7.72899 44.6349 7.42738V6.443C44.5819 6.49603 44.4792 6.54575 44.3267 6.59215C44.1775 6.63524 44.0069 6.67335 43.8146 6.7065C43.6224 6.73633 43.4351 6.7645 43.2528 6.79102C43.0705 6.81422 42.9181 6.8341 42.7954 6.85067C42.5071 6.88713 42.2436 6.94845 42.005 7.03462C41.7696 7.1208 41.5807 7.24509 41.4382 7.40749C41.299 7.56658 41.2294 7.7787 41.2294 8.04386C41.2294 8.41175 41.3653 8.69016 41.6371 8.87908C41.9088 9.06469 42.2552 9.15749 42.6761 9.15749ZM54.3308 2.54528V8.9636H55.4494V12.6426H53.9828V10.1816H48.1014V2.54528H49.558V8.89897H52.8791V2.54528H54.3308ZM58.5541 8.09854L61.9199 2.54528H63.5208V10.1816H62.0641V4.6234L58.7132 10.1816H57.0975V2.54528H58.5541V8.09854ZM70.0733 10.1816V3.81303H68.2438C67.8096 3.81303 67.4715 3.91412 67.2296 4.1163C66.9876 4.31848 66.8666 4.58363 66.8666 4.91175C66.8666 5.23656 66.9777 5.4984 67.1997 5.69727C67.4251 5.89281 67.74 5.99059 68.1443 5.99059H70.5058V7.19371H68.1443C67.5809 7.19371 67.0937 7.10091 66.6827 6.91531C66.275 6.72638 65.9602 6.45958 65.7381 6.11488C65.5193 5.77018 65.41 5.36251 65.41 4.89187C65.41 4.41128 65.5227 3.99698 65.748 3.64897C65.9767 3.29764 66.3032 3.02586 66.7274 2.83363C67.155 2.64139 67.6604 2.54528 68.2438 2.54528H71.4703V10.1816H70.0733ZM65.062 10.1816L67.2147 6.32369H68.736L66.5833 10.1816H65.062ZM76.7265 3.82795V2.54528H83.1697V3.82795H80.679V10.1816H79.2273V3.82795H76.7265ZM87.6777 10.3358C86.9254 10.3358 86.2774 10.175 85.7338 9.85352C85.1936 9.52871 84.776 9.07298 84.481 8.48633C84.1893 7.89637 84.0435 7.20531 84.0435 6.41317C84.0435 5.63098 84.1893 4.94158 84.481 4.34499C84.776 3.7484 85.187 3.28273 85.7139 2.94798C86.2442 2.61322 86.864 2.44585 87.5733 2.44585C88.0042 2.44585 88.4218 2.5171 88.8262 2.65962C89.2305 2.80214 89.5934 3.02586 89.9149 3.33079C90.2364 3.63571 90.49 4.03178 90.6756 4.519C90.8612 5.0029 90.954 5.5912 90.954 6.28391V6.8109H84.8837V5.69727H89.4973C89.4973 5.30617 89.4178 4.95981 89.2587 4.6582C89.0996 4.35328 88.8759 4.11299 88.5875 3.93732C88.3025 3.76166 87.9677 3.67383 87.5833 3.67383C87.1656 3.67383 86.8011 3.77657 86.4895 3.98207C86.1813 4.18424 85.9426 4.4494 85.7736 4.77752C85.6079 5.10233 85.525 5.45531 85.525 5.83647V6.7065C85.525 7.21692 85.6145 7.6511 85.7935 8.00906C85.9758 8.36701 86.2293 8.64045 86.5541 8.82937C86.879 9.01497 87.2584 9.10778 87.6926 9.10778C87.9744 9.10778 88.2312 9.068 88.4632 8.98846C88.6952 8.9056 88.8958 8.78297 89.0648 8.62056C89.2338 8.45816 89.3631 8.25763 89.4526 8.019L90.8595 8.27255C90.7468 8.68685 90.5447 9.04978 90.253 9.36133C89.9647 9.66957 89.6017 9.90986 89.1642 10.0822C88.73 10.2512 88.2345 10.3358 87.6777 10.3358ZM92.6033 10.1816V2.54528H94.0898V5.74698H94.8057L97.3263 2.54528H99.1658L96.2077 6.25906L99.2006 10.1816H97.3562L95.0543 7.12908H94.0898V10.1816H92.6033ZM103.257 10.3358C102.518 10.3358 101.882 10.1684 101.348 9.83363C100.818 9.49556 100.41 9.02989 100.125 8.43661C99.8403 7.84334 99.6978 7.16388 99.6978 6.39826C99.6978 5.62269 99.8436 4.93827 100.135 4.34499C100.427 3.7484 100.838 3.28273 101.368 2.94798C101.899 2.61322 102.523 2.44585 103.243 2.44585C103.823 2.44585 104.34 2.55356 104.794 2.769C105.248 2.98112 105.614 3.27941 105.892 3.66388C106.174 4.04835 106.341 4.49745 106.395 5.01119H104.948C104.868 4.65323 104.686 4.34499 104.401 4.08647C104.119 3.82795 103.741 3.69869 103.267 3.69869C102.853 3.69869 102.49 3.80806 102.179 4.02681C101.87 4.24225 101.63 4.55049 101.458 4.95153C101.285 5.34925 101.199 5.8199 101.199 6.36346C101.199 6.92028 101.284 7.40086 101.453 7.80522C101.622 8.20958 101.86 8.52279 102.169 8.74485C102.48 8.96692 102.846 9.07795 103.267 9.07795C103.549 9.07795 103.804 9.02657 104.033 8.92383C104.265 8.81777 104.459 8.66696 104.615 8.47141C104.774 8.27586 104.885 8.04054 104.948 7.76545H106.395C106.341 8.25929 106.181 8.70011 105.912 9.08789C105.644 9.47567 105.284 9.7806 104.833 10.0027C104.386 10.2247 103.861 10.3358 103.257 10.3358ZM107.406 3.82795V2.54528H113.849V3.82795H111.359V10.1816H109.907V3.82795H107.406ZM117.289 10.3507C116.805 10.3507 116.367 10.2612 115.976 10.0822C115.585 9.89992 115.275 9.63642 115.046 9.29173C114.821 8.94703 114.708 8.52444 114.708 8.02397C114.708 7.5931 114.791 7.23846 114.957 6.96005C115.123 6.68164 115.346 6.46123 115.628 6.29883C115.91 6.13642 116.225 6.01379 116.573 5.93093C116.921 5.84807 117.275 5.7851 117.637 5.74201C118.094 5.68898 118.465 5.64589 118.75 5.61275C119.035 5.57629 119.242 5.51829 119.372 5.43874C119.501 5.3592 119.566 5.22994 119.566 5.05096V5.01616C119.566 4.58197 119.443 4.24556 119.198 4.00692C118.956 3.76829 118.594 3.64897 118.114 3.64897C117.613 3.64897 117.219 3.76 116.931 3.98207C116.646 4.20082 116.448 4.44442 116.339 4.71289L114.942 4.39471C115.108 3.93069 115.35 3.55617 115.668 3.27113C115.989 2.98278 116.359 2.77397 116.776 2.64471C117.194 2.51213 117.633 2.44585 118.094 2.44585C118.399 2.44585 118.722 2.4823 119.063 2.55522C119.408 2.62482 119.73 2.75408 120.028 2.943C120.329 3.13192 120.576 3.40205 120.769 3.75337C120.961 4.10138 121.057 4.5538 121.057 5.11062V10.1816H119.605V9.13761H119.546C119.45 9.32984 119.305 9.51876 119.113 9.70437C118.921 9.88997 118.674 10.0441 118.372 10.1667C118.071 10.2894 117.709 10.3507 117.289 10.3507ZM117.612 9.15749C118.023 9.15749 118.374 9.07629 118.666 8.91388C118.961 8.75148 119.184 8.53936 119.337 8.27752C119.493 8.01237 119.57 7.72899 119.57 7.42738V6.443C119.517 6.49603 119.415 6.54575 119.262 6.59215C119.113 6.63524 118.942 6.67335 118.75 6.7065C118.558 6.73633 118.371 6.7645 118.188 6.79102C118.006 6.81422 117.854 6.8341 117.731 6.85067C117.443 6.88713 117.179 6.94845 116.941 7.03462C116.705 7.1208 116.516 7.24509 116.374 7.40749C116.235 7.56658 116.165 7.7787 116.165 8.04386C116.165 8.41175 116.301 8.69016 116.573 8.87908C116.844 9.06469 117.191 9.15749 117.612 9.15749Z" fill="white" fill-opacity="0.3"/>
<defs>
<linearGradient id="paint0_linear_951_10365" x1="-1.11862" y1="5.18164" x2="122.881" y2="5.18164" gradientUnits="userSpaceOnUse">
<stop stop-color="#9747FF"/>
<stop offset="1" stop-color="#005FF9"/>
</linearGradient>
</defs>
</svg>
