<svg width="12" height="12" viewBox="0 0 12 12" fill="none" xmlns="http://www.w3.org/2000/svg">
<path d="M11.3868 11.3137C11.5418 11.3137 11.6675 11.188 11.6675 11.033L11.6675 0.66424C11.6675 0.576996 11.6504 0.490601 11.617 0.409993C11.5836 0.329384 11.5347 0.256143 11.473 0.194452C11.4113 0.132761 11.3381 0.0838301 11.2575 0.0504562C11.1769 0.0170819 11.0905 -8.16453e-05 11.0032 -5.40813e-05L0.63454 -5.34175e-05C0.479503 -5.34702e-05 0.353825 0.125636 0.353838 0.280674L0.353907 1.04798C0.353921 1.20299 0.479591 1.32865 0.634609 1.32865L9.39918 1.32865L0.0822443 10.6456C-0.0273766 10.7552 -0.0273756 10.9329 0.0822453 11.0426L0.624907 11.5852C0.734527 11.6948 0.912258 11.6948 1.02188 11.5852L10.3388 2.26829L10.3389 11.033C10.3389 11.188 10.4646 11.3137 10.6196 11.3137H11.3868Z" fill="#DCE8FF"/>
</svg>
