<svg width="24" height="24" viewBox="0 0 24 24" fill="none" xmlns="http://www.w3.org/2000/svg">
<mask id="mask0_927_5078" style="mask-type:alpha" maskUnits="userSpaceOnUse" x="0" y="0" width="24" height="24">
<rect width="24" height="24" fill="#D9D9D9"/>
</mask>
<g mask="url(#mask0_927_5078)">
<path d="M18.125 13.7501V10.7501H15.125V9.25013H18.125V6.25013H19.625V9.25013H22.625V10.7501H19.625V13.7501H18.125ZM9 11.6924C8.0375 11.6924 7.21358 11.3497 6.52825 10.6644C5.84275 9.97888 5.5 9.15488 5.5 8.19238C5.5 7.22988 5.84275 6.40597 6.52825 5.72063C7.21358 5.03513 8.0375 4.69238 9 4.69238C9.9625 4.69238 10.7864 5.03513 11.4718 5.72063C12.1573 6.40597 12.5 7.22988 12.5 8.19238C12.5 9.15488 12.1573 9.97888 11.4718 10.6644C10.7864 11.3497 9.9625 11.6924 9 11.6924ZM1.5 19.3079V17.0846C1.5 16.595 1.633 16.1415 1.899 15.7241C2.165 15.3068 2.5205 14.986 2.9655 14.7616C3.95383 14.2771 4.95092 13.9137 5.95675 13.6714C6.96258 13.429 7.977 13.3079 9 13.3079C10.023 13.3079 11.0374 13.429 12.0433 13.6714C13.0491 13.9137 14.0462 14.2771 15.0345 14.7616C15.4795 14.986 15.835 15.3068 16.101 15.7241C16.367 16.1415 16.5 16.595 16.5 17.0846V19.3079H1.5Z" fill="#DCE8FF"/>
</g>
</svg>
